<svg viewBox="-86 0 511 511.99984" xmlns="http://www.w3.org/2000/svg"><path d="m278.582031 220.285156h6.019531c16.589844 0 30.035157-13.449218 30.035157-30.035156 0-16.589844-13.445313-30.035156-30.035157-30.035156h-5.664062v47.109375c.003906 4.324219-.125 8.644531-.355469 12.960937zm0 0" fill="#ceae98"/><path d="m106.75 367.710938c-31.84375 0-57.660156 25.816406-57.660156 57.660156v76.628906h99.378906l-27.46875-134.289062zm0 0" fill="#ffcd40"/><path d="m285.21875 502v-76.628906c0-31.84375-25.8125-57.660156-57.660156-57.660156h-15.945313l-27.464843 134.289062zm0 0" fill="#ffcd40"/><path d="m194.695312 368.835938c0 15.210937-12.332031 27.539062-27.539062 27.539062-15.210938 0-27.539062-12.328125-27.539062-27.539062v-1.394532h-18.671876l.054688.269532 27.46875 134.289062h35.679688l27.464843-134.289062.054688-.269532h-16.976563v1.394532zm0 0" fill="#d3e6f0"/><path d="m167.15625 341.445312c-9.480469 0-18.710938-1.230468-27.539062-3.523437v30.914063c0 15.210937 12.328124 27.539062 27.539062 27.539062 15.207031 0 27.539062-12.328125 27.539062-27.539062v-30.902344c-8.832031 2.292968-18.0625 3.511718-27.539062 3.511718zm0 0" fill="#ceae98"/><path d="m41.773438 193.683594v-33.46875h-1.242188c-16.585938 0-30.035156 13.445312-30.035156 30.035156 0 16.585938 13.449218 30.035156 30.035156 30.035156h14.839844v-10.390625c-7.726563-1.363281-13.597656-8.09375-13.597656-16.210937zm0 0" fill="#ceae98"/><path d="m254.429688 125.011719h-157.699219c-12.148438 0-22 9.847656-22 21.996093v46.675782c0 9.101562-7.375 16.480468-16.480469 16.480468-.972656 0-1.921875-.101562-2.851562-.261718.148437 13.996094 1.472656 27.960937 3.996093 41.734375 7.824219 42.699219 39.777344 75.789062 80.222657 86.285156 8.828124 2.292969 18.058593 3.527344 27.539062 3.527344 9.476562 0 18.707031-1.222657 27.539062-3.511719 18.339844-4.757812 34.9375-14.164062 48.328126-27.011719 1.644531-1.578125 3.695312-2.65625 5.925781-3.117187 6.707031-1.386719 21.695312-5.894532 27.9375-19.148438 4.058593-8.609375.152343-21.492187-2.058594-27.410156-.808594-2.160156-.949219-4.507812-.472656-6.769531.199219-.941407.382812-1.890625.558593-2.84375 1.898438-10.367188 3.117188-20.835938 3.671876-31.351563.226562-4.316406.355468-8.636718.355468-12.960937v-86.695313c-7.660156 2.828125-15.917968 4.382813-24.511718 4.382813zm0 0" fill="#fcdac6"/><path d="m58.25 210.164062c9.101562 0 16.480469-7.378906 16.480469-16.480468v-46.675782c0-12.148437 9.847656-21.996093 22-21.996093h157.699219c8.59375 0 16.851562-1.558594 24.511718-4.386719 24.988282-9.222656 43.53125-32.136719 45.921875-60.070312 2.21875-25.890626-2.109375-47.53125-2.109375-47.53125s-28.890625 26.894531-90.828125 10.078124c-188.4375-51.15625-193.273437 61.582032-191.015625 93.6875.589844 8.410157.863282 16.832032.863282 25.261719v51.632813c0 8.113281 5.871093 14.84375 13.597656 16.210937.007812 0 .019531.003907.027344.003907.929687.164062 1.878906.265624 2.851562.265624zm0 0" fill="#b57a69"/><path d="m227.558594 357.714844h-13.601563c-.742187-.175782-1.511719-.269532-2.289062-.269532h-6.972657v-12.039062c16.847657-5.578125 32.363282-14.902344 45.214844-27.238281.300782-.285157.667969-.480469 1.066406-.5625 7.769532-1.609375 26.730469-7.238281 34.960938-24.6875 5.246094-11.15625 1.949219-25.277344-1.746094-35.179688-.125-.335937-.144531-.761719-.054687-1.207031.21875-1.042969.429687-2.09375.605469-3.09375 1.410156-7.691406 2.464843-15.496094 3.164062-23.304688 20.535156-1.6875 36.734375-18.925781 36.734375-39.882812 0-10.691406-4.167969-20.75-11.738281-28.320312-6.53125-6.519532-14.917969-10.503907-23.964844-11.472657v-23.199219c25.699219-12.167968 43.441406-37.308593 45.882812-65.847656 2.316407-27-2.078124-49.40625-2.265624-50.347656-.710938-3.554688-3.289063-6.445312-6.738282-7.554688-3.449218-1.113281-7.230468-.273437-9.882812 2.199219-.25.230469-25.464844 22.933594-81.398438 7.746094-77.597656-21.066406-134.429687-17.375-168.917968 10.96875-35.179688 28.914063-35.972657 74.726563-34.683594 93.078125.554687 7.890625.835937 16.148438.835937 24.550781v9.144531c-17.871093 4.007813-31.269531 19.992188-31.269531 39.054688 0 10.6875 4.160156 20.738281 11.726562 28.316406 7.566407 7.554688 17.617188 11.714844 28.304688 11.714844h5.867188c.003906.070312.007812.136719.015624.207031.710938 7.757813 1.769532 15.476563 3.140626 22.945313 7.875 43.011718 38.921874 78.34375 80.058593 91.960937v12.050781h-8.667969c-.78125 0-1.546874.09375-2.292968.269532h-11.910156c-37.300782 0-67.652344 30.351562-67.652344 67.660156v76.625c0 5.523438 4.476562 10 10 10h236.128906c5.523438 0 10-4.476562 10-10v-76.621094c0-37.3125-30.351562-67.664062-67.660156-67.664062zm-77.945313 11.121094v-18.679688c.320313.046875.636719.082031.957031.125.859376.121094 1.71875.230469 2.582032.332031.511718.0625 1.027344.117188 1.539062.171875.921875.097656 1.839844.179688 2.761719.253906.449219.035157.894531.074219 1.339844.105469 1.09375.078125 2.1875.132813 3.285156.179688.277344.011719.558594.03125.835937.039062 1.410157.050781 2.824219.082031 4.242188.082031 1.414062 0 2.828125-.03125 4.238281-.082031.28125-.007812.558594-.027343.839844-.039062 1.09375-.046875 2.191406-.101563 3.28125-.179688.445313-.03125.890625-.070312 1.332031-.105469.929688-.074218 1.855469-.160156 2.777344-.253906.507812-.054687 1.015625-.109375 1.519531-.167968.875-.105469 1.746094-.21875 2.621094-.339844.308594-.042969.621094-.074219.929687-.121094v18.679688c0 9.671874-7.867187 17.539062-17.539062 17.539062s-17.542969-7.867188-17.542969-17.539062zm149.15625-192.757813c3.785157 3.789063 5.871094 8.820313 5.871094 14.171875 0 9.558594-6.738281 17.578125-15.714844 19.558594.007813-.832032.011719-1.664063.011719-2.488282v-36.632812c3.695312.8125 7.089844 2.660156 9.832031 5.390625zm-220.453125-136.207031c12.945313-10.636719 30.515625-17.078125 52.234375-19.144532 26.742188-2.546874 59.96875 1.5 98.746094 12.027344 41.617187 11.304688 69.867187 4.105469 85.523437-3.183594.679688 8.003907 1.0625 18.628907.074219 30.128907v.003906c-1.984375 23.214844-17.457031 43.449219-39.421875 51.550781-6.738281 2.492188-13.816406 3.753906-21.046875 3.753906h-157.703125c-17.640625 0-31.992187 14.355469-31.992187 32v46.671876c0 1.730468-.671875 3.363281-1.898438 4.589843-1.472656 1.46875-3.558593 2.171875-5.640625 1.792969l-.140625-.027344c-.214843-.039062-.417969-.105468-.625-.167968-.167969-.046876-.34375-.085938-.507812-.144532-.1875-.074218-.363281-.167968-.542969-.257812-.152344-.074219-.3125-.140625-.460938-.226563-.171874-.101562-.324218-.226562-.488281-.34375-.132812-.101562-.277343-.191406-.40625-.296875-.152343-.132812-.285156-.285156-.425781-.433594-.113281-.113281-.234375-.222656-.339844-.351562-.132812-.15625-.238281-.335938-.355468-.507812-.089844-.128907-.191407-.253907-.269532-.390626-.109375-.191406-.1875-.398437-.277344-.597656-.0625-.136718-.136718-.265625-.1875-.40625-.085937-.230468-.136718-.476562-.195312-.714844-.03125-.125-.074219-.242187-.097656-.371093-.066406-.371094-.101563-.753907-.101563-1.144531v-51.632813c0-8.863281-.296875-17.59375-.882812-25.953125-1.074219-15.253906-.550781-53.222656 27.429687-76.222656zm-51.949218 164.554687c-3.78125-3.789062-5.867188-8.824219-5.867188-14.175781 0-7.90625 4.605469-14.757812 11.269531-18.011719v21.441407c0 .789062.039063 1.566406.105469 2.339843.023438.253907.066406.503907.097656.757813.058594.511718.117188 1.023437.203125 1.523437.054688.300781.128907.59375.191407.890625.09375.449219.183593.894532.300781 1.332032.082031.3125.183593.617187.277343.921874.128907.414063.25.828126.394532 1.230469.113281.3125.242187.613281.367187.917969.15625.386719.308594.777344.480469 1.152344.140625.308594.296875.601562.449219.898437.183593.367188.367187.730469.566406 1.085938.167969.292969.347656.578125.523437.863281.210938.34375.425782.6875.652344 1.019531.1875.28125.390625.550781.589844.820313.148438.203125.28125.410156.4375.605468-4.167969-.648437-8.007812-2.585937-11.039062-5.613281zm42.859374 45.398438c-1.261718-6.882813-2.238281-14.003907-2.894531-21.136719-.285156-3.214844-.507812-6.414062-.664062-9.574219.042969-.011719.082031-.027343.125-.039062.480469-.140625.953125-.292969 1.425781-.460938.046875-.019531.097656-.039062.144531-.058593.421875-.152344.835938-.316407 1.246094-.492188.148437-.0625.292969-.128906.441406-.195312.316407-.140626.636719-.289063.949219-.445313.148438-.074219.300781-.148437.445312-.226563.347657-.179687.691407-.371093 1.03125-.566406.097657-.054687.195313-.105468.289063-.160156.429687-.257812.851563-.527344 1.265625-.808594.105469-.066406.203125-.140625.304688-.210937.316406-.21875.628906-.445313.9375-.679688.128906-.101562.257812-.203125.386718-.304687.289063-.226563.570313-.460938.847656-.703125.113282-.097657.230469-.195313.34375-.292969.382813-.34375.757813-.691406 1.125-1.054688 3.125-3.128906 5.375-6.898437 6.621094-11.015624.25-.824219.460938-1.660157.628906-2.507813.167969-.851563.292969-1.710937.378907-2.578125.085937-.871094.128906-1.746094.128906-2.632812v-46.667969c0-6.617188 5.378906-12 11.988281-12h157.707032c1.210937 0 2.421874-.03125 3.628906-.082031.382812-.019532.765625-.054688 1.148437-.078126.820313-.046874 1.640625-.089843 2.457031-.164062.457032-.039062.90625-.101562 1.359376-.148438.742187-.082031 1.488281-.152343 2.226562-.253906.484375-.0625.96875-.148437 1.449219-.222656.703125-.109375 1.40625-.210938 2.105469-.335938.042968-.007812.089843-.011718.132812-.019531v73.617188c0 4.054687-.113281 8.238281-.335938 12.429687v.007813c-.523437 10.046875-1.710937 20.164062-3.539062 30.128906-.148438.847656-.316406 1.683594-.492188 2.511719l-.011718.046875c-.867188 4.167969-.550782 8.425781.902344 12.304687 3.125 8.367188 4.058593 16.085938 2.382812 19.644532-4.382812 9.292968-16.09375 12.625-20.917969 13.625-4.054687.835937-7.789062 2.792968-10.832031 5.6875-12.300781 11.804687-27.480469 20.292968-43.917969 24.550781-12.175781 3.171875-25.101562 3.964843-37.652343 2.378906-3.136719-.398437-6.253907-.941406-9.332032-1.636719-1.023437-.230468-2.042968-.480468-3.054687-.742187 0 0-.003907 0-.003907-.003907 0 0-.003906 0-.007812 0-37.332031-9.683593-65.945312-40.46875-72.898438-78.433593zm-10.132812 175.550781c0-26.277344 21.375-47.660156 47.648438-47.660156h6.09375l23.375 114.285156h-34.144532v-37.953125c0-5.523437-4.476562-10-10-10-5.523437 0-10 4.476563-10 10v37.953125h-22.972656zm97.53125 66.625-21.039062-102.867188c.011718.015626.023437.035157.035156.050782.070312.109375.144531.214844.21875.320312.125.191406.253906.382813.382812.570313.171875.246093.34375.492187.519532.734375.078124.109375.15625.222656.238281.332031.078125.105469.15625.207031.234375.3125.230468.300781.46875.601563.703125.894531.117187.140625.226562.285156.339843.425782.011719.015624.023438.03125.035157.042968.027343.03125.050781.058594.074219.089844.320312.378906.644531.753906.976562 1.121094.09375.097656.1875.195312.28125.296875.011719.011719.027344.027343.039062.039062.125.136719.253907.273438.378907.40625.15625.160157.304687.316407.460937.476563.148438.148437.300782.292968.453125.441406.160157.15625.320313.320312.484375.476562.035156.027344.066406.058594.097656.085938.058594.058594.121094.109375.179688.164062.167969.15625.339844.308594.511719.460938.25.222656.507812.445312.765625.660156 0 .003906.003906.003906.003906.003906.082031.070313.164062.148438.246094.214844.09375.078125.1875.148438.277344.222656.273437.21875.546874.433594.824218.644532.167969.132812.339844.265625.511719.394531.039063.027344.082031.0625.121094.089844.035156.027343.074219.054687.109375.082031.253906.183594.511718.359375.769531.539062.125.085938.246094.175782.375.261719.152344.105469.308594.199219.464844.300781.15625.101563.3125.203126.46875.300782.15625.101562.3125.203125.472656.300781.136719.082031.273437.160156.410156.238281.273438.164063.546875.328125.824219.484375.035156.019531.070312.035157.101562.054688.042969.023437.089844.046875.132813.070312.183594.101563.375.199219.5625.300781.316406.164063.632813.328126.949219.488282.105468.050781.210937.105468.316406.160156.097656.042969.195312.082031.289062.128906 0 0 .003907 0 .007813.003906.316406.148438.632813.292969.953125.429688.207031.09375.414062.183594.621094.269531.089844.035157.183594.078125.273437.117188.027344.011719.054688.019531.078125.03125.226563.089843.453125.171875.679688.257812.1875.070313.375.144531.566406.214844.21875.078125.4375.152344.65625.226563.171875.058593.34375.117187.515625.171874.058594.019532.117187.039063.171875.058594.097656.027344.1875.0625.285156.09375.503906.15625 1.011719.300782 1.527344.4375.015625.003906.03125.011719.050781.015625.023438.003907.050781.011719.074219.015625.171875.046875.34375.082032.511719.125.394531.097656.789062.191406 1.1875.273438.128906.027344.253906.054687.382812.082031.132813.023437.265625.046875.398438.070313.316406.0625.632812.117187.953125.167968.222656.039063.449218.074219.675781.105469.15625.023437.3125.050781.472656.070313.003907.003906.011719.003906.015625.003906.203125.023437.410156.042968.617188.066406.222656.023438.445312.050781.667968.070312.28125.027344.566407.050782.855469.070313.164063.011719.328125.023437.492188.035156.144531.007813.289062.019531.4375.027344.59375.027344 1.195312.042969 1.800781.042969.601562 0 1.203125-.015625 1.800781-.042969.089844-.003906.179688-.011719.269531-.015625.160157-.007812.320313-.023438.480469-.035156.34375-.023438.691407-.046875 1.03125-.082032.179688-.015624.355469-.035156.535157-.054687.148437-.015625.296874-.03125.445312-.050781.265625-.03125.53125-.066406.792969-.105469.226562-.03125.453125-.066406.679687-.105469.144532-.023437.292969-.039062.4375-.066406.011719 0 .019532-.003906.027344-.003906.210938-.035156.417969-.082032.628906-.121094.214844-.042969.429688-.082031.640625-.128906.195313-.039063.386719-.082032.582031-.128906.183594-.039063.363282-.085938.546876-.128907.019531-.007812.039062-.011719.054687-.015625.171875-.042968.339844-.078125.511719-.121094.269531-.070312.535156-.148437.800781-.226562.175781-.050781.355469-.097656.53125-.152344.105469-.03125.214844-.058594.320313-.09375.09375-.027344.1875-.0625.28125-.09375.398437-.125.796874-.253906 1.191406-.398437.015625-.003907.03125-.011719.046875-.015625.035156-.015625.074219-.027344.109375-.042969.191406-.066406.375-.140625.566406-.214844.34375-.132812.6875-.265625 1.027344-.40625.074218-.03125.148437-.054687.21875-.085937.136718-.058594.265625-.121094.402344-.179688.320312-.140625.640624-.285156.957031-.433594.144531-.066406.292969-.132812.4375-.203124.082031-.039063.164062-.082032.246093-.125.296876-.144532.589844-.296876.878907-.453126.1875-.097656.375-.195312.5625-.296874.070312-.039063.140625-.074219.210937-.113282.023438-.011718.042969-.027344.070313-.042968.261719-.144532.519531-.300782.78125-.457032.132812-.078125.269531-.15625.402343-.234375.117188-.070312.230469-.144531.34375-.21875.15625-.097656.308594-.195312.460938-.296875.203125-.128906.40625-.257812.605469-.390625.125-.082031.242187-.171875.363281-.253906.0625-.042969.121094-.085937.179688-.128906.144531-.101563.289062-.199219.433593-.300781.132813-.097657.265625-.195313.398438-.292969.171875-.125.335937-.253907.503906-.382813.191406-.148437.386719-.289062.574219-.441406.027344-.023438.054687-.046875.082031-.070312.058594-.046876.117187-.097657.175781-.144532.175782-.140625.347656-.285156.519532-.433594.214843-.179687.429687-.359374.636718-.542968.09375-.085938.191406-.167969.285156-.25.117188-.109375.238282-.21875.355469-.328125.261719-.242188.519531-.488281.773438-.738281.09375-.089844.1875-.175782.28125-.265626.054687-.054687.109375-.113281.164062-.167968.308594-.3125.609375-.628906.90625-.953125.082031-.089844.167969-.175781.25-.265625.015625-.015625.03125-.035156.046875-.050782.03125-.03125.058594-.070312.089844-.101562.324219-.363281.644531-.734375.957031-1.109375.066407-.078125.128907-.15625.191407-.234375.035156-.042969.074218-.085938.109374-.128906l-20.371093 99.59375h-19.355469zm118.59375 0h-21.613281v-37.953125c0-5.523437-4.480469-10-10-10-5.523438 0-10 4.476563-10 10v37.953125h-37.207031l23.375-114.285156h7.785156c26.28125 0 47.660156 21.382812 47.660156 47.660156zm0 0"/><path d="m147.726562 166.128906c-1.058593-5.421875-6.300781-8.957031-11.726562-7.902344l-36.671875 7.132813c-5.421875 1.054687-8.960937 6.304687-7.90625 11.726563.929687 4.777343 5.113281 8.09375 9.804687 8.09375.632813 0 1.277344-.0625 1.921876-.1875l36.671874-7.136719c5.417969-1.050781 8.960938-6.300781 7.90625-11.726563zm0 0"/><path d="m194.488281 177.859375 36.667969 7.132813c.648438.125 1.289062.1875 1.921875.1875 4.691406 0 8.875-3.316407 9.804687-8.09375 1.054688-5.421876-2.484374-10.671876-7.90625-11.726563l-36.667968-7.132813c-5.421875-1.054687-10.671875 2.484376-11.726563 7.90625-1.058593 5.421876 2.484375 10.671876 7.90625 11.726563zm0 0"/><path d="m134.445312 203.03125c0-.652344-.070312-1.3125-.199218-1.960938-.121094-.632812-.320313-1.261718-.570313-1.871093-.25-.601563-.550781-1.179688-.917969-1.71875-.363281-.550781-.78125-1.0625-1.242187-1.523438-2.320313-2.328125-5.769531-3.386719-9.019531-2.738281-.640625.128906-1.269532.320312-1.871094.570312-.609375.25-1.1875.558594-1.730469.917969-.546875.371094-1.058593.792969-1.519531 1.25-.460938.460938-.878906.972657-1.238281 1.523438-.359375.539062-.671875 1.117187-.921875 1.71875-.25.609375-.449219 1.238281-.570313 1.871093-.128906.648438-.199219 1.308594-.199219 1.960938 0 2.628906 1.070313 5.207031 2.929688 7.070312.460938.457032.972656.878907 1.519531 1.238282.542969.359375 1.121094.671875 1.730469.921875.601562.25 1.230469.4375 1.871094.566406.640625.132813 1.300781.203125 1.949218.203125 2.640626 0 5.210938-1.070312 7.070313-2.929688 1.859375-1.863281 2.929687-4.441406 2.929687-7.070312zm0 0"/><path d="m219.089844 199.199219c-.25-.597657-.5625-1.179688-.921875-1.71875-.359375-.550781-.777344-1.0625-1.238281-1.519531-.460938-.460938-.972657-.882813-1.519532-1.25-.542968-.359376-1.121094-.671876-1.730468-.921876-.601563-.25-1.230469-.4375-1.871094-.570312-1.289063-.257812-2.621094-.257812-3.910156 0-.628907.132812-1.261719.320312-1.871094.570312-.597656.25-1.179688.5625-1.71875.921876-.550782.367187-1.0625.789062-1.519532 1.25-.460937.457031-.882812.96875-1.25 1.519531-.359374.539062-.671874 1.121093-.910156 1.71875-.25.609375-.449218 1.242187-.570312 1.871093-.128906.648438-.199219 1.308594-.199219 1.960938 0 .648438.070313 1.308594.199219 1.949219.121094.640625.320312 1.269531.570312 1.871093.238282.609376.550782 1.1875.910156 1.730469.367188.546875.789063 1.058594 1.25 1.519531.457032.460938.96875.878907 1.519532 1.238282.539062.359375 1.121094.671875 1.71875.921875.609375.25 1.242187.4375 1.871094.570312.648437.128907 1.308593.199219 1.960937.199219.648437 0 1.308594-.070312 1.949219-.199219.640625-.132812 1.269531-.320312 1.871094-.570312.609374-.25 1.1875-.5625 1.730468-.921875.546875-.359375 1.058594-.777344 1.519532-1.238282.460937-.460937.878906-.972656 1.238281-1.519531.359375-.542969.671875-1.121093.921875-1.730469.25-.601562.4375-1.230468.570312-1.871093.128906-.640625.199219-1.300781.199219-1.949219 0-.652344-.070313-1.308594-.199219-1.960938-.132812-.628906-.320312-1.261718-.570312-1.871093zm0 0"/><path d="m146.320312 292.574219c13.433594-5.269531 28.230469-5.269531 41.664063 0l1.511719.589843c1.199218.472657 2.433594.695313 3.648437.695313 3.992188 0 7.765625-2.410156 9.3125-6.351563 2.019531-5.140624-.515625-10.945312-5.65625-12.960937l-1.511719-.59375c-18.140624-7.113281-38.125-7.117187-56.269531 0l-1.511719.59375c-5.140624 2.015625-7.675781 7.820313-5.65625 12.960937 2.015626 5.140626 7.820313 7.675782 12.960938 5.65625zm0 0"/><path d="m339.03125 260.710938c-1.664062-5.269532-7.289062-8.1875-12.546875-6.527344l-20.652344 6.523437c-5.265625 1.660157-8.1875 7.277344-6.523437 12.546875 1.347656 4.265625 5.285156 6.988282 9.535156 6.988282.996094 0 2.011719-.148438 3.011719-.464844l20.652343-6.523438c5.265626-1.660156 8.1875-7.277344 6.523438-12.542968zm0 0"/><path d="m329.371094 309.148438-16.453125-13c-4.332031-3.425782-10.617188-2.6875-14.042969 1.644531s-2.6875 10.621093 1.644531 14.046875l16.449219 13c1.835938 1.449218 4.023438 2.15625 6.195312 2.15625 2.953126 0 5.878907-1.304688 7.851563-3.800782 3.425781-4.332031 2.6875-10.625-1.644531-14.046874zm0 0"/><path d="m275.277344 317.9375c-5.277344 1.621094-8.242188 7.21875-6.617188 12.496094l6 19.503906c1.324219 4.296875 5.28125 7.058594 9.554688 7.058594.976562 0 1.964844-.140625 2.945312-.441406 5.277344-1.625 8.238282-7.222657 6.617188-12.5l-6-19.5c-1.625-5.28125-7.222656-8.246094-12.5-6.617188zm0 0"/><path d="m81.3125 90.25c.867188.234375 1.738281.34375 2.597656.34375 4.414063 0 8.453125-2.941406 9.652344-7.410156.019531-.074219 2.375-7.992188 9.507812-15.449219 10.074219-10.53125 24.542969-15.171875 42.996094-13.789063 5.511719.414063 10.304688-3.71875 10.71875-9.226562.410156-5.507812-3.71875-10.304688-9.226562-10.71875-30.769532-2.300781-49.035156 9.554688-58.941406 19.910156-10.679688 11.167969-14.023438 22.800782-14.371094 24.089844-1.433594 5.332031 1.730468 10.820312 7.066406 12.25zm0 0"/><path d="m180.214844 57.484375h.027344c5.523437 0 9.988281-4.476563 9.988281-10s-4.492188-10-10.015625-10c-5.523438 0-10 4.476563-10 10s4.476562 10 10 10zm0 0"/></svg>