<svg height="464pt" viewBox="0 -88 464 464" width="464pt" xmlns="http://www.w3.org/2000/svg"><path d="m0 128h464v32h-464zm0 0" fill="#238892"/><path d="m0 128 128-128h64v48h-56l-80 80zm0 0" fill="#2d75bb"/><path d="m464 128-128-128h-64v48h56l80 80zm0 0" fill="#2d75bb"/><path d="m160 160h144v32h-144zm0 0" fill="#87cee9"/><path d="m192 208c0 44.183594-35.816406 80-80 80s-80-35.816406-80-80 35.816406-80 80-80 80 35.816406 80 80zm0 0" fill="#fdbd40"/><path d="m432 208c0 44.183594-35.816406 80-80 80s-80-35.816406-80-80 35.816406-80 80-80 80 35.816406 80 80zm0 0" fill="#fdbd40"/><g fill="#5a6470"><path d="m160 208c0 26.507812-21.492188 48-48 48s-48-21.492188-48-48 21.492188-48 48-48 48 21.492188 48 48zm0 0"/><path d="m400 208c0 26.507812-21.492188 48-48 48s-48-21.492188-48-48 21.492188-48 48-48 48 21.492188 48 48zm0 0"/></g></svg>