<svg height="512pt" viewBox="0 -62 512 511" width="512pt" xmlns="http://www.w3.org/2000/svg"><path d="m75 176.914062c-41.351562 0-75-33.644531-75-75 0-41.351562 33.648438-75 75-75h30.675781v30h-30.675781c-24.8125 0-45 20.1875-45 45 0 24.816407 20.1875 45 45 45zm0 0" fill="#c762ed"/><path d="m437 176.914062v-30c24.8125 0 45-20.183593 45-45 0-24.8125-20.1875-45-45-45h-30.675781v-30h30.675781c41.351562 0 75 33.648438 75 75 0 41.355469-33.648438 75-75 75zm0 0" fill="#a84ae5"/><path d="m414.402344 29.316406c-32.402344-21.601562-104.703125-48.601562-158.402344-7.203125-53.699219-41.398437-126-14.398437-158.402344 7.203125-4.128906 2.8125-6.597656 7.488282-6.597656 12.488282v.109374c0 39 31.800781 44.101563 52.5 47.699219 20.097656 3.300781 32.699219 6.300781 39 18.902344 9 17.699219 9.902344 49.5 11.101562 83.101563l.597657 15.898437c.601562 16.199219 6.601562 30.300781 16.800781 40.800781v138.597656h90v-138.597656c10.203125-10.5 16.199219-24.601562 16.800781-40.800781l.601563-15.898437c1.199218-33.601563 2.101562-65.402344 11.101562-83.101563 6.296875-12.601563 18.898438-15.601563 39-18.902344 20.699219-3.597656 52.5-8.699219 52.5-47.699219v-.109374c-.003906-5-2.472656-9.675782-6.601562-12.488282zm0 0" fill="#e87cff"/><path d="m121 206.914062c-33.648438 0-60-19.757812-60-45 0-25.238281 26.351562-45 60-45s60 19.761719 60 45c0 25.242188-26.351562 45-60 45zm0 0" fill="#e87cff"/><g fill="#c762ed"><path d="m391 206.914062c-33.648438 0-60-19.757812-60-45 0-25.238281 26.351562-45 60-45s60 19.761719 60 45c0 25.242188-26.351562 45-60 45zm0 0"/><path d="m414.402344 29.316406c4.128906 2.8125 6.597656 7.488282 6.597656 12.488282v.113281c0 39-31.800781 44.097656-52.5 47.699219-20.097656 3.300781-32.699219 6.300781-39 18.898437-9 17.699219-9.902344 49.5-11.101562 83.101563l-.597657 15.898437c-.601562 16.199219-6.601562 30.300781-16.800781 40.800781v138.601563h-45v-364.804688c53.699219-41.398437 126-14.398437 158.402344 7.203125zm0 0"/></g></svg>