<svg height="512pt" viewBox="0 0 512.00054 512" width="512pt" xmlns="http://www.w3.org/2000/svg"><path d="m392.820312 347.5c0 68.101562-32.703124 115.300781-54.300781 145.902344-3 4.199218-5.699219 8.097656-8.402343 11.996094l-4.195313 6.601562h-257.402344l-4.199219-8.101562c-37.800781-75.898438-34.800781-163 7.199219-233.800782l61.199219-201.597656c3-6.902344 3-16-.597656-23.199219-3.300782-6.902343-9-11.699219-16.5-13.800781-2.101563-.601562-4.503906-.902344-7.203125-.902344l-.597657-30.597656h126.300782l4.199218 4.5c9.597657 9.300781 18.300782 18.699219 26.097657 26.5 46.804687 45.300781 72.601562 70.5 50.703125 113.398438-9 17.101562-21 25.800781-34.800782 30.300781 55.199219 29.699219 112.5 72 112.5 172.800781zm0 0" fill="#25d9f8"/><path d="m392.820312 347.5c0 68.101562-32.703124 115.300781-54.300781 145.902344-3 4.199218-5.699219 8.097656-8.402343 11.996094l-4.195313 6.601562h-128.703125v-512h36.902344l4.199218 4.5c9.597657 9.300781 18.300782 18.699219 26.097657 26.5 46.804687 45.300781 72.601562 70.5 50.703125 113.398438-9 17.101562-21 25.800781-34.800782 30.300781 55.199219 29.699219 112.5 72 112.5 172.800781zm0 0" fill="#00c0f1"/><path d="m331.917969 310.898438c-1.5-4.199219-16.5-38.699219-93.300781-39.898438l-41.398438-20.699219-91.199219-45.601562 54.300781-124.199219c6.597657-15.296875 6-33.398438-1.199218-48.101562-6.902344-14.699219-20.101563-25.5-35.101563-29.699219-6.300781-1.800781-12.300781-2.101563-16.199219-2.101563-12.898437 0-25.5 4.503906-35.097656 12.601563-9 7.199219-15.601562 17.800781-18.601562 28.601562l-52.203125 169.796875c-6.296875 21 3.300781 43.203125 23.101562 53.402344l192 96h3.601563c15 0 36.597656-5.101562 65.699218-15.902344l53.398438-19.199218zm0 0" fill="#fdd0d0"/><g fill="#00c0f1"><path d="m452 330h60v30h-60zm0 0"/><path d="m441.453125 302.609375-21.210937-21.210937 42.4375-42.417969 21.210937 21.207031zm0 0"/><path d="m462.679688 451.101562-42.4375-42.421874 21.210937-21.210938 42.4375 42.421875zm0 0"/></g><path d="m339.71875 325.898438-53.398438 19.199218c-29.101562 10.800782-50.699218 15.902344-65.699218 15.902344h-3.601563l-19.800781-9.902344v-100.796875l41.402344 20.699219c76.796875 1.199219 91.796875 35.699219 93.296875 39.898438zm0 0" fill="#faaaaa"/></svg>