<svg height="512pt" viewBox="0 -7 512 512" width="512pt" xmlns="http://www.w3.org/2000/svg"><path d="m235.476562 52.039062h41.042969v54.128907h-41.042969zm0 0" fill="#56565b"/><path d="m423.617188 187.566406v-59.84375c0-21.523437-17.445313-38.96875-38.96875-38.96875h-257.296876c-21.523437 0-38.96875 17.445313-38.96875 38.96875v59.84375c0 19.824219-4.96875 39.328125-14.445312 56.738282l-63.570312 116.789062c-6.804688 12.492188-10.367188 26.492188-10.367188 40.71875v55.320312c0 22.542969 18.273438 40.820313 40.816406 40.820313h430.367188c22.542968 0 40.816406-18.277344 40.816406-40.820313v-55.320312c0-14.226562-3.5625-28.226562-10.363281-40.71875l-63.574219-116.789062c-9.476562-17.410157-14.445312-36.914063-14.445312-56.738282zm0 0" fill="#d8d7da"/><path d="m88.382812 127.722656v59.84375c0 19.824219-4.96875 39.328125-14.445312 56.738282l-63.574219 116.789062c-6.800781 12.492188-10.363281 26.492188-10.363281 40.71875v55.320312c0 22.542969 18.273438 40.820313 40.816406 40.820313h103.804688c-12.933594-13.285156-13.066406-36.171875-13.066406-36.171875v-59.839844c0-14.507812 1.347656-28.984375 4.023437-43.242187l23.773437-126.691407c2.457032-13.097656 3.25-26.445312 2.359376-39.738281-.773438-11.535156-1.996094-27.53125-3.863282-47.15625-4.046875-42.472656 48.539063-56.363281 48.539063-56.363281h-79.035157c-21.523437.003906-38.96875 17.449219-38.96875 38.972656zm0 0" fill="#c6c5ca"/><path d="m426.394531 213.074219c-1.839843-8.347657-2.773437-16.898438-2.773437-25.507813v-59.84375c0-21.523437-17.449219-38.96875-38.972656-38.96875h-257.296876c-21.523437 0-38.96875 17.445313-38.96875 38.96875v59.84375c0 8.609375-.9375 17.160156-2.773437 25.507813zm0 0" fill="#eaeaea"/><path d="m0 401.8125v55.320312c0 22.542969 18.273438 40.820313 40.816406 40.820313h430.367188c22.542968 0 40.816406-18.277344 40.816406-40.820313v-55.320312c0-7.347656-.949219-14.628906-2.804688-21.679688h-506.390624c-1.855469 7.050782-2.804688 14.332032-2.804688 21.679688zm0 0" fill="#eaeaea"/><path d="m132.574219 380.132812h-129.769531c-1.855469 7.050782-2.804688 14.332032-2.804688 21.679688v55.320312c0 22.542969 18.273438 40.820313 40.816406 40.820313h103.804688c-12.933594-13.285156-13.066406-36.171875-13.066406-36.171875v-59.839844c0-7.285156.339843-14.5625 1.019531-21.808594zm0 0" fill="#d8d7da"/><path d="m88.382812 127.722656v59.84375c0 8.609375-.9375 17.160156-2.773437 25.507813h76.125c.449219-6.921875.441406-13.871094-.023437-20.804688-.773438-11.535156-1.992188-27.53125-3.863282-47.15625-4.042968-42.472656 48.542969-56.363281 48.542969-56.363281h-79.039063c-21.523437.003906-38.96875 17.449219-38.96875 38.972656zm0 0" fill="#d8d7da"/><g fill="#fff"><path d="m374.425781 276.234375h17.988281c5.011719 0 8.21875-5.339844 5.863282-9.765625l-5.625-10.5625c-2.34375-4.398438-6.921875-7.148438-11.90625-7.148438h-16.792969c-4.742187 0-7.957031 4.820313-6.136719 9.199219l4.15625 9.972657c2.09375 5.027343 7.003906 8.304687 12.453125 8.304687zm0 0"/><path d="m335.308594 307.914062h-24.28125c-4.742188 0-7.957032 4.820313-6.132813 9.199219l4.152344 9.972657c2.09375 5.03125 7.007813 8.308593 12.457031 8.308593h24.277344c4.742188 0 7.957031-4.824219 6.136719-9.199219l-4.15625-9.976562c-2.09375-5.027344-7.007813-8.304688-12.453125-8.304688zm0 0"/><path d="m412.25 307.914062h-23.667969c-4.742187 0-7.957031 4.820313-6.132812 9.199219l4.152343 9.972657c2.09375 5.03125 7.007813 8.308593 12.453126 8.308593h24.863281c5.011719 0 8.222656-5.34375 5.863281-9.769531l-5.625-10.5625c-2.34375-4.398438-6.921875-7.148438-11.90625-7.148438zm0 0"/><path d="m327.285156 267.035156-4.15625-9.972656c-2.09375-5.03125-7.003906-8.308594-12.453125-8.308594h-24.277343c-4.742188 0-7.957032 4.824219-6.136719 9.199219l4.15625 9.976563c2.09375 5.027343 7.003906 8.304687 12.453125 8.304687h24.28125c4.738281 0 7.953125-4.820313 6.132812-9.199219zm0 0"/></g><path d="m227.59375 328.882812h-114.957031c-11.863281 0-21.480469-9.617187-21.480469-21.480468 0-11.863282 9.617188-21.480469 21.480469-21.480469h114.957031c11.863281 0 21.480469 9.617187 21.480469 21.480469 0 11.863281-9.617188 21.480468-21.480469 21.480468zm0 0" fill="#898890"/><path d="m215.984375 328.882812h-91.738281v-79.640624c0-6.25 7.304687-9.644532 12.082031-5.621094l11.972656 10.089844 11.574219-10.757813c5.816406-5.402344 14.777344-5.527344 20.742188-.289063l12.574218 11.046876 10.5625-9.394532c4.738282-4.214844 12.230469-.851562 12.230469 5.488282zm0 0" fill="#ccf8ff"/><path d="m359.480469 179.226562h-87.953125c-12.398438 0-22.453125-10.050781-22.453125-22.449218v-11.730469c0-12.398437 10.054687-22.449219 22.453125-22.449219h87.953125c12.398437 0 22.449219 10.050782 22.449219 22.449219v11.730469c0 12.398437-10.050782 22.449218-22.449219 22.449218zm0 0" fill="#7ac1dd"/><path d="m449.851562 461.78125h-380.1875c-12.558593 0-22.738281-10.179688-22.738281-22.738281 0-12.558594 10.179688-22.738281 22.738281-22.738281h380.1875c12.558594 0 22.742188 10.179687 22.742188 22.738281 0 12.558593-10.179688 22.738281-22.742188 22.738281zm0 0" fill="#d8d7da"/><path d="m69.664062 416.304688c-12.558593 0-22.738281 10.179687-22.738281 22.738281 0 12.558593 10.179688 22.738281 22.738281 22.738281h61.890626v-45.476562zm0 0" fill="#c6c5ca"/><path d="m309.871094 61.179688h-107.742188c-14.082031 0-25.5-11.414063-25.5-25.5v-10.179688c0-14.082031 11.417969-25.5 25.5-25.5h107.742188c14.082031 0 25.5 11.417969 25.5 25.5v10.179688c0 14.085937-11.417969 25.5-25.5 25.5zm0 0" fill="#898890"/><path d="m230.671875 35.679688v-10.179688c0-14.082031 11.414063-25.5 25.5-25.5h-54.042969c-14.082031 0-25.5 11.417969-25.5 25.5v10.179688c0 14.085937 11.417969 25.5 25.5 25.5h54.042969c-14.085937 0-25.5-11.414063-25.5-25.5zm0 0" fill="#696970"/><path d="m124.246094 285.921875h91.742187v42.960937h-91.742187zm0 0" fill="#abebf4"/></svg>