<svg height="464pt" viewBox="-4 0 464 464" width="464pt" xmlns="http://www.w3.org/2000/svg"><path d="m24 0h224c13.253906 0 24 10.746094 24 24s-10.746094 24-24 24h-224c-13.253906 0-24-10.746094-24-24s10.746094-24 24-24zm0 0" fill="#195c85"/><path d="m216 104v-56h-160v56l-38.398438 51.199219c-6.234374 8.308593-9.601562 18.414062-9.601562 28.800781v232c0 26.507812 21.492188 48 48 48h160c26.507812 0 48-21.492188 48-48v-232c0-10.386719-3.367188-20.492188-9.601562-28.800781zm0 0" fill="#aabece"/><g fill="#7fcac9"><path d="m32 0h16v48h-16zm0 0"/><path d="m64 0h16v48h-16zm0 0"/><path d="m96 0h16v48h-16zm0 0"/><path d="m128 0h16v48h-16zm0 0"/><path d="m160 0h16v48h-16zm0 0"/><path d="m192 0h16v48h-16zm0 0"/><path d="m224 0h16v48h-16zm0 0"/></g><path d="m208 224c0-39.765625-32.234375-72-72-72s-72 32.234375-72 72h-56v144h256v-144zm0 0" fill="#195c85"/><path d="m40 256h192v80h-192zm0 0" fill="#f4f4e6"/><path d="m168 408h-160c-4.417969 0-8-3.582031-8-8s3.582031-8 8-8h160c4.417969 0 8 3.582031 8 8s-3.582031 8-8 8zm0 0" fill="#f4f4e6"/><path d="m264 408h-64c-4.417969 0-8-3.582031-8-8s3.582031-8 8-8h64c4.417969 0 8 3.582031 8 8s-3.582031 8-8 8zm0 0" fill="#f4f4e6"/><path d="m208 440h-16c-4.417969 0-8-3.582031-8-8s3.582031-8 8-8h16c4.417969 0 8 3.582031 8 8s-3.582031 8-8 8zm0 0" fill="#f4f4e6"/><path d="m152 88h-96c-4.417969 0-8-3.582031-8-8s3.582031-8 8-8h96c4.417969 0 8 3.582031 8 8s-3.582031 8-8 8zm0 0" fill="#f4f4e6"/><path d="m216 88h-32c-4.417969 0-8-3.582031-8-8s3.582031-8 8-8h32c4.417969 0 8 3.582031 8 8s-3.582031 8-8 8zm0 0" fill="#f4f4e6"/><path d="m456 368c0 53.019531-42.980469 96-96 96s-96-42.980469-96-96 42.980469-96 96-96 96 42.980469 96 96zm0 0" fill="#e97424"/><path d="m360 272c-53.019531 0-96 42.980469-96 96h192c0-53.019531-42.980469-96-96-96zm0 0" fill="#ffd782"/><path d="m368 440c-4.039062.003906-7.449219-3.007812-7.945312-7.015625-.496094-4.011719 2.074218-7.761719 5.992187-8.746094.28125-.070312 27.882813-7.300781 34.402344-26.765625 1.394531-4.199218 5.929687-6.46875 10.125-5.074218 4.199219 1.398437 6.46875 5.933593 5.074219 10.128906-9.28125 27.847656-44.160157 36.863281-45.648438 37.234375-.652344.164062-1.324219.246093-2 .238281zm0 0" fill="#ffd782"/></svg>