<svg height="512pt" viewBox="-9 0 512 512" width="512pt" xmlns="http://www.w3.org/2000/svg"><path d="m448.046875 396.171875c18.632813-6.050781 32.148437-23.574219 32.148437-44.203125 0-25.621094-20.84375-46.464844-46.460937-46.464844s-46.460937 20.84375-46.460937 46.464844c0 20.628906 13.515624 38.152344 32.152343 44.203125-26.894531 6.464844-46.949219 30.703125-46.949219 59.550781v41.277344c0 8.285156 6.71875 15 15 15h92.515626c8.285156 0 15-6.714844 15-15v-41.277344c0-28.847656-20.050782-53.085937-46.945313-59.550781zm0 0" fill="#008ed0"/><path d="m75.566406 396.171875c18.636719-6.050781 32.152344-23.574219 32.152344-44.203125 0-25.621094-20.84375-46.464844-46.460938-46.464844-25.617187 0-46.460937 20.84375-46.460937 46.464844 0 20.628906 13.515625 38.152344 32.148437 44.203125-26.894531 6.464844-46.945312 30.703125-46.945312 59.550781v41.277344c0 8.285156 6.714844 15 15 15h92.515625c8.285156 0 15-6.714844 15-15v-41.277344c0-28.847656-20.054687-53.085937-46.949219-59.550781zm0 0" fill="#00a1e2"/><path d="m433.734375 234.625h-171.238281v-7.535156c0-8.285156-6.71875-15-15-15-8.285156 0-15 6.714844-15 15v7.535156h-171.238282c-8.285156 0-15 6.714844-15 15v37.363281c0 8.285157 6.714844 15 15 15 8.28125 0 15-6.714843 15-15v-22.363281h156.238282v17.023438c0 8.285156 6.714844 15 15 15 8.28125 0 15-6.714844 15-15v-17.023438h156.238281v22.363281c0 8.285157 6.714844 15 15 15s15-6.714843 15-15v-37.363281c0-8.285156-6.714844-15-15-15zm0 0" fill="#ffd838"/><path d="m261.804688 90.671875c18.636718-6.050781 32.152343-23.574219 32.152343-44.203125-.003906-25.621094-20.84375-46.46875-46.460937-46.46875-25.617188 0-46.460938 20.847656-46.460938 46.46875 0 20.628906 13.515625 38.152344 32.148438 44.203125-26.894532 6.460937-46.945313 30.703125-46.945313 59.550781v41.277344c0 8.28125 6.714844 15 15 15h92.515625c8.28125 0 15-6.71875 15-15v-41.277344c0-28.847656-20.054687-53.089844-46.949218-59.550781zm0 0" fill="#008ed0"/><path d="m261.804688 396.171875c18.636718-6.050781 32.152343-23.574219 32.152343-44.203125 0-25.621094-20.84375-46.464844-46.460937-46.464844-25.617188 0-46.460938 20.84375-46.460938 46.464844 0 20.628906 13.515625 38.152344 32.148438 44.203125-26.894532 6.464844-46.945313 30.703125-46.945313 59.550781v41.277344c0 8.285156 6.714844 15 15 15h92.515625c8.285156 0 15-6.714844 15-15v-41.277344c0-28.847656-20.054687-53.085937-46.949218-59.550781zm0 0" fill="#008ed0"/><path d="m247.496094 212.089844c-8.285156 0-15 6.714844-15 15v7.535156h-171.238282c-8.285156 0-15 6.714844-15 15v37.363281c0 8.285157 6.714844 15 15 15 8.28125 0 15-6.714843 15-15v-22.363281h156.238282v17.023438c0 8.285156 6.714844 15 15 15zm0 0" fill="#ffef65"/><g fill="#00a1e2"><path d="m201.035156 46.46875c0 20.628906 13.515625 38.152344 32.148438 44.203125-26.894532 6.460937-46.945313 30.703125-46.945313 59.550781v41.277344c0 8.28125 6.714844 15 15 15h46.257813v-206.5c-25.617188 0-46.460938 20.847656-46.460938 46.46875zm0 0"/><path d="m201.035156 351.96875c0 20.628906 13.515625 38.152344 32.148438 44.203125-26.894532 6.464844-46.945313 30.703125-46.945313 59.550781v41.277344c0 8.285156 6.714844 15 15 15h46.257813v-206.496094c-25.617188 0-46.460938 20.84375-46.460938 46.464844zm0 0"/></g></svg>