<svg height="464pt" viewBox="0 0 464 464" width="464pt" xmlns="http://www.w3.org/2000/svg"><path d="m16 112h432c8.835938 0 16 7.164062 16 16v208c0 8.835938-7.164062 16-16 16h-432c-8.835938 0-16-7.164062-16-16v-208c0-8.835938 7.164062-16 16-16zm0 0" fill="#efefef"/><path d="m104 0h256c8.835938 0 16 7.164062 16 16v96h-288v-96c0-8.835938 7.164062-16 16-16zm0 0" fill="#ffd7a8"/><path d="m48 64h40v48h-56v-32c0-8.835938 7.164062-16 16-16zm0 0" fill="#a3a3a3"/><path d="m376 64h40c8.835938 0 16 7.164062 16 16v32h-56zm0 0" fill="#a3a3a3"/><path d="m400 152h16c4.417969 0 8 3.582031 8 8v16c0 4.417969-3.582031 8-8 8h-16c-4.417969 0-8-3.582031-8-8v-16c0-4.417969 3.582031-8 8-8zm0 0" fill="#73c97c"/><path d="m56 248h352c8.835938 0 16 7.164062 16 16v88h-384v-88c0-8.835938 7.164062-16 16-16zm0 0" fill="#a3a3a3"/><path d="m16 112h144v80c0 8.835938-7.164062 16-16 16h-144v-80c0-8.835938 7.164062-16 16-16zm0 0" fill="#d6d6d6"/><path d="m56 152c0 8.835938-7.164062 16-16 16s-16-7.164062-16-16 7.164062-16 16-16 16 7.164062 16 16zm0 0" fill="#ffd04a"/><path d="m88 248h288v200c0 8.835938-7.164062 16-16 16h-256c-8.835938 0-16-7.164062-16-16zm0 0" fill="#ffd7a8"/><path d="m136 320h8c8.835938 0 16 7.164062 16 16v8c0 8.835938-7.164062 16-16 16h-8c-8.835938 0-16-7.164062-16-16v-8c0-8.835938 7.164062-16 16-16zm0 0" fill="#ff675b"/><g fill="#b39676"><path d="m184 320h16v16h-16zm0 0"/><path d="m336 320h16v16h-16zm0 0"/><path d="m216 320h104v16h-104zm0 0"/><path d="m184 352h16v16h-16zm0 0"/><path d="m336 352h16v16h-16zm0 0"/><path d="m216 352h104v16h-104zm0 0"/><path d="m336 416h16v16h-16zm0 0"/><path d="m112 416h16v16h-16zm0 0"/><path d="m144 416h176v16h-176zm0 0"/><path d="m336 384h16v16h-16zm0 0"/><path d="m144 384h176v16h-176zm0 0"/><path d="m112 384h16v16h-16zm0 0"/></g></svg>