<svg height="512pt" viewBox="-86 0 512 512" width="512pt" xmlns="http://www.w3.org/2000/svg"><path d="m124.433594 512h90.257812v-263.277344l-1.636718-.632812c-3.832032-1.484375-6.359376-5.171875-6.359376-9.28125v-26.089844c-22.980468 15.855469-52.699218 14.289062-73.542968.972656v25.117188c0 4.109375-2.523438 7.796875-6.351563 9.28125l-2.367187.917968zm0 0" fill="#f0a479"/><path d="m163.941406 223.914062c-11.082031-.898437-21.765625-4.457031-30.785156-10.222656v25.121094c0 4.105469-2.523438 7.792969-6.355469 9.277344l-2.367187.917968v262.992188h39.507812zm0 0" fill="#e5966e"/><path d="m214.691406 273.046875-.335937.40625c-22.351563 26.902344-67.824219 26.707031-89.921875-.40625v238.953125h90.257812zm0 0" fill="#d665d3"/><path d="m163.941406 293.238281c-15.070312-1.34375-29.628906-8.070312-39.507812-20.191406v238.953125h39.507812zm0 0" fill="#c64ac6"/><path d="m126.492188 248.210938-90.511719 35.089843s-35.980469 14.789063-35.980469 55.804688v88.421875 72.484375c0 6.621093 5.367188 11.988281 11.988281 11.988281h114.503907zm0 0" fill="#d8dce5"/><path d="m30.898438 500.011719v-72.484375c0-33.453125 0-89.449219 0-109.035156 0-17.136719 6.28125-29.679688 13.59375-38.496094l-8.511719 3.304687s-35.980469 14.789063-35.980469 55.804688v88.421875 72.484375c0 6.621093 5.367188 11.988281 11.988281 11.988281h30.898438c-6.621094 0-11.988281-5.367188-11.988281-11.988281zm0 0" fill="#c3c8d1"/><path d="m303.976562 283.300781-90.921874-35.210937c-.148438-.058594-.277344-.140625-.421876-.203125v264.113281h115.332032c6.621094 0 11.988281-5.367188 11.988281-11.988281v-160.90625c0-41.015625-35.976563-55.804688-35.976563-55.804688zm0 0" fill="#d8dce5"/><path d="m250.011719 499.039062c-4.265625 0-7.722657-3.457031-7.722657-7.722656s3.457032-7.726562 7.722657-7.726562c3.636719 0 6.707031-2.425782 6.707031-5.292969v-57.058594c0-2.867187-3.070312-5.292969-6.707031-5.292969h-22.949219c-3.632812 0-6.707031 2.425782-6.707031 5.292969v57.058594c0 2.867187 3.074219 5.292969 6.707031 5.292969 4.265625 0 7.722656 3.460937 7.722656 7.726562s-3.457031 7.722656-7.722656 7.722656c-12.214844 0-22.15625-9.304687-22.15625-20.746093v-57.054688c0-11.4375 9.941406-20.746093 22.15625-20.746093h22.949219c12.214843 0 22.15625 9.308593 22.15625 20.746093v57.054688c0 11.441406-9.941407 20.746093-22.15625 20.746093zm0 0" fill="#707487"/><path d="m238.535156 415.941406c-4.265625 0-7.722656-3.457031-7.722656-7.722656v-51.058594c0-4.265625 3.457031-7.726562 7.722656-7.726562 4.269532 0 7.726563 3.460937 7.726563 7.726562v51.058594c0 4.265625-3.457031 7.722656-7.726563 7.722656zm0 0" fill="#00aaf0"/><path d="m101.417969 429.914062c-4.265625 0-7.726563-3.460937-7.726563-7.726562v-65.027344c0-4.265625 3.460938-7.726562 7.726563-7.726562s7.722656 3.460937 7.722656 7.726562v65.027344c0 4.265625-3.457031 7.726562-7.722656 7.726562zm0 0" fill="#00aaf0"/><path d="m298.84375 512v-147.117188c0-4.265624-3.457031-7.722656-7.722656-7.722656s-7.726563 3.457032-7.726563 7.722656v147.117188zm0 0" fill="#c3c8d1"/><path d="m56.558594 512v-147.117188c0-4.265624-3.457032-7.722656-7.722656-7.722656-4.269532 0-7.726563 3.457032-7.726563 7.722656v147.117188zm0 0" fill="#c3c8d1"/><path d="m253.46875 340.140625-14.03125-10.726563c-3.316406-2.535156-3.550781-7.183593-.5-9.996093l24.5625-22.625c2.382812-2.195313 2.835938-5.621094 1.097656-8.285157l-17.867187-27.375-33.675781-13.042968c-.148438-.058594-.28125-.140625-.421876-.203125v155l42.085938-53.5625c2.265625-2.882813 1.71875-6.914063-1.25-9.183594zm0 0" fill="#e4eaf8"/><path d="m74.53125 288.507812c-1.742188 2.664063-1.289062 6.089844 1.09375 8.285157l24.5625 22.625c3.050781 2.8125 2.820312 7.460937-.5 9.996093l-14.03125 10.726563c-2.96875 2.269531-3.515625 6.300781-1.25 9.183594l42.085938 53.5625v-154.675781l-34.359376 13.320312zm0 0" fill="#e4eaf8"/><path d="m101.417969 464.363281c-13.757813 0-24.949219-11.191406-24.949219-24.949219 0-13.757812 11.191406-24.949218 24.949219-24.949218 13.757812 0 24.949219 11.191406 24.949219 24.949218 0 13.757813-11.191407 24.949219-24.949219 24.949219zm0 0" fill="#707487"/><path d="m99.484375 439.414062c0-9.609374 5.460937-17.960937 13.441406-22.125-3.445312-1.800781-7.359375-2.824218-11.507812-2.824218-13.757813 0-24.949219 11.191406-24.949219 24.949218 0 13.757813 11.191406 24.949219 24.949219 24.949219 4.148437 0 8.0625-1.023437 11.507812-2.824219-7.980469-4.167968-13.441406-12.519531-13.441406-22.125zm0 0" fill="#52586d"/><path d="m101.417969 429.914062c-5.238281 0-9.503907 4.261719-9.503907 9.5 0 5.238282 4.265626 9.5 9.503907 9.5s9.5-4.261718 9.5-9.5c0-5.238281-4.261719-9.5-9.5-9.5zm0 0" fill="#434a5e"/><path d="m105.617188 116.054688v-4.183594c0-3.484375 2.980468-6.238282 6.429687-5.976563 34.023437 2.445313 66.589844-6.308593 92.769531-23.410156 2.445313-1.597656 5.679688-1.199219 7.667969.933594 22.382813 24.058593 20.1875 21.070312 20.1875 24.210937v4.929688.171875 3.246093c8.605469-.558593 18.792969 7.726563 24.472656 12.992188v-40.96875c0-48.601562-39.398437-88-88-88-48.601562 0-88 39.398438-88 88v36.523438c5.980469-5.457032 16.53125-8.730469 24.472657-8.46875zm0 0" fill="#707487"/><path d="m112.039062 88c0-43.328125 31.320313-79.316406 72.550782-86.621094-5.015625-.890625-10.171875-1.378906-15.445313-1.378906-48.605469 0-88 39.398438-88 88v36.527344c5.980469-5.460938 16.53125-8.734375 24.472657-8.472656v-4.183594c0-3.480469 2.976562-6.234375 6.421874-5.976563zm0 0" fill="#52586d"/><path d="m233.699219 116.019531v48.472657c0 .609374-.027344 1.21875-.042969 1.824218 16.0625 1.070313 30.425781-10.765625 30.425781-25.148437 0-14.40625-14.367187-26.183594-30.382812-25.148438zm0 0" fill="#f0a479"/><path d="m254.300781 122.335938c-5.53125-4.324219-12.871093-6.816407-20.601562-6.316407v48.472657c0 .609374-.027344 1.21875-.042969 1.824218 7.753906.515625 15.105469-1.980468 20.644531-6.3125zm0 0" fill="#e5966e"/><path d="m104.589844 161.355469v-48.390625c-14.292969-.472656-30.378906 10.492187-30.378906 25.070312 0 14.363282 14.335937 26.21875 30.421874 25.144532-.015624-.605469-.042968-1.210938-.042968-1.824219zm0 0" fill="#f0a479"/><path d="m104.589844 156.871094c-5.9375-4.644532-9.785156-11.402344-9.785156-18.835938 0-7.269531 4-13.636718 9.785156-18.136718v-6.933594c-14.292969-.46875-30.378906 10.496094-30.378906 25.070312 0 14.363282 14.335937 26.21875 30.421874 25.148438-.015624-.609375-.042968-1.214844-.042968-1.828125zm0 0" fill="#e5966e"/><path d="m212.484375 78.269531c-1.988281-2.132812-5.222656-2.53125-7.667969-.933593-26.179687 17.101562-60.804687 27.914062-94.828125 25.46875-3.453125-.257813-6.429687 2.492187-6.429687 5.980468v52.570313c0 33.789062 26.476562 64.648437 66.519531 64.648437 35.648437 0 64.652344-29 64.652344-64.648437v-56.816407c0-3.140624.136719-2.210937-22.246094-26.269531zm0 0" fill="#f7b594"/><path d="m134.457031 161.355469v-58.992188c-8.109375.84375-16.304687 1.027344-24.46875.441407-3.453125-.261719-6.429687 2.492187-6.429687 5.976562v52.574219c0 33.789062 26.476562 64.648437 66.519531 64.648437 5.140625 0 10.128906-.621094 14.925781-1.757812-30.957031-6.960938-50.546875-33.832032-50.546875-62.890625zm0 0" fill="#f0a479"/></svg>