<svg height="511pt" viewBox="-16 0 511 511.99951" width="511pt" xmlns="http://www.w3.org/2000/svg"><path d="m193.625 362.859375v25.777344c0 5.195312 4.207031 9.402343 9.398438 9.402343h82.214843v-35.179687zm0 0" fill="#e4eaf8"/><path d="m224.070312 388.640625v-25.78125h-30.449218v25.78125c0 5.191406 4.210937 9.398437 9.402344 9.398437h30.449218c-5.191406 0-9.402344-4.207031-9.402344-9.398437zm0 0" fill="#d8dce5"/><path d="m283.207031 362.859375v35.179687l34.535157 45.625h20.839843v-80.804687zm0 0" fill="#c3c8d1"/><path d="m313.652344 362.859375h-30.445313v35.179687l30.445313 40.222657zm0 0" fill="#b3bac6"/><path d="m373.421875 239.496094v40.777344h45.886719v-40.777344c0-27.679688-12.402344-53.464844-34.03125-70.742188l-27.082032-21.628906-15.984374 45.152344c-.074219.210937-.160157.410156-.25.613281l14.675781 11.722656c10.667969 8.519531 16.785156 21.230469 16.785156 34.882813zm0 0" fill="#707487"/><path d="m380.660156 199.90625-31.921875-26.058594-6.523437 18.429688c-.078125.210937-.164063.410156-.253906.613281l14.679687 11.722656c10.664063 8.519531 16.78125 21.230469 16.78125 34.882813v40.777344h24.019531v-40.777344c0-13.652344-6.117187-31.074219-16.78125-39.589844zm0 0" fill="#52586d"/><path d="m356.078125 128.355469-19.96875-7.070313-25.003906 70.636719 19.96875 7.070313c4.640625 1.640624 9.734375-.789063 11.378906-5.429688l19.054687-53.832031c1.640626-4.636719-.789062-9.730469-5.429687-11.375zm0 0" fill="#52586d"/><path d="m338.785156 174.695312-19.179687-6.789062-8.5 24.015625 19.96875 7.070313c4.640625 1.640624 9.734375-.789063 11.378906-5.429688l7.765625-21.9375c-2.730469 3.195312-7.234375 4.558594-11.433594 3.070312zm0 0" fill="#434a5e"/><path d="m266.40625 222.214844c-9.636719 27.597656-25.867188 49.039062-49.433594 65.464844l-2.726562 7.507812c-1.613282 4.550781.769531 9.542969 5.320312 11.15625l26.78125 9.480469c4.550782 1.609375 9.546875-.773438 11.15625-5.320313l28.746094-81.207031zm0 0" fill="#52586d"/><path d="m266.402344 285.359375 19.847656-56.0625-19.84375-7.082031c-9.636719 27.597656-25.867188 49.039062-49.4375 65.464844l-2.726562 7.507812c-1.609376 4.550781.773437 9.542969 5.320312 11.15625l17.769531 6.289062c10.734375-7.917968 20.496094-17.078124 29.070313-27.273437zm0 0" fill="#434a5e"/><path d="m269.046875 304.421875c-.84375 0-1.703125-.140625-2.542969-.4375l-51.566406-18.253906c-3.960938-1.40625-6.039062-5.753907-4.632812-9.71875 1.402343-3.960938 5.75-6.039063 9.714843-4.632813l51.566407 18.253906c3.964843 1.402344 6.039062 5.75 4.636718 9.714844-1.105468 3.125-4.042968 5.074219-7.175781 5.074219zm0 0" fill="#707487"/><path d="m305.757812 51.023438 14.4375-40.78125 39.609376 14.023437-14.433594 40.777344zm0 0" fill="#52586d"/><path d="m305.753906 51.019531 14.4375-40.78125 21.964844 7.777344-14.433594 40.78125zm0 0" fill="#434a5e"/><path d="m364.761719 33.945312-54.109375-19.15625c-3.964844-1.402343-6.039063-5.753906-4.636719-9.714843 1.402344-3.964844 5.753906-6.039063 9.714844-4.636719l54.113281 19.15625c3.960938 1.402344 6.035156 5.753906 4.632812 9.714844-1.402343 3.964844-5.753906 6.039062-9.714843 4.636718zm0 0" fill="#707487"/><path d="m337.242188 16.515625c1.125-3.179687 3.785156-5.363281 6.851562-6.035156l-28.363281-10.042969c-3.960938-1.402344-8.3125.671875-9.714844 4.636719-1.402344 3.960937.671875 8.3125 4.636719 9.714843l27.390625 9.699219c-1.390625-2.324219-1.773438-5.222656-.800781-7.972656zm0 0" fill="#52586d"/><path d="m293.851562 370.46875h-110.871093c-4.207031 0-7.613281-3.40625-7.613281-7.609375 0-4.207031 3.40625-7.613281 7.613281-7.613281h110.871093c4.203126 0 7.609376 3.40625 7.609376 7.613281 0 4.203125-3.40625 7.609375-7.609376 7.609375zm0 0" fill="#00c3ff"/><path d="m200.089844 474.789062v18.902344c0 10.113282 8.195312 18.308594 18.308594 18.308594h214.773437c10.109375 0 18.304687-8.195312 18.304687-18.308594v-18.902344zm0 0" fill="#707487"/><path d="m230.539062 493.691406v-18.90625h-30.449218v18.90625c0 10.109375 8.195312 18.308594 18.308594 18.308594h30.445312c-10.109375 0-18.304688-8.195312-18.304688-18.308594zm0 0" fill="#52586d"/><path d="m454.875 443.664062v-152.667968c0-7.570313-6.195312-13.765625-13.765625-13.765625h-90.789063c-7.574218 0-13.769531 6.195312-13.769531 13.765625v152.667968zm0 0" fill="#e4eaf8"/><path d="m380.765625 277.230469h-30.445313c-7.574218 0-13.769531 6.195312-13.769531 13.765625v152.667968h30.449219v-152.667968c0-7.570313 6.195312-13.765625 13.765625-13.765625zm0 0" fill="#d8dce5"/><path d="m346.734375 64.867188-47.308594-16.75c-4.855469-1.71875-10.183593.824218-11.902343 5.679687l-24.859376 70.351563c7.492188 16.953124 10.335938 33.589843 10.335938 53.285156 0 15.824218-3.054688 31.722656-8 45.878906l22.914062 7.394531c4.851563 1.71875 10.179688-.824219 11.898438-5.679687l52.601562-148.261719c1.71875-4.851563-.824218-10.179687-5.679687-11.898437zm0 0" fill="#00c3ff"/><path d="m277.003906 83.570312-14.339844 40.578126c7.492188 16.953124 10.335938 33.589843 10.335938 53.285156 0 15.824218-3.054688 31.71875-8 45.878906l22.914062 7.394531c3.660157 1.296875 7.589844.164063 10.039063-2.550781 5.082031-16.003906 7.832031-33.03125 7.832031-50.695312-.003906-34.753907-10.621094-67.074219-28.78125-93.890626zm0 0" fill="#00aaf0"/><path d="m471.011719 441.632812h-290.457031c-5.027344 0-9.101563 4.078126-9.101563 9.105469v16.976563c0 5.027344 4.074219 9.101562 9.101563 9.101562h290.457031c5.027343 0 9.101562-4.074218 9.101562-9.101562v-16.976563c0-5.027343-4.074219-9.105469-9.101562-9.105469zm0 0" fill="#52586d"/><path d="m471.011719 455.855469h-290.457031c-4.339844 0-7.964844-3.042969-8.875-7.109375-.144532.640625-.226563 1.304687-.226563 1.992187v16.976563c0 5.027344 4.074219 9.101562 9.101563 9.101562h290.457031c5.027343 0 9.101562-4.074218 9.101562-9.101562v-16.976563c0-.6875-.082031-1.351562-.226562-1.992187-.90625 4.066406-4.53125 7.109375-8.875 7.109375zm0 0" fill="#434a5e"/><path d="m137.917969 314.878906c-75.773438 0-137.417969-61.644531-137.417969-137.417968 0-75.773438 61.644531-137.417969 137.417969-137.417969 75.769531 0 137.417969 61.644531 137.417969 137.417969 0 75.773437-61.644532 137.417968-137.417969 137.417968zm0 0" fill="#e4eaf8"/><path d="m28.242188 177.460938c0-71.089844 54.261718-129.746094 123.546874-136.722657-4.5625-.457031-9.191406-.695312-13.871093-.695312-75.773438 0-137.417969 61.644531-137.417969 137.417969 0 75.773437 61.644531 137.417968 137.417969 137.417968 4.679687 0 9.308593-.238281 13.871093-.699218-69.285156-6.972657-123.546874-65.625-123.546874-136.71875zm0 0" fill="#d8dce5"/><path d="m137.917969 63.941406c-62.597657 0-113.523438 50.925782-113.523438 113.519532s50.925781 113.523437 113.523438 113.523437c62.59375 0 113.519531-50.925781 113.519531-113.523437 0-62.59375-50.925781-113.519532-113.519531-113.519532zm0 0" fill="#f77c7c"/><path d="m52.332031 177.460938c0-57.867188 43.523438-105.753907 99.550781-112.660157-4.578124-.566406-9.238281-.859375-13.964843-.859375-62.597657 0-113.523438 50.925782-113.523438 113.519532s50.925781 113.519531 113.523438 113.519531c4.726562 0 9.386719-.292969 13.964843-.859375-56.027343-6.902344-99.550781-54.792969-99.550781-112.660156zm0 0" fill="#f25c5c"/><path d="m161.71875 232.449219c0 13.992187-11.339844 25.332031-25.328125 25.332031-13.992187 0-25.332031-11.339844-25.332031-25.332031 0-13.988281 11.339844-25.328125 25.332031-25.328125 13.988281 0 25.328125 11.339844 25.328125 25.328125zm0 0" fill="#f25c5c"/><path d="m138.992188 232.449219c0-8.824219 4.519531-16.59375 11.363281-21.128907-4.003907-2.652343-8.804688-4.199218-13.964844-4.199218-13.992187 0-25.332031 11.339844-25.332031 25.328125 0 13.992187 11.339844 25.332031 25.332031 25.332031 5.160156 0 9.960937-1.546875 13.964844-4.203125-6.84375-4.53125-11.363281-12.300781-11.363281-21.128906zm0 0" fill="#e54a4a"/><path d="m190.398438 179.398438c0 7.921874-6.421876 14.339843-14.339844 14.339843-7.917969 0-14.339844-6.417969-14.339844-14.339843 0-7.917969 6.421875-14.335938 14.339844-14.335938 7.917968 0 14.339844 6.417969 14.339844 14.335938zm0 0" fill="#f25c5c"/><path d="m184.222656 179.398438c0-3.351563 1.160156-6.425782 3.085938-8.867188-2.625-3.328125-6.683594-5.46875-11.25-5.46875-7.921875 0-14.339844 6.417969-14.339844 14.339844 0 7.917968 6.417969 14.335937 14.339844 14.335937 4.566406 0 8.625-2.140625 11.25-5.46875-1.925782-2.441406-3.085938-5.519531-3.085938-8.871093zm0 0" fill="#e54a4a"/><path d="m146.925781 149.515625c0 15.960937-12.941406 28.902344-28.902343 28.902344-15.960938 0-28.902344-12.941407-28.902344-28.902344s12.941406-28.902344 28.902344-28.902344c15.960937 0 28.902343 12.941407 28.902343 28.902344zm0 0" fill="#f25c5c"/><path d="m117.054688 149.515625c0-10.894531 6.03125-20.378906 14.933593-25.304687-4.136719-2.289063-8.898437-3.597657-13.964843-3.597657-15.964844 0-28.902344 12.941407-28.902344 28.902344s12.941406 28.902344 28.902344 28.902344c5.066406 0 9.828124-1.308594 13.964843-3.597657-8.902343-4.925781-14.933593-14.410156-14.933593-25.304687zm0 0" fill="#e54a4a"/><path d="m88.164062 204.96875c0 6.730469-5.453124 12.1875-12.183593 12.1875-6.734375 0-12.1875-5.457031-12.1875-12.1875s5.453125-12.1875 12.1875-12.1875c6.730469 0 12.183593 5.457031 12.183593 12.1875zm0 0" fill="#f25c5c"/><path d="m203.347656 124.199219c0 9.105469-7.382812 16.488281-16.488281 16.488281s-16.488281-7.382812-16.488281-16.488281c0-9.109375 7.382812-16.488281 16.488281-16.488281s16.488281 7.378906 16.488281 16.488281zm0 0" fill="#f25c5c"/><g fill="#e54a4a"><path d="m198.304688 124.199219c0-3.214844.933593-6.199219 2.523437-8.734375-2.917969-4.652344-8.074219-7.757813-13.96875-7.757813-9.105469 0-16.488281 7.382813-16.488281 16.488281 0 9.109376 7.382812 16.488282 16.488281 16.488282 5.894531 0 11.050781-3.101563 13.96875-7.753906-1.589844-2.53125-2.523437-5.519532-2.523437-8.730469zm0 0"/><path d="m184.855469 226.921875c-2.726563-2.726563-2.726563-7.148437 0-9.875l4.90625-4.90625c2.726562-2.726563 7.148437-2.726563 9.875.003906 2.726562 2.726563 2.726562 7.148438 0 9.875l-4.902344 4.90625c-2.730469 2.722657-7.152344 2.726563-9.878906-.003906zm0 0"/></g></svg>