<?xml version="1.0" encoding="iso-8859-1"?>
<!-- Generator: Adobe Illustrator 19.0.0, SVG Export Plug-In . SVG Version: 6.00 Build 0)  -->
<svg version="1.1" id="Capa_1" xmlns="http://www.w3.org/2000/svg" xmlns:xlink="http://www.w3.org/1999/xlink" x="0px" y="0px"
	 viewBox="0 0 466 466" style="enable-background:new 0 0 466 466;" xml:space="preserve">
<g>
	<path style="fill:#B7D6CA;" d="M180.02,133.5l-6.708-56.351c-3.215-27.009-27.865-49.146-55.012-49.627L130.916,133.5H180.02z"/>
	<path style="fill:#B7D6CA;" d="M135.678,173.5l2.146,18.023c17.815,0.234,34.803,3.89,50.336,10.347l-3.377-28.37H135.678z"/>
	<path style="fill:#B7D6CA;" d="M466,402.5h-48.525c1.628,4.705,2.525,9.749,2.525,15s-0.897,10.295-2.525,15H466V402.5z"/>
	<path style="fill:#96B5A5;" d="M261.285,274.5c6.899,16.288,10.715,34.198,10.715,53h87v-53H261.285z"/>
	<path style="fill:#B7D6CA;" d="M261.285,274.5H359v-53H221.197C238.582,235.491,252.459,253.664,261.285,274.5z"/>
	<path style="fill:#801B06;" d="M389,374.025V213.5c0-41.355-33.645-75-75-75h-30v30h30c24.813,0,45,20.187,45,45v160.525
		c4.705-1.628,9.748-2.525,15-2.525S384.295,372.396,389,374.025z"/>
	<polygon style="fill:#96B5A5;" points="135.678,173.5 284,173.5 284,133.5 130.916,133.5 	"/>
	<path style="fill:#801B06;" d="M136,191.5c0.61,0,1.215,0.015,1.823,0.023l-2.146-18.023l-4.762-40L118.299,27.523L115.32,2.5H48
		v30h40.68l19.274,161.902C117.005,192.504,126.385,191.5,136,191.5z"/>
	<path style="fill:#D5310E;" d="M221.197,221.5c-9.957-8.013-21.064-14.653-33.038-19.63c-15.533-6.457-32.521-10.113-50.336-10.347
		c-0.608-0.008-1.214-0.023-1.823-0.023v30c58.45,0,106,47.55,106,106s-47.55,106-106,106v30c75.11,0,136-60.89,136-136
		c0-18.802-3.816-36.712-10.715-53C252.459,253.664,238.582,235.491,221.197,221.5z"/>
	<path style="fill:#C7FFE9;" d="M136,281.5c25.36,0,46,20.64,46,46s-20.64,46-46,46v60c58.45,0,106-47.55,106-106
		s-47.55-106-106-106V281.5z"/>
	<path style="fill:#D5310E;" d="M182,327.5c0-25.36-20.64-46-46-46v92C161.36,373.5,182,352.86,182,327.5z"/>
	<path style="fill:#F46A1A;" d="M30,327.5c0-58.45,47.55-106,106-106v-30c-9.615,0-18.995,1.004-28.046,2.902
		C46.301,207.329,0,262.005,0,327.5c0,75.11,60.89,136,136,136v-30C77.55,433.5,30,385.95,30,327.5z"/>
	<path style="fill:#FFFFFF;" d="M30,327.5c0,58.45,47.55,106,106,106v-60c-25.36,0-46-20.64-46-46s20.64-46,46-46v-60
		C77.55,221.5,30,269.05,30,327.5z"/>
	<path style="fill:#F46A1A;" d="M136,281.5c-25.36,0-46,20.64-46,46s20.64,46,46,46V281.5z"/>
	<path style="fill:#F46A1A;" d="M374,371.5c-5.252,0-10.295,0.896-15,2.525c-18.019,6.235-31,23.363-31,43.475
		c0,25.364,20.636,46,46,46V371.5z"/>
	<path style="fill:#D5310E;" d="M417.475,402.5c-4.607-13.314-15.161-23.868-28.475-28.475c-4.705-1.628-9.748-2.525-15-2.525v92
		c20.113,0,37.24-12.981,43.475-31c1.628-4.705,2.525-9.749,2.525-15S419.103,407.205,417.475,402.5z"/>
</g>
<g>
</g>
<g>
</g>
<g>
</g>
<g>
</g>
<g>
</g>
<g>
</g>
<g>
</g>
<g>
</g>
<g>
</g>
<g>
</g>
<g>
</g>
<g>
</g>
<g>
</g>
<g>
</g>
<g>
</g>
</svg>
