<?xml version="1.0" encoding="iso-8859-1"?>
<!-- Generator: Adobe Illustrator 19.0.0, SVG Export Plug-In . SVG Version: 6.00 Build 0)  -->
<svg version="1.1" id="Capa_1" xmlns="http://www.w3.org/2000/svg" xmlns:xlink="http://www.w3.org/1999/xlink" x="0px" y="0px"
	 viewBox="0 0 460 460" style="enable-background:new 0 0 460 460;" xml:space="preserve">
<g>
	<path style="fill:#FFEDAD;" d="M230,310h200V160H230V310z M285,220h30v-30h30v30h30v30h-30v30h-30v-30h-30V220z"/>
	<rect x="30" y="70" style="fill:#FFF6D6;" width="60" height="60"/>
	<rect x="230" y="340" style="fill:#FFEDAD;" width="150" height="50"/>
	<polygon style="fill:#FFF6D6;" points="230,280 60,280 60,250 230,250 230,220 60,220 60,190 230,190 230,160 30,160 30,310 
		230,310 	"/>
	<rect x="230" y="70" style="fill:#FFEDAD;" width="200" height="60"/>
	<rect x="30" y="340" style="fill:#FFF6D6;" width="200" height="50"/>
	<rect y="70" style="fill:#FFB76E;" width="30" height="320"/>
	<rect x="430" y="70" style="fill:#F46A1A;" width="30" height="240"/>
	<rect x="230" y="310" style="fill:#D5310E;" width="150" height="30"/>
	<rect x="30" y="310" style="fill:#F46A1A;" width="200" height="30"/>
	<rect x="230" y="130" style="fill:#D5310E;" width="200" height="30"/>
	<polygon style="fill:#F46A1A;" points="30,130 30,160 230,160 230,70 90,70 90,130 	"/>
	<rect x="60" y="250" style="fill:#D5310E;" width="170" height="30"/>
	<rect x="60" y="190" style="fill:#D5310E;" width="170" height="30"/>
	<polygon style="fill:#FFD23D;" points="380,310 380,390 460,310 	"/>
	<polygon style="fill:#F46A1A;" points="315,280 345,280 345,250 375,250 375,220 345,220 345,190 315,190 315,220 285,220 285,250 
		315,250 	"/>
</g>
<g>
</g>
<g>
</g>
<g>
</g>
<g>
</g>
<g>
</g>
<g>
</g>
<g>
</g>
<g>
</g>
<g>
</g>
<g>
</g>
<g>
</g>
<g>
</g>
<g>
</g>
<g>
</g>
<g>
</g>
</svg>
