<?xml version="1.0" encoding="iso-8859-1"?>
<!-- Generator: Adobe Illustrator 19.0.0, SVG Export Plug-In . SVG Version: 6.00 Build 0)  -->
<svg version="1.1" id="Layer_1" xmlns="http://www.w3.org/2000/svg" xmlns:xlink="http://www.w3.org/1999/xlink" x="0px" y="0px"
	 viewBox="0 0 512 512" style="enable-background:new 0 0 512 512;" xml:space="preserve">
<g>
	<path style="fill:#2D527C;" d="M398.939,511.999H113.065c-20.87,0-39.764-10.669-50.543-28.538s-11.402-39.558-1.667-58.018
		l121.094-229.647c0.116-0.221,0.238-0.437,0.366-0.652c3.403-5.721,6.621-17.428,6.621-24.088V73.157
		c0-8.021,6.503-14.523,14.523-14.523c8.02,0,14.523,6.502,14.523,14.523v97.896c0,11.806-4.498,28.303-10.499,38.588
		L86.548,438.991c-4.944,9.376-4.629,20.392,0.847,29.467c5.475,9.077,15.071,14.494,25.671,14.494h285.873
		c10.58,0,20.168-5.404,25.646-14.455s5.821-20.051,0.915-29.425L305.427,209.631c-5.956-10.295-10.42-26.788-10.42-38.578V73.157
		c0-8.021,6.503-14.523,14.523-14.523s14.523,6.502,14.523,14.523v97.896c0,6.675,3.205,18.421,6.595,24.169
		c0.125,0.212,0.244,0.426,0.359,0.643l120.228,229.739c9.658,18.456,8.985,40.114-1.801,57.934
		C438.648,501.359,419.771,511.999,398.939,511.999z"/>
	<path style="fill:#2D527C;" d="M340.171,29.046H171.496c-8.02,0-14.523-6.502-14.523-14.523S163.477,0,171.496,0h168.676
		c8.02,0,14.523,6.502,14.523,14.523S348.192,29.046,340.171,29.046z"/>
</g>
<path style="fill:#CEE8FA;" d="M438.369,432.338L364.277,290.76H148.291l-74.59,141.456c-15.627,29.636,5.862,65.26,39.365,65.26
	h285.873C432.383,497.475,453.876,461.969,438.369,432.338z M299.043,402.208c-14.064,0-25.465-11.401-25.465-25.465
	s11.401-25.466,25.465-25.466c14.066,0,25.466,11.402,25.466,25.466S313.109,402.208,299.043,402.208z"/>
<g>
	<path style="fill:#2D527C;" d="M398.939,512H113.065c-20.868,0-39.763-10.669-50.542-28.538
		c-10.781-17.869-11.405-39.56-1.67-58.02l74.591-141.455c2.513-4.766,7.459-7.748,12.847-7.748h215.985
		c5.406,0,10.362,3,12.867,7.789l74.093,141.577c9.658,18.456,8.986,40.114-1.801,57.934C438.648,501.36,419.771,512,398.939,512z
		 M157.052,305.284L86.546,438.991c-4.944,9.376-4.627,20.392,0.848,29.469s15.072,14.494,25.671,14.494h285.873
		c10.58,0,20.168-5.404,25.646-14.455s5.822-20.052,0.915-29.425l-70.016-133.789H157.052V305.284z M299.043,416.731
		c-22.05,0-39.988-17.939-39.988-39.988s17.939-39.989,39.988-39.989s39.989,17.939,39.989,39.989
		C339.032,398.794,321.092,416.731,299.043,416.731z M299.043,365.8c-6.033,0-10.942,4.909-10.942,10.943
		c0,6.033,4.909,10.942,10.942,10.942c6.034,0,10.943-4.909,10.943-10.942C309.986,370.709,305.077,365.8,299.043,365.8z"/>
	<circle style="fill:#2D527C;" cx="359.721" cy="430.01" r="10.942"/>
	<path style="fill:#2D527C;" d="M359.722,455.486c-14.041,0-25.465-11.424-25.465-25.465c0-14.041,11.424-25.466,25.465-25.466
		c14.042,0,25.466,11.424,25.466,25.466C385.188,444.064,373.764,455.486,359.722,455.486z M359.722,426.44
		c-1.974,0-3.58,1.606-3.58,3.581c0,1.974,1.605,3.58,3.58,3.58c1.975,0,3.581-1.606,3.581-3.58
		C363.303,428.046,361.696,426.44,359.722,426.44z"/>
</g>
<g>
</g>
<g>
</g>
<g>
</g>
<g>
</g>
<g>
</g>
<g>
</g>
<g>
</g>
<g>
</g>
<g>
</g>
<g>
</g>
<g>
</g>
<g>
</g>
<g>
</g>
<g>
</g>
<g>
</g>
</svg>
