<?xml version="1.0" encoding="iso-8859-1"?>
<!-- Generator: Adobe Illustrator 19.0.0, SVG Export Plug-In . SVG Version: 6.00 Build 0)  -->
<svg version="1.1" id="Layer_1" xmlns="http://www.w3.org/2000/svg" xmlns:xlink="http://www.w3.org/1999/xlink" x="0px" y="0px"
	 viewBox="0 0 512.001 512.001" style="enable-background:new 0 0 512.001 512.001;" xml:space="preserve">
<rect x="252.931" y="161.434" transform="matrix(0.7071 0.7071 -0.7071 0.7071 223.445 -184.6589)" style="fill:#61A2EF;" width="163.388" height="31.918"/>
<rect x="347.538" y="165.407" transform="matrix(-0.7071 0.7071 -0.7071 -0.7071 766.373 95.0715)" style="fill:#528ACF;" width="31.918" height="81.699"/>
<rect x="216.059" y="198.304" transform="matrix(0.7071 0.7071 -0.7071 0.7071 238.7162 -147.7871)" style="fill:#9ED04D;" width="163.388" height="31.918"/>
<rect x="310.668" y="202.279" transform="matrix(-0.7071 0.7071 -0.7071 -0.7071 729.5042 184.0862)" style="fill:#86B143;" width="31.918" height="81.699"/>
<rect x="341.425" y="72.933" transform="matrix(0.7071 0.7071 -0.7071 0.7071 186.7848 -273.1549)" style="fill:#F9D026;" width="163.388" height="31.918"/>
<rect x="411.146" y="101.798" transform="matrix(0.7071 0.7071 -0.7071 0.7071 215.653 -285.1187)" style="fill:#E7C224;" width="81.699" height="31.918"/>
<rect x="129.176" y="285.187" transform="matrix(0.7071 0.7071 -0.7071 0.7071 274.7043 -60.904)" style="fill:#F9D026;" width="163.388" height="31.918"/>
<rect x="223.785" y="289.176" transform="matrix(-0.7071 0.7071 -0.7071 -0.7071 642.6311 393.864)" style="fill:#E7C224;" width="31.918" height="81.699"/>
<rect x="92.31" y="322.054" transform="matrix(0.7071 0.7071 -0.7071 0.7071 289.9756 -24.038)" style="fill:#61A2EF;" width="163.388" height="31.918"/>
<rect x="186.918" y="326.036" transform="matrix(-0.7071 0.7071 -0.7071 -0.7071 605.7592 482.8575)" style="fill:#528ACF;" width="31.918" height="81.699"/>
<rect x="7.186" y="407.167" transform="matrix(0.7071 0.7071 -0.7071 0.7071 325.2277 61.0828)" style="fill:#9ED04D;" width="163.388" height="31.918"/>
<rect x="101.819" y="411.156" transform="matrix(-0.7071 0.7071 -0.7071 -0.7071 520.6752 688.3397)" style="fill:#86B143;" width="31.918" height="81.699"/>
<g>
	<path style="fill:#444242;" d="M22.57,393.668L0,371.098c37.76-37.76,90.523-21.22,137.076-6.628
		c22.241,6.972,43.248,13.557,62.126,14.857c18.915,1.302,32.126-2.891,42.831-13.597s14.899-23.916,13.597-42.831
		c-1.3-18.878-7.886-39.885-14.857-62.126c-14.593-46.553-31.133-99.316,6.627-137.075s90.523-21.22,137.075-6.626
		c22.241,6.972,43.247,13.558,62.125,14.858c18.915,1.302,32.125-2.891,42.831-13.597l22.57,22.57
		c-37.76,37.76-90.523,21.22-137.075,6.626c-22.241-6.972-43.247-13.558-62.125-14.858c-18.915-1.302-32.125,2.891-42.831,13.597
		s-14.899,23.916-13.597,42.831c1.3,18.878,7.886,39.885,14.857,62.126c14.593,46.553,31.133,99.316-6.627,137.075
		c-37.76,37.76-90.523,21.22-137.076,6.628c-22.241-6.972-43.248-13.557-62.126-14.857C46.486,378.768,33.277,382.961,22.57,393.668
		z"/>
	<path style="fill:#444242;" d="M140.904,512l-22.57-22.57c10.706-10.706,14.9-23.916,13.597-42.831
		c-1.3-18.877-7.886-39.885-14.857-62.126c-14.593-46.553-31.133-99.316,6.628-137.076c37.76-37.76,90.523-21.22,137.075-6.627
		c22.241,6.972,43.247,13.558,62.126,14.857c18.915,1.302,32.125-2.891,42.831-13.597s14.899-23.916,13.597-42.831
		c-1.3-18.877-7.886-39.885-14.858-62.125C349.877,90.523,333.338,37.76,371.096,0l22.57,22.57
		c-10.706,10.706-14.899,23.916-13.597,42.831c1.3,18.877,7.886,39.885,14.858,62.125c14.593,46.552,31.133,99.315-6.626,137.075
		s-90.523,21.22-137.075,6.627c-22.241-6.972-43.247-13.558-62.126-14.857c-18.915-1.302-32.125,2.891-42.831,13.597
		s-14.9,23.916-13.597,42.831c1.3,18.877,7.886,39.885,14.857,62.126C162.124,421.477,178.664,474.24,140.904,512z"/>
	<path style="fill:#444242;" d="M147.531,374.924c-0.838-2.674-1.671-5.329-2.489-7.966l-25.481,25.481
		c5.989,19.295,11.225,37.552,12.368,54.16c1.302,18.915-2.891,32.126-13.597,42.831L140.904,512
		C178.664,474.24,162.124,421.477,147.531,374.924z"/>
</g>
<g>
	<path style="fill:#3A3839;" d="M251.227,271.228c46.553,14.593,99.316,31.133,137.075-6.627s21.22-90.523,6.626-137.075
		c-0.838-2.674-1.671-5.329-2.489-7.966l-25.48,25.481c5.989,19.294,11.225,37.551,12.369,54.158
		c1.302,18.915-2.891,32.125-13.597,42.831c-10.706,10.706-23.916,14.899-42.831,13.597c-16.609-1.143-34.866-6.379-54.16-12.368
		l-25.48,25.481C245.898,269.557,248.554,270.389,251.227,271.228z"/>
	<path style="fill:#3A3839;" d="M374.925,147.529c46.552,14.593,99.315,31.133,137.075-6.626l-22.57-22.57
		c-10.706,10.706-23.916,14.899-42.831,13.597c-16.608-1.144-34.865-6.38-54.158-12.369l-25.481,25.48
		C369.596,145.859,372.252,146.691,374.925,147.529z"/>
	<path style="fill:#3A3839;" d="M271.231,251.224c-0.838-2.674-1.671-5.329-2.489-7.966l-25.481,25.481
		c5.989,19.293,11.225,37.551,12.368,54.16c1.302,18.915-2.891,32.125-13.597,42.831s-23.916,14.9-42.831,13.597
		c-16.608-1.144-34.865-6.379-54.16-12.368L119.56,392.44c2.637,0.818,5.293,1.651,7.966,2.489
		c46.553,14.593,99.316,31.133,137.076-6.628C302.364,350.54,285.824,297.777,271.231,251.224z"/>
</g>
<g>
</g>
<g>
</g>
<g>
</g>
<g>
</g>
<g>
</g>
<g>
</g>
<g>
</g>
<g>
</g>
<g>
</g>
<g>
</g>
<g>
</g>
<g>
</g>
<g>
</g>
<g>
</g>
<g>
</g>
</svg>
