<?xml version="1.0" encoding="iso-8859-1"?>
<!-- Generator: Adobe Illustrator 19.0.0, SVG Export Plug-In . SVG Version: 6.00 Build 0)  -->
<svg version="1.1" id="Layer_1" xmlns="http://www.w3.org/2000/svg" xmlns:xlink="http://www.w3.org/1999/xlink" x="0px" y="0px"
	 viewBox="0 0 512.015 512.015" style="enable-background:new 0 0 512.015 512.015;" xml:space="preserve">
<path style="fill:#FFE7E5;" d="M102.409,140.8c-35.294,0-64-28.706-64-63.991c0-35.294,28.706-64,64-64s64,28.706,64,64
	C166.409,112.094,137.703,140.8,102.409,140.8z"/>
<rect x="217.609" y="140.8" style="fill:#E9EBEF;" width="281.6" height="230.391"/>
<polygon style="fill:#FF877F;" points="64.982,499.183 53.786,358.391 10.275,358.391 40.526,192 156.639,192 268.809,248.09 
	268.809,297.984 164.72,271.966 139.47,499.183 "/>
<g>
	<path style="fill:#573A32;" d="M102.409,153.6c42.351,0,76.8-34.449,76.8-76.8S144.76,0,102.409,0
		c-42.351,0.009-76.8,34.458-76.8,76.809S60.058,153.6,102.409,153.6z M102.409,25.609c28.279,0,51.2,22.921,51.2,51.2
		s-22.921,51.2-51.2,51.2s-51.2-22.921-51.2-51.2S74.13,25.609,102.409,25.609z"/>
	<path style="fill:#573A32;" d="M486.409,128h-256c-14.14,0-25.6,11.46-25.6,25.6v48.179l-39.748-19.874
		c-3.558-1.775-7.475-2.705-11.452-2.705h-102.4c-12.373,0-22.972,8.849-25.19,21.018l-25.6,140.791
		c-1.357,7.467,0.666,15.155,5.53,20.983c4.873,5.828,12.066,9.199,19.661,9.199h16.358l9.327,117.222
		c1.058,13.312,12.169,23.569,25.515,23.569h51.2c13.047,0,24.004-9.813,25.446-22.767l22.366-201.276l28.988,7.245v63.206
		c0,14.14,11.46,25.6,25.6,25.6h105.404l-65.178,108.621c-3.652,6.05-1.673,13.926,4.403,17.553
		c5.999,3.678,13.901,1.698,17.553-4.403l53.018-88.371v81.792c0,7.074,5.726,12.8,12.8,12.8s12.8-5.726,12.8-12.8v-81.792
		l53.026,88.363c2.398,4.002,6.647,6.221,10.974,6.221c2.253,0,4.523-0.572,6.579-1.826c6.076-3.627,8.047-11.503,4.403-17.553
		l-65.178-108.621h105.395c14.14,0,25.6-11.46,25.6-25.6V153.6C512.009,139.46,500.549,128,486.409,128z M153.609,256l-25.6,230.392
		h-51.2l-11.196-140.8H25.609l25.6-140.791h38.4v77.875c0,7.074,5.726,12.8,12.8,12.8c7.074,0,12.8-5.726,12.8-12.8V204.8h38.4
		l102.4,51.2v25.6L153.609,256z M486.409,358.391h-256v-56.806l19.388,4.847c2.048,0.512,4.139,0.768,6.212,0.768
		c5.649,0,11.204-1.869,15.753-5.419c6.212-4.855,9.847-12.305,9.847-20.19V261.99l157.124-44.894
		c6.801-1.929,10.726-9.028,8.772-15.821c-1.929-6.801-9.003-10.803-15.821-8.772l-157.961,45.133
		c-1.843-1.783-3.908-3.345-6.263-4.531l-37.052-18.526V153.6h256V358.391z"/>
</g>
<g>
</g>
<g>
</g>
<g>
</g>
<g>
</g>
<g>
</g>
<g>
</g>
<g>
</g>
<g>
</g>
<g>
</g>
<g>
</g>
<g>
</g>
<g>
</g>
<g>
</g>
<g>
</g>
<g>
</g>
</svg>
