<?xml version="1.0" encoding="iso-8859-1"?>
<!-- Generator: Adobe Illustrator 19.0.0, SVG Export Plug-In . SVG Version: 6.00 Build 0)  -->
<svg version="1.1" id="Layer_1" xmlns="http://www.w3.org/2000/svg" xmlns:xlink="http://www.w3.org/1999/xlink" x="0px" y="0px"
	 viewBox="0 0 512 512" style="enable-background:new 0 0 512 512;" xml:space="preserve">
<path style="fill:#D3D7DF;" d="M390.545,422.682l-6.903-86.921h-26.863l18.705-103.04h76.612l16.341,90.052h-23.066
	c-7.057,0-12.8,5.751-12.8,12.826v26.871c0,3.422,1.34,6.656,3.772,9.088l4.13,4.13l-3.371,46.985h-46.558V422.682z"/>
<rect x="320" y="447.915" style="fill:#C6D9B0;" width="128" height="51.2"/>
<rect x="192" y="331.913" style="fill:#A0BF7C;" width="128" height="167.262"/>
<path style="fill:#FF877F;" d="M223.838,306.654l-6.903-86.929h-26.863l18.705-103.04h76.612l16.341,90.061h-23.066
	c-7.057,0-12.8,5.751-12.8,12.826v26.863c0,3.422,1.34,6.656,3.772,9.088l4.13,4.13l-3.371,46.993h-46.558V306.654z"/>
<rect x="265.899" y="206.763" style="fill:#919CB0;" width="66.637" height="52.463"/>
<rect x="432.563" y="322.799" style="fill:#BCB0AD;" width="66.637" height="52.471"/>
<rect x="64" y="396.715" style="fill:#B3CC96;" width="128" height="102.485"/>
<g>
	<path style="fill:#FFE7E5;" d="M247.083,91.793c-21.862,0-39.646-17.801-39.646-39.671s17.783-39.663,39.646-39.663
		c21.854,0,39.637,17.792,39.637,39.663S268.937,91.793,247.083,91.793z"/>
	<path style="fill:#FFE7E5;" d="M98.219,156.587c-21.854,0-39.637-17.792-39.637-39.663s17.783-39.671,39.637-39.671
		c21.862,0,39.646,17.801,39.646,39.671S120.073,156.587,98.219,156.587z"/>
	<path style="fill:#FFE7E5;" d="M413.781,207.829c-21.862,0-39.646-17.801-39.646-39.671s17.783-39.671,39.646-39.671
		c21.854,0,39.637,17.801,39.637,39.671S435.635,207.829,413.781,207.829z"/>
</g>
<path style="fill:#919CB0;" d="M74.889,371.439l-3.371-46.993l4.13-4.13c2.432-2.432,3.772-5.666,3.772-9.088v-26.863
	c0-7.074-5.743-12.826-12.8-12.826H43.563l16.341-90.061h76.612l18.705,103.04h-26.863l-6.903,86.929H74.889V371.439z"/>
<rect x="12.8" y="271.556" style="fill:#9A8984;" width="66.637" height="52.463"/>
<g>
	<path style="fill:#573A32;" d="M299.179,52.122C299.179,23.373,275.806,0,247.083,0s-52.087,23.373-52.087,52.122
		s23.364,52.122,52.087,52.122S299.179,80.87,299.179,52.122z M247.083,78.993c-14.797,0-26.837-12.058-26.837-26.871
		s12.041-26.871,26.837-26.871c14.797,0,26.837,12.058,26.837,26.871S261.879,78.993,247.083,78.993z"/>
	<path style="fill:#573A32;" d="M150.306,116.915c0-28.749-23.364-52.122-52.087-52.122s-52.096,23.373-52.096,52.122
		s23.373,52.122,52.096,52.122S150.306,145.664,150.306,116.915z M98.219,143.787c-14.797,0-26.837-12.058-26.837-26.871
		s12.041-26.871,26.837-26.871s26.837,12.058,26.837,26.871C125.056,131.729,113.015,143.787,98.219,143.787z"/>
	<path style="fill:#573A32;" d="M465.877,168.158c0-28.749-23.373-52.122-52.096-52.122s-52.087,23.373-52.087,52.122
		s23.364,52.122,52.087,52.122S465.877,196.907,465.877,168.158z M413.781,195.029c-14.797,0-26.837-12.058-26.837-26.871
		c0-14.814,12.041-26.871,26.837-26.871s26.837,12.058,26.837,26.871C440.619,182.972,428.578,195.029,413.781,195.029z"/>
	<path style="fill:#573A32;" d="M486.4,309.973h-7.612l-13.235-72.866c-1.775-9.762-10.274-16.836-20.198-16.836h-31.573h-31.565
		c-9.924,0-18.423,7.083-20.198,16.836l-15.787,86.921c-1.084,6.007,0.529,12.134,4.437,16.811
		c3.908,4.702,9.651,7.381,15.761,7.381h5.709l5.385,68.011c0.862,10.607,9.847,18.893,20.463,18.893H332.8V319.095h-69.931
		c10.641,0,19.627-8.286,20.463-18.893l2.236-28.151h34.133c14.14,0,25.6-11.469,25.6-25.626v-26.863
		c0-14.148-11.46-25.626-25.6-25.626h-7.612l-13.235-72.866c-1.775-9.762-10.274-16.836-20.198-16.836h-31.573h-31.565
		c-9.924,0-18.423,7.083-20.198,16.836l-15.787,86.921c-1.084,6.007,0.529,12.134,4.437,16.811
		c3.908,4.702,9.651,7.381,15.761,7.381h5.709l5.385,68.011c0.862,10.607,9.847,18.893,20.463,18.893H179.2v64.794h-65.195
		c10.615,0,19.601-8.286,20.463-18.893l5.385-68.011h5.709c6.11,0,11.853-2.679,15.761-7.381c3.908-4.676,5.521-10.812,4.437-16.811
		l-15.787-86.921c-1.775-9.762-10.274-16.836-20.198-16.836H98.219H66.645c-9.924,0-18.423,7.083-20.198,16.836l-13.235,72.866H25.6
		c-14.14,0-25.6,11.469-25.6,25.626v26.871c0,14.148,11.46,25.626,25.6,25.626h34.133l2.236,28.151
		c0.836,10.607,9.822,18.893,20.463,18.893H51.2V512h409.6v-76.868h-31.232c10.641,0,19.627-8.286,20.463-18.893l2.236-28.143H486.4
		c14.14,0,25.6-11.469,25.6-25.626v-26.871C512,321.451,500.54,309.973,486.4,309.973z M66.637,311.228H25.6v-26.871h41.037V311.228
		z M66.637,258.731h-7.74l11.699-64.452h14.985v43.341c0,6.98,5.675,12.638,12.638,12.638s12.621-5.658,12.621-12.638v-43.341
		h14.985l14.063,77.44h-23.364l-6.903,86.921H86.793l-2.099-29.278c4.651-4.642,7.535-11.051,7.535-18.142v-26.871
		C92.237,270.208,80.777,258.731,66.637,258.731z M179.2,486.374H76.8v-76.86h102.4V486.374z M319.701,219.563v26.871h-41.037
		v-26.871H319.701z M228.77,206.925h-23.364l14.063-77.44h14.985v43.341c0,6.98,5.666,12.638,12.621,12.638
		c6.955,0,12.638-5.658,12.638-12.638v-43.341h14.985l11.699,64.452h-7.74c-14.14,0-25.6,11.469-25.6,25.626v26.871
		c0,7.091,2.884,13.5,7.535,18.142l-2.099,29.278h-22.827L228.77,206.925z M307.2,486.374H204.8V344.721h102.4V486.374z
		 M435.2,460.757v25.626H332.8v-25.626H435.2z M419.763,335.599v26.871c0,7.091,2.884,13.5,7.535,18.142l-2.099,29.278h-22.827
		l-6.903-86.921h-23.364l14.063-77.44h14.985v43.341c0,6.98,5.666,12.638,12.621,12.638c6.955,0,12.638-5.658,12.638-12.638V245.53
		h14.985l11.699,64.452h-7.74C431.223,309.973,419.763,321.451,419.763,335.599z M486.4,362.47h-41.037v-26.871H486.4V362.47z"/>
</g>
<g>
</g>
<g>
</g>
<g>
</g>
<g>
</g>
<g>
</g>
<g>
</g>
<g>
</g>
<g>
</g>
<g>
</g>
<g>
</g>
<g>
</g>
<g>
</g>
<g>
</g>
<g>
</g>
<g>
</g>
</svg>
