<?xml version="1.0" encoding="iso-8859-1"?>
<!-- Generator: Adobe Illustrator 19.0.0, SVG Export Plug-In . SVG Version: 6.00 Build 0)  -->
<svg version="1.1" id="Layer_1" xmlns="http://www.w3.org/2000/svg" xmlns:xlink="http://www.w3.org/1999/xlink" x="0px" y="0px"
	 viewBox="0 0 512 512" style="enable-background:new 0 0 512 512;" xml:space="preserve">
<g>
	<path style="fill:#FFE7E5;" d="M102.398,140.8c-35.294,0-64-28.706-64-64s28.706-64,64-64s64,28.706,64,64
		S137.692,140.8,102.398,140.8z"/>
	<path style="fill:#FFE7E5;" d="M255.998,268.8c-21.171,0-38.4-17.229-38.4-38.4s17.229-38.4,38.4-38.4s38.4,17.229,38.4,38.4
		S277.17,268.8,255.998,268.8z"/>
</g>
<polygon style="fill:#B3CC96;" points="217.598,499.2 217.598,422.4 188.406,422.4 220.406,294.4 291.591,294.4 323.591,422.4 
	294.398,422.4 294.398,499.2 "/>
<polygon style="fill:#FF9F99;" points="371.198,499.2 371.198,422.4 313.897,422.4 370.371,281.199 340.641,192 478.556,192 
	448.826,281.199 505.3,422.4 447.998,422.4 447.998,499.2 "/>
<path style="fill:#FFE7E5;" d="M409.598,140.8c-35.294,0-64-28.706-64-64s28.706-64,64-64s64,28.706,64,64
	S444.892,140.8,409.598,140.8z"/>
<polygon style="fill:#919CB0;" points="64.98,499.2 53.784,358.4 10.264,358.4 40.515,192 164.282,192 194.533,358.4 151.021,358.4 
	139.817,499.2 "/>
<g>
	<rect x="76.798" y="76.8" style="fill:#573A32;" width="0.001" height="0.001"/>
	<path style="fill:#573A32;" d="M307.198,230.4c0-28.228-22.972-51.2-51.2-51.2s-51.2,22.972-51.2,51.2s22.972,51.2,51.2,51.2
		S307.198,258.628,307.198,230.4z M255.998,256c-14.14,0-25.6-11.46-25.6-25.6c0-14.14,11.46-25.6,25.6-25.6
		c14.14,0,25.6,11.46,25.6,25.6C281.598,244.54,270.138,256,255.998,256z"/>
	<path style="fill:#573A32;" d="M510.164,400.094l-47.718-119.296l22.63-67.9c2.603-7.808,1.297-16.393-3.516-23.066
		c-4.804-6.673-12.535-10.633-20.762-10.633h-102.4c-8.226,0-15.957,3.959-20.77,10.633c-4.813,6.673-6.118,15.258-3.516,23.066
		l22.63,67.9l-34.065,85.171l-16.247-64.981c-2.85-11.392-13.082-19.388-24.832-19.388h-25.6h-25.6
		c-11.75,0-21.982,7.996-24.832,19.388l-4.898,19.575l-21.879-120.346c-2.21-12.169-12.817-21.018-25.19-21.018h-102.4
		c-12.373,0-22.972,8.849-25.182,21.026l-25.6,140.8c-1.357,7.467,0.666,15.155,5.53,20.983c4.864,5.828,12.066,9.19,19.652,9.19
		h16.358l9.327,117.231C52.342,501.734,63.444,512,76.798,512h51.2c13.355,0,24.465-10.266,25.523-23.569L162.84,371.2h16.358
		c3.26,0,6.366-0.896,9.327-2.074l-8.567,34.27c-1.911,7.646-0.196,15.753,4.659,21.965c4.855,6.204,12.297,9.839,20.181,9.839v51.2
		c0,14.14,11.46,25.6,25.6,25.6h51.2c14.14,0,25.6-11.46,25.6-25.6v-51.2c4.54,0,8.747-1.485,12.587-3.695
		c3.9,2.321,8.337,3.695,13.013,3.695h25.6v51.2c0,14.14,11.46,25.6,25.6,25.6h51.2c14.14,0,25.6-11.46,25.6-25.6v-51.2h25.6
		c8.499,0,16.435-4.215,21.197-11.247C512.357,416.922,513.321,407.979,510.164,400.094z M139.194,345.6l-11.196,140.8h-51.2
		L65.603,345.6H25.598l25.6-140.8h102.4l25.6,140.8H139.194z M281.598,409.6v76.8h-51.2v-76.8h-25.6l25.6-102.4h51.2l25.6,102.4
		H281.598z M435.198,409.6v76.8h-51.2v-76.8h-51.2l51.2-128l-25.6-76.8h102.4l-25.6,76.8l51.2,128H435.198z"/>
	<path style="fill:#573A32;" d="M409.598,153.6c42.351,0,76.8-34.449,76.8-76.8S451.949,0,409.598,0s-76.8,34.449-76.8,76.8
		S367.248,153.6,409.598,153.6z M409.598,25.6c28.279,0,51.2,22.921,51.2,51.2s-22.921,51.2-51.2,51.2
		c-28.279,0-51.2-22.921-51.2-51.2S381.319,25.6,409.598,25.6z"/>
	<path style="fill:#573A32;" d="M102.398,153.6c42.351,0,76.8-34.449,76.8-76.8S144.749,0,102.398,0
		c-42.342,0-76.8,34.449-76.8,76.8S60.056,153.6,102.398,153.6z M102.398,25.6c28.279,0,51.2,22.921,51.2,51.2
		s-22.921,51.2-51.2,51.2s-51.2-22.921-51.2-51.2S74.119,25.6,102.398,25.6z"/>
</g>
<g>
</g>
<g>
</g>
<g>
</g>
<g>
</g>
<g>
</g>
<g>
</g>
<g>
</g>
<g>
</g>
<g>
</g>
<g>
</g>
<g>
</g>
<g>
</g>
<g>
</g>
<g>
</g>
<g>
</g>
</svg>
