<?xml version="1.0" encoding="iso-8859-1"?>
<!-- Generator: Adobe Illustrator 19.0.0, SVG Export Plug-In . SVG Version: 6.00 Build 0)  -->
<svg version="1.1" id="Layer_1" xmlns="http://www.w3.org/2000/svg" xmlns:xlink="http://www.w3.org/1999/xlink" x="0px" y="0px"
	 viewBox="0 0 512 512" style="enable-background:new 0 0 512 512;" xml:space="preserve">
<path style="fill:#C8E6FF;" d="M418.444,294.305L260.388,189.564l-75.45,113.068c-35.266,55.127-25.769,139.478,7.303,160.634
	c33.083,21.155,122.239-6.392,157.494-61.519L418.444,294.305z"/>
<path style="fill:#ADD9FF;" d="M355.901,427.28l68.71-107.442l-17.129-61.185l-91.506,143.094
	c-35.255,55.127-90.653,82.674-123.736,61.519C247.379,498.521,320.646,482.407,355.901,427.28z"/>
<path style="fill:#E4F2FF;" d="M196.19,325.138l94.322-147.51l-65.549,14.535l-68.71,107.442
	c-35.255,55.127-19.141,128.406,35.986,163.661C159.169,442.111,160.924,380.265,196.19,325.138z"/>
<path style="fill:#58AB5B;" d="M457.334,48.736c-7.177-4.589-16.464-6.883-26.966-7.104
	C440.245,41.411,449.428,43.68,457.334,48.736c-55.139-35.255-128.406-19.141-163.661,35.986l-68.71,107.442l39.925,25.533l0,0
	l135.439,86.613l75.563-117.444C511.145,131.736,490.406,69.891,457.334,48.736z"/>
<path style="fill:#FFDD77;" d="M280.87,217.695L122.813,322.436l-75.45-113.068C12.097,154.241,21.594,69.89,54.666,48.734
	c33.083-21.155,122.239,6.392,157.494,61.519L280.87,217.695z"/>
<path style="fill:#FFCC3D;" d="M218.327,84.721l68.71,107.442l-17.129,61.185l-91.506-143.094
	C143.147,55.126,87.75,27.579,54.666,48.734C109.805,13.479,183.072,29.593,218.327,84.721z"/>
<path style="fill:#FFDD77;" d="M58.616,186.862l94.322,147.51l-65.549-14.535L18.68,212.395
	C-16.575,157.268-0.461,83.989,54.666,48.734C21.594,69.89,23.35,131.735,58.616,186.862z"/>
<path style="fill:#FF455E;" d="M338.316,325.137l-75.563-117.445l-135.439,86.612l0,0l-39.925,25.533l68.71,107.442
	c35.255,55.127,108.522,71.241,163.661,35.986c-7.906,5.056-17.09,7.323-26.965,7.104c10.501-0.222,19.789-2.515,26.965-7.104
	C352.832,442.11,373.571,380.264,338.316,325.137z"/>
<path style="fill:#ED2F49;" d="M355.746,299.604c35.255,55.127,19.141,128.406-35.986,163.661
	c33.072-21.155,31.305-83.001-3.95-138.128l-68.698-107.442l39.925-25.533L355.746,299.604z"/>
<path style="fill:#559156;" d="M493.321,212.396c35.255-55.127,19.141-128.406-35.986-163.661
	c33.072,21.155,31.305,83.001-3.95,138.128l-68.698,107.442l39.925,25.533L493.321,212.396z"/>
<g>
</g>
<g>
</g>
<g>
</g>
<g>
</g>
<g>
</g>
<g>
</g>
<g>
</g>
<g>
</g>
<g>
</g>
<g>
</g>
<g>
</g>
<g>
</g>
<g>
</g>
<g>
</g>
<g>
</g>
</svg>
