<?xml version="1.0" encoding="iso-8859-1"?>
<!-- Generator: Adobe Illustrator 19.0.0, SVG Export Plug-In . SVG Version: 6.00 Build 0)  -->
<svg version="1.1" id="Layer_1" xmlns="http://www.w3.org/2000/svg" xmlns:xlink="http://www.w3.org/1999/xlink" x="0px" y="0px"
	 viewBox="0 0 512 512" style="enable-background:new 0 0 512 512;" xml:space="preserve">
<path style="fill:#FF3F62;" d="M493.791,125.368c-0.074-26.404-21.538-47.749-47.942-47.676c-10.727,0.03-20.6,10.39-28.56,16.378
	c-7.993-5.943-17.924-16.248-28.651-16.219c-26.404,0.074-47.749,21.538-47.675,47.942c0.071,25.343,76.639,80.327,76.639,80.327
	S493.862,150.71,493.791,125.368z"/>
<path style="fill:#FF0C38;" d="M418.741,206.121c0,0,76.26-55.41,76.189-80.753c-0.074-26.404-21.538-47.749-47.942-47.676
	c-10.727,0.03-20.6,10.39-28.56,16.378L418.741,206.121z"/>
<path style="fill:#D7D5D9;" d="M512,289.133H341.697l-49.645,135.244c-2.212,6.027-7.94,9.931-14.214,9.931
	c-0.943,0-1.895-0.089-2.854-0.27c-6.814-1.294-11.775-7.238-12.295-14.155l-15.991-212.452l-22.334,71.092
	c-1.983,6.314-7.836,10.61-14.454,10.61H0v-30.302h198.79l42.642-135.739c2.36-7.513,10.142-12.063,18.009-10.19
	c6.485,1.544,11.083,7.337,11.583,13.985l16.667,221.433l29.205-79.561c2.19-5.965,7.869-9.93,14.223-9.93H512V289.133z"/>
<g>
	<rect y="258.832" style="opacity:0.26;fill:#3E3B43;enable-background:new    ;" width="23.378" height="30.302"/>
	<rect x="488.281" y="258.832" style="opacity:0.26;fill:#3E3B43;enable-background:new    ;" width="23.377" height="30.302"/>
</g>
<g>
</g>
<g>
</g>
<g>
</g>
<g>
</g>
<g>
</g>
<g>
</g>
<g>
</g>
<g>
</g>
<g>
</g>
<g>
</g>
<g>
</g>
<g>
</g>
<g>
</g>
<g>
</g>
<g>
</g>
</svg>
