<?xml version="1.0" encoding="iso-8859-1"?>
<!-- Generator: Adobe Illustrator 19.0.0, SVG Export Plug-In . SVG Version: 6.00 Build 0)  -->
<svg version="1.1" id="Layer_1" xmlns="http://www.w3.org/2000/svg" xmlns:xlink="http://www.w3.org/1999/xlink" x="0px" y="0px"
	 viewBox="0 0 512 512" style="enable-background:new 0 0 512 512;" xml:space="preserve">
<rect y="54.267" style="fill:#415E72;" width="512" height="403.465"/>
<g>
	<path style="fill:#6E8EA0;" d="M351.581,125.294c-52.174,28.683-115.395,28.683-167.569,0
		c-38.524,70.076-77.048,140.15-115.573,210.226c124.142,68.248,274.57,68.248,398.714,0
		C428.63,265.444,390.106,195.369,351.581,125.294z"/>
	<rect x="459.502" y="81.059" style="fill:#6E8EA0;" width="28.313" height="17.696"/>
	<rect x="400.516" y="81.059" style="fill:#6E8EA0;" width="47.189" height="17.696"/>
	<rect x="400.516" y="111.732" style="fill:#6E8EA0;" width="87.3" height="17.696"/>
	<rect x="437.088" y="142.404" style="fill:#6E8EA0;" width="50.728" height="17.696"/>
	<rect x="400.516" y="142.404" style="fill:#6E8EA0;" width="24.774" height="17.696"/>
	<polygon style="fill:#6E8EA0;" points="63.119,158.68 63.119,140.984 39.524,140.984 39.524,94.968 21.828,94.968 21.828,417.032 
		39.524,417.032 39.524,373.863 63.119,373.863 63.119,356.167 39.524,356.167 39.524,302.134 63.119,302.134 63.119,284.438 
		39.524,284.438 39.524,230.408 63.119,230.408 63.119,212.712 39.524,212.712 39.524,158.68 	"/>
</g>
<g>
	<path style="fill:#415E72;" d="M414.086,306.971h-18.876c-3.257,0-5.899-2.641-5.899-5.899c0-3.257,2.641-5.899,5.899-5.899h18.876
		c3.257,0,5.899,2.641,5.899,5.899C419.985,304.331,417.344,306.971,414.086,306.971z"/>
	<path style="fill:#415E72;" d="M208.815,178.381h-18.876c-3.257,0-5.899-2.641-5.899-5.899s2.641-5.899,5.899-5.899h18.876
		c3.257,0,5.899,2.641,5.899,5.899S212.072,178.381,208.815,178.381z"/>
	<path style="fill:#415E72;" d="M395.211,334.105h-18.876c-3.257,0-5.899-2.641-5.899-5.899s2.641-5.899,5.899-5.899h18.876
		c3.257,0,5.899,2.641,5.899,5.899S398.468,334.105,395.211,334.105z"/>
	<path style="fill:#415E72;" d="M322.257,179.615c-29.478-0.516-53.535,23.225-53.535,52.585c0,18.155,9.198,34.16,23.187,43.611
		c0,0-29.007-9.29-31.93-43.166c-44.159,4.603-46.619,43.844-46.619,43.844c-12.804-3.698-21.044-19.68-25.481-31.387
		c-2.948-7.779-10.417-12.903-18.735-12.903c-12.85,0-22.332,11.903-19.576,24.453c0.142,0.648,0.29,1.293,0.442,1.936
		c5.204,21.853,17.395,41.417,34.184,56.345l2.926,2.601c17.239,15.328,38.76,25.245,61.71,27.573
		c3.811,0.387,7.676,0.584,11.588,0.584c61.898,0,112.222-49.553,113.467-111.154C374.475,205.371,351.425,180.125,322.257,179.615z
		 M303.192,231.543c-4.561,0-8.258-3.697-8.258-8.258s3.697-8.258,8.258-8.258c4.561,0,8.258,3.697,8.258,8.258
		S307.753,231.543,303.192,231.543z"/>
</g>
<g>
</g>
<g>
</g>
<g>
</g>
<g>
</g>
<g>
</g>
<g>
</g>
<g>
</g>
<g>
</g>
<g>
</g>
<g>
</g>
<g>
</g>
<g>
</g>
<g>
</g>
<g>
</g>
<g>
</g>
</svg>
