<?xml version="1.0" encoding="iso-8859-1"?>
<!-- Generator: Adobe Illustrator 19.0.0, SVG Export Plug-In . SVG Version: 6.00 Build 0)  -->
<svg version="1.1" id="Layer_1" xmlns="http://www.w3.org/2000/svg" xmlns:xlink="http://www.w3.org/1999/xlink" x="0px" y="0px"
	 viewBox="0 0 392.598 392.598" style="enable-background:new 0 0 392.598 392.598;" xml:space="preserve">
<g>
	<path style="fill:#FFC10D;" d="M145.261,225.261c0-11.055-8.986-20.04-20.04-20.04h-3.879l-27.992,60.121
		c-3.943,8.404-15.838,8.404-19.782,0l-28.057-60.186h-3.879c-11.055,0-20.04,8.986-20.04,20.04v70.917h123.539v-70.853H145.261z"/>
	<path style="fill:#FFC10D;" d="M83.523,147.168c13.964,0,25.341-11.378,25.341-25.341c0-13.964-11.378-25.341-25.341-25.341
		s-25.341,11.313-25.341,25.341S69.56,147.168,83.523,147.168z"/>
</g>
<g>
	<path style="fill:#194F82;" d="M125.285,183.434h-10.796c-4.267,0-8.145,2.457-9.891,6.335l-21.01,45.188l-21.01-45.188
		c-1.745-3.879-5.624-6.335-9.891-6.335H41.826C18.812,183.434,0,202.182,0,225.261v81.907c0,6.012,4.848,10.925,10.925,10.925
		h145.261c6.012,0,10.925-4.848,10.925-10.925v-81.907C167.046,202.246,148.299,183.434,125.285,183.434z M21.786,225.261
		c0-11.055,8.986-20.04,20.04-20.04h3.879l28.057,60.186c3.943,8.404,15.838,8.404,19.782,0l27.992-60.121h3.879
		c11.055,0,20.04,8.986,20.04,20.04v70.917H21.786V225.261z"/>
	<path style="fill:#194F82;" d="M83.523,168.954c25.988,0,47.127-21.204,47.127-47.127s-21.204-47.127-47.127-47.127
		s-47.127,21.204-47.127,47.127S57.535,168.954,83.523,168.954z M83.523,96.42c13.964,0,25.341,11.378,25.341,25.341
		s-11.378,25.341-25.341,25.341s-25.341-11.378-25.341-25.341S69.56,96.42,83.523,96.42z"/>
</g>
<path style="fill:#56ACE0;" d="M339.976,83.297c16.937,0,30.707-13.77,30.707-30.707s-13.705-30.772-30.707-30.772
	c-16.937,0-30.707,13.77-30.707,30.707S323.103,83.297,339.976,83.297z"/>
<path style="fill:#FFFFFF;" d="M339.976,227.071c16.937,0,30.707-13.77,30.707-30.707s-13.705-30.707-30.707-30.707
	c-16.937,0-30.707,13.77-30.707,30.707S323.103,227.071,339.976,227.071z"/>
<path style="fill:#56ACE0;" d="M339.976,370.844c16.937,0,30.707-13.77,30.707-30.707s-13.77-30.642-30.707-30.642
	s-30.707,13.77-30.707,30.707S323.103,370.844,339.976,370.844z"/>
<path style="fill:#194F82;" d="M288.711,207.289c5.042,23.725,26.117,41.568,51.329,41.568c28.962,0,52.558-23.596,52.558-52.493
	s-23.596-52.493-52.558-52.493c-25.212,0-46.287,17.842-51.329,41.568h-22.432V63.515h22.432
	c5.042,23.725,26.117,41.568,51.329,41.568c28.962,0,52.558-23.596,52.558-52.493S369.002,0.032,340.04,0.032
	c-25.212,0-46.287,17.842-51.329,41.568h-33.358c-6.012,0-10.925,4.848-10.925,10.925v132.848h-48.162
	c-6.012,0-10.925,4.848-10.925,10.925c0,6.012,4.848,10.925,10.925,10.925h48.162v132.848c0,6.012,4.848,10.925,10.925,10.925
	h33.358c5.042,23.725,26.117,41.568,51.329,41.568c28.962,0,52.558-23.596,52.558-52.493s-23.596-52.493-52.558-52.493
	c-25.212,0-46.287,17.842-51.329,41.568h-22.432V207.289H288.711z M339.976,165.657c16.937,0,30.707,13.77,30.707,30.707
	s-13.705,30.707-30.707,30.707c-16.937,0-30.707-13.77-30.707-30.707S323.103,165.657,339.976,165.657z M339.976,21.883
	c16.937,0,30.707,13.77,30.707,30.707s-13.705,30.772-30.707,30.772c-16.937,0-30.707-13.77-30.707-30.707
	S323.103,21.883,339.976,21.883z M339.976,309.43c16.937,0,30.707,13.77,30.707,30.707s-13.77,30.707-30.707,30.707
	s-30.707-13.77-30.707-30.707C309.333,323.265,323.103,309.43,339.976,309.43z"/>
<g>
</g>
<g>
</g>
<g>
</g>
<g>
</g>
<g>
</g>
<g>
</g>
<g>
</g>
<g>
</g>
<g>
</g>
<g>
</g>
<g>
</g>
<g>
</g>
<g>
</g>
<g>
</g>
<g>
</g>
</svg>
