<?xml version="1.0" encoding="iso-8859-1"?>
<!-- Generator: Adobe Illustrator 19.0.0, SVG Export Plug-In . SVG Version: 6.00 Build 0)  -->
<svg version="1.1" id="Layer_1" xmlns="http://www.w3.org/2000/svg" xmlns:xlink="http://www.w3.org/1999/xlink" x="0px" y="0px"
	 viewBox="0 0 508.1 508.1" style="enable-background:new 0 0 508.1 508.1;" xml:space="preserve">
<path style="fill:#56ACE0;" d="M78,443.2c-22.9,0-42.3,15.6-48.1,36.7H126C120.3,458.7,101,443.2,78,443.2z"/>
<path style="fill:#FFFFFF;" d="M254,443.2c-22.9,0-42.3,15.6-48.1,36.7H302C296.3,458.7,276.9,443.2,254,443.2z"/>
<path style="fill:#56ACE0;" d="M430,443.2c-22.9,0-42.3,15.6-48.1,36.7H478C472.3,458.7,452.9,443.2,430,443.2z"/>
<g>
	<path style="fill:#194F82;" d="M78,414.9c-43,0-78,35-78,78v1c0,7.8,6.3,14.1,14.1,14.1H142c7.8,0,14.1-6.3,14.1-14.1v-1
		C156.1,449.9,121.1,414.9,78,414.9z M30,479.9c5.8-21.1,25.1-36.7,48.1-36.7s42.3,15.6,48.1,36.7H30z"/>
	<path style="fill:#194F82;" d="M254,414.9c-43,0-78,35-78,78v1c0,7.8,6.3,14.1,14.1,14.1H318c7.8,0,14.1-6.3,14.1-14.1v-1
		C332,449.9,297,414.9,254,414.9z M205.9,479.9c5.8-21.1,25.1-36.7,48.1-36.7c22.9,0,42.3,15.6,48.1,36.7H205.9z"/>
	<path style="fill:#194F82;" d="M430,414.9c-43,0-78,35-78,78v1c0,7.8,6.3,14.1,14.1,14.1H494c7.8,0,14.1-6.3,14.1-14.1v-1
		C508,449.9,473,414.9,430,414.9z M381.9,479.9c5.8-21.1,25.1-36.7,48.1-36.7s42.3,15.6,48.1,36.7H381.9z"/>
</g>
<g>
	<path style="fill:#FFC10D;" d="M254,228.5c55.2,0,100.1-44.9,100.1-100.1S309.2,28.3,254,28.3S153.9,73.2,153.9,128.4
		S198.8,228.5,254,228.5z"/>
	<path style="fill:#FFC10D;" d="M78,340.7c-9.7,0-17.5,7.9-17.5,17.5c0,9.7,7.9,17.5,17.5,17.5c9.7,0,17.5-7.9,17.5-17.5
		S87.7,340.7,78,340.7z"/>
</g>
<path style="fill:#56ACE0;" d="M254,340.7c-9.7,0-17.5,7.9-17.5,17.5c0,9.7,7.9,17.5,17.5,17.5c9.7,0,17.5-7.9,17.5-17.5
	S263.7,340.7,254,340.7z"/>
<path style="fill:#FFC10D;" d="M430,340.7c-9.7,0-17.5,7.9-17.5,17.5c0,9.7,7.9,17.5,17.5,17.5s17.5-7.9,17.5-17.5
	S439.6,340.7,430,340.7z"/>
<g>
	<path style="fill:#194F82;" d="M444.1,314.7V289c0-7.8-6.3-14.1-14.1-14.1H268.1v-19c64.1-7.1,114.2-61.5,114.2-127.5
		C382.3,57.7,324.8,0.1,254,0.1S125.7,57.7,125.7,128.4c0,66,50.1,120.4,114.2,127.5v19H78c-7.8,0-14.1,6.3-14.1,14.1v25.7
		c-18.3,6-31.6,23.2-31.6,43.5c0,25.2,20.5,45.7,45.7,45.7s45.7-20.5,45.7-45.7c0-20.3-13.3-37.5-31.6-43.5v-11.6h147.7v11.6
		c-18.3,6-31.6,23.2-31.6,43.5c0,25.2,20.5,45.7,45.7,45.7s45.7-20.5,45.7-45.7c0-20.3-13.3-37.5-31.6-43.5v-11.6h147.7v11.6
		c-18.3,6-31.6,23.2-31.6,43.5c0,25.2,20.5,45.7,45.7,45.7s45.7-20.5,45.7-45.7C475.7,337.9,462.4,320.7,444.1,314.7z M78,375.7
		c-9.7,0-17.5-7.9-17.5-17.5c0-9.7,7.9-17.5,17.5-17.5c9.7,0,17.5,7.9,17.5,17.5C95.5,367.9,87.7,375.7,78,375.7z M254,375.7
		c-9.7,0-17.5-7.9-17.5-17.5c0-9.7,7.9-17.5,17.5-17.5c9.7,0,17.5,7.9,17.5,17.5C271.5,367.9,263.7,375.7,254,375.7z M254,28.3
		c55.2,0,100.1,44.9,100.1,100.1S309.2,228.5,254,228.5s-100.1-44.9-100.1-100.1S198.8,28.3,254,28.3z M430,375.7
		c-9.7,0-17.5-7.9-17.5-17.5c0-9.7,7.9-17.5,17.5-17.5s17.5,7.9,17.5,17.5C447.5,367.9,439.6,375.7,430,375.7z"/>
	<path style="fill:#194F82;" d="M268.1,205.2v-6.3c17.1-5.9,29.4-22.1,29.4-41.1c0-24-19.5-43.5-43.5-43.5
		c-8.4,0-15.3-6.9-15.3-15.3s6.9-15.3,15.3-15.3c6.2,0,11.7,3.7,14.1,9.3c3,7.2,11.3,10.5,18.5,7.5s10.5-11.3,7.5-18.5
		c-4.9-11.6-14.5-20.2-26-24.1v-6.3c0-7.8-6.3-14.1-14.1-14.1c-7.8,0-14.1,6.3-14.1,14.1v6.3C222.8,63.8,210.5,80,210.5,99
		c0,24,19.5,43.5,43.5,43.5c8.4,0,15.3,6.9,15.3,15.3c0,8.4-6.9,15.3-15.3,15.3c-6.8,0-12.6-4.3-14.6-10.8
		c-2.3-7.5-10.2-11.6-17.6-9.3c-7.4,2.3-11.6,10.2-9.3,17.6c4.2,13.7,14.5,24,27.5,28.4v6.3c0,7.8,6.3,14.1,14.1,14.1
		C261.8,219.3,268.1,213,268.1,205.2z"/>
</g>
<g>
</g>
<g>
</g>
<g>
</g>
<g>
</g>
<g>
</g>
<g>
</g>
<g>
</g>
<g>
</g>
<g>
</g>
<g>
</g>
<g>
</g>
<g>
</g>
<g>
</g>
<g>
</g>
<g>
</g>
</svg>
