<?xml version="1.0" encoding="iso-8859-1"?>
<!-- Generator: Adobe Illustrator 19.0.0, SVG Export Plug-In . SVG Version: 6.00 Build 0)  -->
<svg version="1.1" id="Layer_1" xmlns="http://www.w3.org/2000/svg" xmlns:xlink="http://www.w3.org/1999/xlink" x="0px" y="0px"
	 viewBox="0 0 392.598 392.598" style="enable-background:new 0 0 392.598 392.598;" xml:space="preserve">
<path style="fill:#FFFFFF;" d="M359.855,21.851H201.535c-6.012,0-10.925,4.848-10.925,10.925v120.889
	c0,6.012,4.848,10.925,10.925,10.925h158.319c6.012,0,10.925-4.848,10.925-10.925V32.776
	C370.78,26.764,365.867,21.851,359.855,21.851z"/>
<path style="fill:#FFC10D;" d="M209.487,143.386V43.119c0-0.84,0.711-1.552,1.552-1.552h139.313c0.84,0,1.552,0.711,1.552,1.552
	v100.331c0,0.84-0.711,1.552-1.552,1.552H211.038C210.198,144.937,209.487,144.226,209.487,143.386z"/>
<g>
	<path style="fill:#194F82;" d="M229.204,136.598c-6.012,0-10.925-4.848-10.925-10.925V109.77c0-6.012,4.848-10.925,10.925-10.925
		c6.012,0,10.925,4.848,10.925,10.925v15.903C240.129,131.749,235.152,136.598,229.204,136.598z"/>
	<path style="fill:#194F82;" d="M263.531,136.598c-6.012,0-10.925-4.848-10.925-10.925V93.543c0-6.012,4.848-10.925,10.925-10.925
		c6.012,0,10.925,4.848,10.925,10.925v32.129C274.392,131.749,269.543,136.598,263.531,136.598z"/>
	<path style="fill:#194F82;" d="M297.859,136.598c-6.012,0-10.925-4.848-10.925-10.925v-48.42c0-6.012,4.848-10.925,10.925-10.925
		c6.077,0,10.925,4.848,10.925,10.925v48.42C308.719,131.749,303.871,136.598,297.859,136.598z"/>
	<path style="fill:#194F82;" d="M332.251,136.598c-6.012,0-10.925-4.848-10.925-10.925V61.026c0-6.012,4.848-10.925,10.925-10.925
		c6.077,0,10.925,4.848,10.925,10.925v64.646C343.111,131.749,338.263,136.598,332.251,136.598z"/>
	<path style="fill:#194F82;" d="M359.855,0.065H201.535c-18.036,0-32.711,14.675-32.711,32.711v120.889
		c0,18.036,14.675,32.711,32.711,32.711h29.673L203.475,302.61c-1.422,5.883,2.263,11.766,8.016,13.123
		c5.754,1.358,11.766-2.263,13.123-8.016l28.962-121.341h16.162v97.358c0,6.012,4.848,10.925,10.925,10.925
		c6.012,0,10.925-4.848,10.925-10.925v-97.358h16.162l28.962,121.341c1.422,5.883,7.37,9.438,13.123,8.016
		c5.883-1.422,9.503-7.24,8.145-13.123l-27.733-116.234h29.608c18.036,0,32.711-14.675,32.711-32.711V32.776
		C392.566,14.739,377.891,0.065,359.855,0.065z M370.78,153.665c0,6.012-4.848,10.925-10.925,10.925H201.535
		c-6.012,0-10.925-4.848-10.925-10.925V32.776c0-6.012,4.848-10.925,10.925-10.925h158.319c6.012,0,10.925,4.848,10.925,10.925
		V153.665z"/>
</g>
<path style="fill:#FFC10D;" d="M38.95,370.812h24.178v-58.117c0-6.012,4.848-10.925,10.925-10.925s10.925,4.848,10.925,10.925
	v58.117h24.178v-94.966H38.95V370.812z"/>
<g>
	<path style="fill:#56ACE0;" d="M47.224,48.614c0,14.739,11.96,26.764,26.764,26.764s26.764-11.96,26.764-26.764
		s-11.96-26.764-26.764-26.764S47.224,33.875,47.224,48.614z"/>
	<path style="fill:#56ACE0;" d="M126.222,153.923c0-10.537-8.145-19.071-18.36-19.911l-23.855,52.17
		c-3.879,8.469-15.903,8.469-19.846,0l-23.855-52.17c-10.279,0.84-18.36,9.438-18.36,19.911v100.073h104.339V153.923H126.222z"/>
</g>
<g>
	<path style="fill:#194F82;" d="M106.182,112.097h-5.301c-4.267,0-8.145,2.457-9.891,6.335l-16.937,36.913l-16.937-36.913
		c-1.745-3.879-5.624-6.335-9.891-6.335h-5.301c-23.208,0-41.891,18.747-41.891,41.826v110.933c0,6.012,4.848,10.925,10.925,10.925
		h6.206v105.891c0,6.012,4.848,10.925,10.925,10.925h91.927c6.012,0,10.925-4.848,10.925-10.925V275.782h6.206
		c6.012,0,10.925-4.848,10.925-10.925V153.923C148.008,130.909,129.325,112.097,106.182,112.097z M109.026,370.812H84.849v-58.117
		c0-6.012-4.848-10.925-10.925-10.925c-6.077,0-10.925,4.848-10.925,10.925v58.117H38.95v-94.966h70.077V370.812z M21.818,253.996
		V153.923c0-10.537,8.145-19.071,18.36-19.911l23.855,52.17c3.879,8.469,15.903,8.469,19.846,0l23.855-52.17
		c10.279,0.84,18.36,9.438,18.36,19.911v100.073L21.818,253.996L21.818,253.996z"/>
	<path style="fill:#194F82;" d="M73.988,97.164c26.828,0,48.549-21.786,48.549-48.549S100.816,0,73.988,0
		C47.224,0,25.438,21.786,25.438,48.549S47.224,97.164,73.988,97.164z M100.816,48.614c0,14.739-11.96,26.764-26.764,26.764
		s-26.828-11.96-26.828-26.764s11.96-26.764,26.764-26.764S100.816,33.875,100.816,48.614z"/>
</g>
<g>
</g>
<g>
</g>
<g>
</g>
<g>
</g>
<g>
</g>
<g>
</g>
<g>
</g>
<g>
</g>
<g>
</g>
<g>
</g>
<g>
</g>
<g>
</g>
<g>
</g>
<g>
</g>
<g>
</g>
</svg>
