<?xml version="1.0" encoding="iso-8859-1"?>
<!-- Generator: Adobe Illustrator 19.0.0, SVG Export Plug-In . SVG Version: 6.00 Build 0)  -->
<svg version="1.1" id="Layer_1" xmlns="http://www.w3.org/2000/svg" xmlns:xlink="http://www.w3.org/1999/xlink" x="0px" y="0px"
	 viewBox="0 0 392.598 392.598" style="enable-background:new 0 0 392.598 392.598;" xml:space="preserve">
<path style="fill:#FFFFFF;" d="M307.523,22.962c-1.875-0.776-8.21-3.038-13.964,2.327
	c-102.917,94.319-135.822,104.533-182.885,114.424v89.535c47.063,9.826,79.968,20.105,182.885,114.36
	c5.818,5.301,12.154,3.103,13.964,2.327c1.745-0.776,7.628-4.008,7.628-11.766V34.792C315.216,26.97,309.333,23.803,307.523,22.962z
	"/>
<path style="fill:#56ACE0;" d="M260.719,206.3c0-6.012,4.848-10.925,10.925-10.925h21.786v-21.721h-43.572
	c-6.012,0-10.925-4.848-10.925-10.925c0-6.012,4.848-10.925,10.925-10.925h43.572v-96.97
	c-81.067,72.663-118.238,91.345-160.97,102.141v54.949c42.731,10.925,79.903,29.608,160.97,102.141v-96.84h-21.786
	C265.568,217.225,260.719,212.247,260.719,206.3z"/>
<g>
	<path style="fill:#FFC10D;" d="M123.475,359.318l-6.206-106.279c-5.947-1.422-12.024-2.651-18.489-4.008H72.921l-6.335,110.352
		c-0.453,5.495,4.073,11.184,10.925,11.378h35.103C120.824,370.372,123.798,363.39,123.475,359.318z"/>
	<path style="fill:#FFC10D;" d="M88.889,227.245v-85.527H43.636c-12.024,0-21.786,9.826-21.786,21.786v41.956
		c0,12.024,9.826,21.786,21.786,21.786L88.889,227.245L88.889,227.245z"/>
	<path style="fill:#FFC10D;" d="M337.067,141.265v86.562c19.329-4.848,33.681-22.432,33.681-43.248
		C370.747,163.698,356.396,146.114,337.067,141.265z"/>
</g>
<path style="fill:#194F82;" d="M337.067,119.091V34.792c0-13.964-7.952-26.117-20.687-31.741c-12.8-5.624-27.216-3.232-37.495,6.206
	l0,0c-103.499,94.772-131.168,100.655-180.04,110.675H43.572C19.523,119.932,0,139.455,0,163.504v41.956
	c0,24.048,19.523,43.572,43.572,43.572h7.499L44.8,358.219c-1.228,21.204,17.002,34.586,32.711,34.327h35.103
	c28.121-1.616,33.164-25.277,32.711-34.392l-5.689-98.651c31.418,11.055,66.715,33.745,139.313,100.331
	c6.659,6.012,20.428,13.446,37.495,6.206c12.735-5.624,20.687-17.778,20.687-31.741v-84.364
	c31.418-5.236,55.467-32.517,55.467-65.422C392.533,151.609,368.42,124.263,337.067,119.091z M337.067,227.698v-86.497
	c19.329,4.848,33.681,22.432,33.681,43.248C370.747,205.33,356.396,222.849,337.067,227.698z M315.216,334.235
	c0,7.822-5.883,10.99-7.628,11.766c-1.875,0.776-8.21,3.038-13.964-2.327c-102.982-94.319-135.887-104.598-182.949-114.424v-89.535
	c47.127-9.891,79.968-20.105,182.885-114.424c5.818-5.301,12.154-3.103,13.964-2.327c1.745,0.776,7.628,4.008,7.628,11.766v299.507
	H315.216z M77.511,370.76c-6.788-0.129-11.378-5.883-10.925-11.378l6.335-110.352H98.78c6.465,1.293,12.541,2.521,18.489,4.008
	l6.206,106.279c0.388,4.202-2.651,11.055-10.925,11.442L77.511,370.76L77.511,370.76z M21.786,205.459v-41.956
	c0-12.024,9.826-21.786,21.786-21.786h45.253v85.527H43.572C31.612,227.245,21.786,217.548,21.786,205.459z"/>
<g>
</g>
<g>
</g>
<g>
</g>
<g>
</g>
<g>
</g>
<g>
</g>
<g>
</g>
<g>
</g>
<g>
</g>
<g>
</g>
<g>
</g>
<g>
</g>
<g>
</g>
<g>
</g>
<g>
</g>
</svg>
