<?xml version="1.0" encoding="iso-8859-1"?>
<!-- Generator: Adobe Illustrator 19.0.0, SVG Export Plug-In . SVG Version: 6.00 Build 0)  -->
<svg version="1.1" id="Layer_1" xmlns="http://www.w3.org/2000/svg" xmlns:xlink="http://www.w3.org/1999/xlink" x="0px" y="0px"
	 viewBox="0 0 392.533 392.533" style="enable-background:new 0 0 392.533 392.533;" xml:space="preserve">
<path style="fill:#FFFFFF;" d="M154.634,207.41c21.915-29.931,57.859-47.968,97.616-47.968s75.701,18.036,97.681,47.838
	c13.511-19.653,20.881-42.861,20.881-66.974c0-65.293-53.139-118.432-118.562-118.432c-65.293,0-118.432,53.139-118.432,118.432
	C133.754,164.485,141.123,187.822,154.634,207.41z"/>
<path style="fill:#FFC10D;" d="M252.186,43.596c-31.16,0-58.828,14.804-76.477,37.818h11.766c6.012,0,10.925,4.848,10.925,10.925
	c0,6.012-4.848,10.925-10.925,10.925h-24.501c-2.521,6.206-4.461,12.671-5.689,19.394h9.438c6.012,0,10.925,4.848,10.925,10.925
	c0,6.012-4.848,10.925-10.925,10.925h-10.99c0.711,16.485,5.56,32.388,13.964,46.287c21.657-19.782,50.941-31.289,82.554-31.289
	s60.897,11.442,82.618,31.16c9.18-15.063,14.158-32.453,14.158-50.295C348.962,87.038,305.519,43.596,252.186,43.596z"/>
<path style="fill:#FFFFFF;" d="M252.186,70.877c-14.287,0-25.859,11.572-25.859,25.859s11.572,25.859,25.859,25.859
	s25.859-11.572,25.859-25.859S266.537,70.877,252.186,70.877z"/>
<path style="fill:#56ACE0;" d="M335.386,224.735c-17.261-26.57-49.002-43.507-83.135-43.507c-34.069,0-65.81,16.873-83.135,43.507
	c22.109,21.786,51.976,34.133,83.135,34.133S313.212,246.521,335.386,224.735z"/>
<path style="fill:#FFC10D;" d="M136.663,220.339L29.22,327.782c-9.826,9.826-9.826,25.729,0,35.556
	c9.826,9.826,25.729,9.826,35.556,0L172.347,255.83C158.384,246.198,146.36,234.174,136.663,220.339z"/>
<g>
	<path style="fill:#194F82;" d="M252.186,49.091c-26.246,0-47.709,21.398-47.709,47.709s21.398,47.709,47.709,47.709
		s47.709-21.398,47.709-47.709C299.895,70.424,278.497,49.091,252.186,49.091z M252.186,122.594
		c-14.287,0-25.859-11.572-25.859-25.859s11.572-25.859,25.859-25.859s25.859,11.572,25.859,25.859S266.537,122.594,252.186,122.594
		z"/>
	<path style="fill:#194F82;" d="M252.186,0.024c-77.382,0-140.347,62.901-140.347,140.347c0,21.075,4.784,41.632,13.705,60.38
		c-0.129,0-0.259,0.065-0.259,0.129L13.77,312.461c-18.36,18.295-18.36,48.032,0,66.327c18.295,18.295,48.032,18.295,66.392,0
		l111.644-111.644c0.323,0.129,0.646,0.259,0.905,0.388c0-0.065,0-0.129,0-0.259c18.489,8.663,38.723,13.317,59.475,13.317
		c64.517,0,140.347-52.105,140.347-140.347C392.533,62.925,329.568,0.024,252.186,0.024z M64.776,363.337
		c-9.826,9.891-25.729,9.891-35.556,0.065c-9.826-9.826-9.826-25.729,0-35.556l107.572-107.507
		c9.632,13.834,21.721,25.859,35.556,35.556L64.776,363.337z M252.186,258.869c-31.16,0-61.026-12.347-83.135-34.133
		c17.325-26.634,49.067-43.507,83.135-43.507s65.81,16.873,83.135,43.507C313.212,246.521,283.345,258.869,252.186,258.869z
		 M349.867,207.281c-21.85-29.802-57.923-47.838-97.681-47.838s-75.636,18.101-97.616,47.968
		c-13.511-19.653-20.945-42.99-20.945-67.103c0.065-65.358,53.139-118.562,118.562-118.562s118.562,53.139,118.562,118.432
		C370.747,164.356,363.313,187.628,349.867,207.281z"/>
</g>
<g>
</g>
<g>
</g>
<g>
</g>
<g>
</g>
<g>
</g>
<g>
</g>
<g>
</g>
<g>
</g>
<g>
</g>
<g>
</g>
<g>
</g>
<g>
</g>
<g>
</g>
<g>
</g>
<g>
</g>
</svg>
