<?xml version="1.0" encoding="iso-8859-1"?>
<!-- Generator: Adobe Illustrator 19.0.0, SVG Export Plug-In . SVG Version: 6.00 Build 0)  -->
<svg version="1.1" id="Layer_1" xmlns="http://www.w3.org/2000/svg" xmlns:xlink="http://www.w3.org/1999/xlink" x="0px" y="0px"
	 viewBox="0 0 512 512" style="enable-background:new 0 0 512 512;" xml:space="preserve">
<g>
	<path style="fill:#7F8383;" d="M103.656,318.822h-56.54c-5.205,0-9.423,4.218-9.423,9.423s4.218,9.423,9.423,9.423h47.117v52.456
		c0,26.5-21.559,48.059-48.059,48.059H9.423c-5.205,0-9.423,4.218-9.423,9.423s4.218,9.423,9.423,9.423h36.751
		c36.892,0,66.906-30.014,66.906-66.906v-61.88C113.08,323.039,108.862,318.822,103.656,318.822z"/>
	<path style="fill:#7F8383;" d="M336.098,161.766c-5.205,0-9.423-4.218-9.423-9.423c0-22.517-18.318-40.834-40.834-40.834
		c-5.205,0-9.423-4.218-9.423-9.423s4.218-9.423,9.423-9.423c32.907,0,59.681,26.774,59.681,59.681
		C345.521,157.548,341.304,161.766,336.098,161.766z"/>
	<path style="fill:#7F8383;" d="M94.233,237.153c-5.205,0-9.423-4.218-9.423-9.423v-75.386c0-5.205,4.218-9.423,9.423-9.423
		c5.205,0,9.423,4.218,9.423,9.423v75.386C103.656,232.935,99.439,237.153,94.233,237.153z"/>
</g>
<path style="fill:#5F6568;" d="M492.621,7.852h-56.007c-8.113,0-15.315,5.19-17.879,12.887l-64.7,194.104
	c-2.566,7.696-9.768,12.887-17.879,12.887H84.81c-10.408,0-18.847,8.438-18.847,18.847v72.058c0,10.408,8.438,18.847,18.847,18.847
	h232.418c21.632,0,40.838-13.842,47.678-34.365l85.291-257.571h42.956c10.711,0,19.335-8.935,18.825-19.758
	C511.501,15.651,502.769,7.852,492.621,7.852z"/>
<path style="fill:#6F7475;" d="M509.158,16.894c-3.449-5.458-9.663-9.041-16.536-9.041h-56.008c-8.113,0-15.315,5.19-17.879,12.887
	l-52.969,158.906l0,0c1.976,0.658,3.987,0.971,5.962,0.971c7.89,0,15.244-4.996,17.878-12.892l47.009-141.026h56.007
	C499.752,26.699,505.957,22.736,509.158,16.894z"/>
<path style="fill:#4E565A;" d="M65.963,301.86v16.775c0,10.408,8.438,18.847,18.847,18.847h232.418
	c21.632,0,40.838-13.843,47.678-34.365l0.416-1.256L65.963,301.86L65.963,301.86z"/>
<path style="fill:#47423F;" d="M65.963,152.343c0,10.408,8.438,18.847,18.847,18.847s18.847-8.438,18.847-18.847
	c0-17.32,14.091-31.411,31.411-31.411H285.84c10.408,0,18.847-8.438,18.847-18.847s-8.438-18.847-18.847-18.847L117.477,94.965
	L65.963,152.343z"/>
<path style="fill:#5B5751;" d="M135.067,102.085H285.84c6.972,0,13.044-3.796,16.305-9.423c-3.26-5.628-9.333-9.423-16.305-9.423
	H135.067c-38.104,0-69.104,31-69.104,69.104c0,6.972,3.796,13.044,9.423,16.305c5.628-3.26,9.423-9.333,9.423-16.305
	C84.81,124.631,107.355,102.085,135.067,102.085z"/>
<path style="fill:#393941;" d="M486.477,318.822H383.115c-8.955,0-13.44-10.827-7.108-17.159l73.366-73.366
	c3.68-3.681,3.68-9.647,0-13.327c-3.681-3.679-9.647-3.679-13.327,0l-73.366,73.366c-6.332,6.332-17.159,1.847-17.159-7.108V177.866
	c0-5.16-3.977-9.66-9.134-9.814c-5.336-0.16-9.712,4.119-9.712,9.42v103.756c0,8.955-10.827,13.44-17.159,7.108l-73.366-73.366
	c-3.681-3.679-9.647-3.679-13.327,0c-3.68,3.681-3.68,9.647,0,13.327l73.366,73.366c6.332,6.332,1.847,17.159-7.108,17.159H185.72
	c-5.16,0-9.66,3.977-9.814,9.134c-0.16,5.336,4.119,9.712,9.42,9.712h103.756c8.955,0,13.44,10.827,7.108,17.159l-73.366,73.366
	c-3.68,3.681-3.68,9.647,0,13.327c1.841,1.839,4.253,2.759,6.664,2.759c2.411,0,4.823-0.92,6.664-2.759l73.366-73.366
	c6.332-6.332,17.159-1.847,17.159,7.108v103.361c0,5.16,3.977,9.66,9.134,9.814c5.336,0.16,9.712-4.119,9.712-9.42V375.262
	c0-8.955,10.827-13.44,17.159-7.108l73.366,73.366c1.841,1.839,4.253,2.759,6.664,2.759c2.411,0,4.823-0.92,6.664-2.759
	c3.68-3.681,3.68-9.647,0-13.327l-73.366-73.366c-6.332-6.332-1.847-17.159,7.108-17.159h103.753c5.301,0,9.578-4.375,9.42-9.712
	C496.136,322.798,491.637,318.822,486.477,318.822z"/>
<circle style="fill:#46475A;" cx="334.729" cy="329.614" r="18.847"/>
<path style="fill:#C1BDAB;" d="M336.098,152.343c-97.148,0-175.902,78.754-175.902,175.902s78.754,175.902,175.902,175.902
	S512,425.393,512,328.245S433.246,152.343,336.098,152.343z M336.098,466.453c-76.208,0-138.209-62-138.209-138.209
	s62-138.209,138.209-138.209s138.209,62,138.209,138.209S412.306,466.453,336.098,466.453z"/>
<path style="fill:#E7E4CD;" d="M225.724,465.2c6.652-7.4,6.439-18.783-0.68-25.9c-29.665-29.663-46.001-69.102-46.001-111.054
	c0-86.6,70.455-157.055,157.055-157.055c10.07,0,18.272-7.906,18.796-17.846c-6.177-0.656-12.446-1-18.796-1
	c-97.148,0-175.902,78.754-175.902,175.902C160.196,383.589,185.764,432.954,225.724,465.2z"/>
<path style="fill:#ADA999;" d="M446.303,191.137c-6.678,7.429-6.557,17.757,0.591,24.904
	c29.783,29.781,46.184,69.378,46.184,111.499c0,86.947-70.738,157.685-157.685,157.685c-10.111,0-18.347,7.937-18.872,17.918
	c6.201,0.658,12.495,1.005,18.872,1.005c97.538,0,176.607-79.069,176.607-176.607C512,271.974,486.421,223.51,446.303,191.137z"/>
<circle style="fill:#C1BDAB;" cx="103.656" cy="447.607" r="56.54"/>
<path style="fill:#393941;" d="M103.656,466.453c-10.392,0-18.847-8.455-18.847-18.847c0-10.392,8.455-18.847,18.847-18.847
	s18.847,8.455,18.847,18.847C122.503,457.999,114.048,466.453,103.656,466.453z"/>
<path style="fill:#46475A;" d="M84.81,447.607c0,1.901,0.289,3.735,0.814,5.468c1.731,0.525,3.566,0.814,5.468,0.814
	c10.392,0,18.847-8.455,18.847-18.847c0-1.901-0.289-3.735-0.814-5.468c-1.731-0.525-3.566-0.814-5.468-0.814
	C93.264,428.76,84.81,437.215,84.81,447.607z"/>
<path style="fill:#E7E4CD;" d="M103.656,391.067c-31.226,0-56.54,25.314-56.54,56.54c0,22.392,13.018,41.741,31.899,50.898
	c5.251-7.359,4.594-17.638-2.012-24.243c-7.119-7.122-11.04-16.588-11.04-26.655c0-20.784,16.909-37.693,37.693-37.693
	c9.338,0,17.069-6.799,18.565-15.712C116.404,392.18,110.162,391.067,103.656,391.067z"/>
<path style="fill:#ADA999;" d="M103.656,504.147c31.226,0,56.54-25.314,56.54-56.54c0-22.392-13.018-41.741-31.899-50.898
	c-5.251,7.359-4.594,17.638,2.012,24.243c7.119,7.122,11.04,16.588,11.04,26.655c0,20.784-16.909,37.693-37.693,37.693
	c-9.338,0-17.069,6.799-18.565,15.712C90.909,503.034,97.151,504.147,103.656,504.147z"/>
<g>
</g>
<g>
</g>
<g>
</g>
<g>
</g>
<g>
</g>
<g>
</g>
<g>
</g>
<g>
</g>
<g>
</g>
<g>
</g>
<g>
</g>
<g>
</g>
<g>
</g>
<g>
</g>
<g>
</g>
</svg>
