<?xml version="1.0" encoding="iso-8859-1"?>
<!-- Generator: Adobe Illustrator 19.0.0, SVG Export Plug-In . SVG Version: 6.00 Build 0)  -->
<svg version="1.1" id="Layer_1" xmlns="http://www.w3.org/2000/svg" xmlns:xlink="http://www.w3.org/1999/xlink" x="0px" y="0px"
	 viewBox="0 0 480.004 480.004" style="enable-background:new 0 0 480.004 480.004;" xml:space="preserve">
<g>
	<path style="fill:#F9BA48;" d="M448.198,84.28l-8.192-8.576c-44.08-46.184-117.352-47.6-163.192-3.16l-36.816,35.696
		l-36.816-35.696C157.342,28.096,84.07,29.52,39.99,75.704l-8.184,8.576c-44.008,46.104-42.112,119.208,4.224,162.968l43.032,40.64
		h55.96l59.928-169.792c3.112-8.824,15.872-7.968,17.776,1.192L247.958,288.4l34.328-80.096c3.432-8,15.008-7.264,17.392,1.104
		l22.424,78.488h78.84l43.032-40.64C490.31,203.488,492.206,130.384,448.198,84.28z"/>
	<path style="fill:#F9BA48;" d="M375.534,311.888h-71.528l-16-56l-36.432,85.008c-3.56,8.312-15.712,7.096-17.56-1.76
		l-34.008-163.248l-48,136h-47.528l25.408,24l110.12,104l110.12-104L375.534,311.888z"/>
</g>
<g>
	<path style="fill:#333333;" d="M245.31,314.896L204.902,120.92c-0.072-0.328-0.192-0.928-1.144-0.992
		c-0.92-0.136-1.152,0.512-1.256,0.824l-61.824,175.136H79.062v-16h50.304l58.04-164.456c2.6-7.384,9.72-12.016,17.416-11.472
		c7.824,0.52,14.144,6.024,15.744,13.696l30.048,144.24l24.328-56.752c2.904-6.792,9.632-10.864,16.928-10.416
		c7.392,0.464,13.48,5.36,15.504,12.48l20.76,72.68h72.816v16h-84.88L291.982,211.6c-0.072-0.256-0.24-0.848-1.12-0.904
		c-0.968-0.088-1.112,0.488-1.224,0.744L245.31,314.896z"/>
	<path style="fill:#333333;" d="M243.182,354.504c-0.6,0-1.208-0.024-1.832-0.088c-7.648-0.768-13.6-6.12-15.168-13.648
		L198.006,205.56l-40.344,114.328H11.998v-16h134.344l55.648-157.672l39.848,191.288c0.064,0.296,0.184,0.896,1.104,0.992
		c0.936,0.128,1.16-0.48,1.272-0.752l45.288-105.688l20.52,71.832H467.99v16H297.966l-11.48-40.168l-27.568,64.328
		C256.142,350.544,250.086,354.504,243.182,354.504z"/>
	<rect x="415.974" y="183.888" style="fill:#333333;" width="16" height="16"/>
	<rect x="383.974" y="183.888" style="fill:#333333;" width="16" height="16"/>
	<rect x="351.974" y="183.888" style="fill:#333333;" width="16" height="16"/>
	<rect x="111.974" y="183.888" style="fill:#333333;" width="16" height="16"/>
	<rect x="79.974" y="183.888" style="fill:#333333;" width="16" height="16"/>
	<rect x="47.974" y="183.888" style="fill:#333333;" width="16" height="16"/>
</g>
<g>
</g>
<g>
</g>
<g>
</g>
<g>
</g>
<g>
</g>
<g>
</g>
<g>
</g>
<g>
</g>
<g>
</g>
<g>
</g>
<g>
</g>
<g>
</g>
<g>
</g>
<g>
</g>
<g>
</g>
</svg>
