<?xml version="1.0" encoding="iso-8859-1"?>
<!-- Generator: Adobe Illustrator 19.0.0, SVG Export Plug-In . SVG Version: 6.00 Build 0)  -->
<svg version="1.1" id="Layer_1" xmlns="http://www.w3.org/2000/svg" xmlns:xlink="http://www.w3.org/1999/xlink" x="0px" y="0px"
	 viewBox="0 0 512.411 512.411" style="enable-background:new 0 0 512.411 512.411;" xml:space="preserve">
<path style="fill:#40596B;" d="M466.846,299.077c0-3.2-2.133-19.2-12.8-39.467c-11.733-128-77.867-193.067-91.733-205.867
	c-8.533-21.333-23.467-38.4-44.8-48c-28.8-12.8-50.133-2.133-61.867,11.733c-12.8-12.8-33.067-23.467-61.867-11.733
	c-21.333,9.6-37.333,26.667-44.8,48c-13.867,12.8-80,77.867-90.667,205.867c-10.667,19.2-12.8,36.267-12.8,39.467
	c-3.2,30.933-2.133,59.733,4.267,86.4c14.933,59.733,60.8,106.667,120.533,122.667c11.733,3.2,21.333,4.267,30.933,4.267
	c28.8,0,45.867-12.8,55.467-24.533c9.6,11.733,26.667,24.533,55.467,24.533c8.533,0,19.2-1.067,30.933-4.267
	c59.733-16,105.6-62.933,120.533-122.667C468.979,358.811,470.046,328.944,466.846,299.077z"/>
<g>
	<path style="fill:#FF7058;" d="M175.646,486.811c-51.2-13.867-91.733-54.4-104.533-106.667c-6.4-24.533-7.467-51.2-4.267-78.933
		v-1.067c0-1.067,1.067-13.867,10.667-30.933c0-1.067,1.067-1.067,1.067-2.133c7.467-12.8,21.333-27.733,43.733-41.6
		c5.333-3.2,7.467-9.6,4.267-14.933c-3.2-5.333-9.6-7.467-14.933-4.267c-10.667,6.4-19.2,12.8-26.667,19.2
		c11.733-65.067,39.467-108.8,58.667-133.333c0,3.2,0,6.4,1.067,8.533c1.067,6.4,6.4,10.667,12.8,9.6c6.4-1.067,10.667-6.4,9.6-12.8
		c0-4.267-1.067-8.533-1.067-11.733c-1.067-26.667,14.933-51.2,37.333-60.8c25.6-10.667,38.4,6.4,41.6,12.8v155.733
		c-9.6-9.6-19.2-13.867-20.267-13.867c-5.333-2.133-11.733,0-14.933,5.333c-2.133,5.333,0,11.733,5.333,14.933
		c0,0,28.8,13.867,28.8,48v80c-6.4,8.533-27.733,36.267-57.6,39.467c-21.333,2.133-43.733-9.6-65.067-35.2
		c-4.267-4.267-10.667-5.333-16-1.067c-4.267,4.267-5.333,10.667-1.067,16c19.2,21.333,38.4,35.2,58.667,40.533
		c-8.533,29.867,11.733,55.467,24.533,66.133c2.133,1.067,4.267,2.133,6.4,2.133c3.2,0,6.4-1.067,8.533-4.267
		c4.267-5.333,3.2-11.733-2.133-16c-1.067-1.067-25.6-20.267-16-45.867c1.067,0,1.067,0,2.133,0
		c23.467-2.133,42.667-14.933,55.467-27.733v102.4C241.779,472.944,225.779,499.611,175.646,486.811z"/>
	<path style="fill:#FF7058;" d="M440.179,380.144c-12.8,52.267-53.333,92.8-104.533,106.667
		c-50.133,12.8-66.133-13.867-69.333-21.333v-102.4c12.8,12.8,32,25.6,55.467,27.733c1.067,0,1.067,0,2.133,0
		c9.6,25.6-14.933,45.867-16,45.867c-5.333,4.267-5.333,10.667-2.133,16c2.133,3.2,5.333,4.267,8.533,4.267
		c2.133,0,4.267-1.067,6.4-2.133c12.8-10.667,33.067-35.2,24.533-66.133c20.267-5.333,40.533-18.133,58.667-40.533
		c4.267-4.267,3.2-11.733-1.067-16c-4.267-4.267-11.733-3.2-16,1.067c-22.4,24.533-43.733,36.267-65.067,35.2
		c-29.867-2.133-52.267-30.933-57.6-39.467v-80c0-34.133,27.733-46.933,28.8-48c5.333-2.133,8.533-9.6,5.333-14.933
		c-2.133-5.333-9.6-8.533-14.933-5.333c-1.067,0-10.667,4.267-20.267,13.867V39.877c7.467-7.467,20.267-24.533,45.867-13.867
		c23.467,10.667,38.4,35.2,37.333,60.8c0,4.267,0,7.467-1.067,11.733c-1.067,6.4,3.2,11.733,9.6,12.8c6.4,1.067,11.733-3.2,12.8-9.6
		c0-3.2,1.067-6.4,1.067-9.6c19.2,24.533,46.933,68.267,58.667,133.333c-7.467-6.4-16-12.8-26.667-19.2
		c-5.333-3.2-11.733-1.067-14.933,4.267c-3.2,5.333-1.067,11.733,4.267,14.933c22.4,12.8,36.267,27.733,43.733,41.6
		c0,1.067,1.067,1.067,1.067,2.133c9.6,17.067,10.667,29.867,10.667,29.867v1.067C447.646,328.944,446.579,355.611,440.179,380.144z
		"/>
</g>
<g>
	<path style="fill:#40596B;" d="M387.912,278.811c-33.067-13.867-49.067-36.267-43.733-64c5.333-24.533,25.6-42.667,39.467-42.667
		c6.4,0,10.667-5.333,10.667-10.667c0-6.4-5.333-10.667-10.667-10.667c-12.8,0-25.6,6.4-36.267,16
		c-38.4-40.533-30.933-97.067-30.933-98.133c1.067-6.4-3.2-11.733-9.6-12.8c-6.4-1.067-11.733,3.2-12.8,9.6
		c0,3.2-9.6,70.4,38.4,118.4c-5.333,8.533-8.533,17.067-10.667,26.667c-4.267,20.267,0,39.467,11.733,54.4
		c-7.467,24.533-30.933,32-33.067,32c-6.4,2.133-9.6,7.467-7.467,13.867c1.067,5.333,5.333,8.533,10.667,8.533
		c1.067,0,2.133,0,3.2,0c1.067,0,29.867-8.533,43.733-36.267c7.467,6.4,17.067,11.733,27.733,16c1.067,1.067,3.2,1.067,4.267,1.067
		c4.267,0,8.533-2.133,10.667-6.4C396.446,288.411,393.246,282.011,387.912,278.811z"/>
	<path style="fill:#40596B;" d="M127.646,300.144c1.067,0,3.2,0,4.267-1.067c10.667-4.267,20.267-9.6,27.733-16
		c13.867,27.733,42.667,36.267,43.733,36.267c1.067,0,2.133,0,3.2,0c5.333,0,9.6-3.2,10.667-8.533
		c1.067-6.4-2.133-11.733-7.467-13.867c0,0-25.6-7.467-32-32c11.733-16,16-35.2,11.733-54.4c-2.133-9.6-5.333-19.2-10.667-26.667
		c49.067-49.067,39.467-116.267,38.4-118.4c-1.067-6.4-6.4-10.667-12.8-9.6c-6.4,1.067-10.667,6.4-9.6,12.8
		c0,1.067,7.467,57.6-30.933,98.133c-10.667-9.6-23.467-16-36.267-16c-6.4,0-10.667,5.333-10.667,10.667
		c0,6.4,5.333,10.667,10.667,10.667c13.867,0,34.133,19.2,39.467,42.667c5.333,26.667-9.6,49.067-43.733,64
		c-5.333,2.133-8.533,8.533-6.4,14.933C119.112,298.011,123.379,300.144,127.646,300.144z"/>
</g>
<g>
</g>
<g>
</g>
<g>
</g>
<g>
</g>
<g>
</g>
<g>
</g>
<g>
</g>
<g>
</g>
<g>
</g>
<g>
</g>
<g>
</g>
<g>
</g>
<g>
</g>
<g>
</g>
<g>
</g>
</svg>
