<?xml version="1.0" encoding="iso-8859-1"?>
<!-- Generator: Adobe Illustrator 19.0.0, SVG Export Plug-In . SVG Version: 6.00 Build 0)  -->
<svg version="1.1" id="Layer_1" xmlns="http://www.w3.org/2000/svg" xmlns:xlink="http://www.w3.org/1999/xlink" x="0px" y="0px"
	 viewBox="0 0 512 512" style="enable-background:new 0 0 512 512;" xml:space="preserve">
<path style="fill:#FFA6B7;" d="M512,109.308v173.36H180.43c-4.66-43.75-20.27-108.49-71.95-108.49h-0.01
	c-51.66,0.01-67.27,64.74-71.93,108.49H0v-173.36H512z"/>
<rect x="256.84" y="109.31" style="fill:#FF738D;" width="255.16" height="173.36"/>
<g>
	<path style="fill:#787780;" d="M51.643,284.277l-29.831-3.179c0.565-5.304,1.249-10.549,2.033-15.589l29.644,4.608
		C52.778,274.685,52.157,279.449,51.643,284.277z"/>
	<path style="fill:#787780;" d="M58.993,244.061l-28.911-8.01c2.989-10.788,6.628-20.605,10.818-29.176l26.952,13.175
		C64.471,226.967,61.491,235.046,58.993,244.061z M158.31,243.926c-2.504-9.013-5.492-17.085-8.88-23.995l26.935-13.211
		c4.202,8.568,7.853,18.384,10.851,29.176L158.31,243.926z M81.011,200.809l-21.202-21.225c8.976-8.966,19.389-15.054,30.948-18.094
		l7.63,29.014C91.939,192.2,86.255,195.571,81.011,200.809z M136.247,200.727c-5.25-5.219-10.939-8.571-17.393-10.248l7.545-29.036
		c11.575,3.008,22.004,9.067,30.999,18.009L136.247,200.727z"/>
	<path style="fill:#787780;" d="M165.691,284.241c-0.515-4.821-1.136-9.586-1.848-14.163l29.645-4.606
		c0.784,5.047,1.468,10.29,2.033,15.585L165.691,284.241z"/>
</g>
<path style="fill:#E0E0E3;" d="M466.551,346.628l-0.7,0.66c-6.52,6.32-15.239,9.85-24.319,9.85h-76.697
	c-9.48,0-18.559-3.85-25.139-10.67c-6.64-6.86-10.16-16.129-9.81-25.659c1.42-37.789,11.21-132.345,73.647-132.355h0.01
	c62.088,0,72.117,93.466,73.627,131.685C477.561,330.079,473.691,339.709,466.551,346.628z"/>
<path style="fill:#C7C5CC;" d="M466.551,346.628l-0.7,0.66c-6.52,6.32-15.239,9.85-24.319,9.85h-37.999V188.455h0.01
	c62.088,0,72.117,93.466,73.627,131.685C477.561,330.079,473.691,339.709,466.551,346.628z"/>
<path style="fill:#E0E0E3;" d="M319.856,346.628l-0.7,0.66c-6.52,6.32-15.239,9.85-24.319,9.85H218.14
	c-9.48,0-18.559-3.85-25.139-10.67c-6.64-6.86-10.16-16.129-9.81-25.659c1.42-37.789,11.21-132.345,73.647-132.355h0.01
	c62.088,0,72.117,93.466,73.627,131.685C330.866,330.079,326.996,339.709,319.856,346.628z"/>
<path style="fill:#C7C5CC;" d="M319.856,346.628l-0.7,0.66c-6.52,6.32-15.239,9.85-24.319,9.85h-37.999V188.455h0.01
	c62.088,0,72.117,93.466,73.627,131.685C330.866,330.079,326.996,339.709,319.856,346.628z"/>
<path id="SVGCleanerId_0" style="fill:#E0E0E3;" d="M171.491,392.182l-0.7,0.66c-6.52,6.32-15.239,9.85-24.319,9.85H69.775
	c-9.48,0-18.559-3.85-25.139-10.67c-6.64-6.86-10.16-16.129-9.81-25.659c1.42-37.789,11.21-132.345,73.647-132.355h0.01
	c62.088,0,72.117,93.466,73.627,131.685C182.501,375.633,178.631,385.263,171.491,392.182z"/>
<path id="SVGCleanerId_1" style="fill:#C7C5CC;" d="M171.491,392.182l-0.7,0.66c-6.52,6.32-15.239,9.85-24.319,9.85h-37.999V234.008
	h0.01c62.088,0,72.117,93.466,73.627,131.685C182.501,375.633,178.631,385.263,171.491,392.182z"/>
<g>
	<path id="SVGCleanerId_0_1_" style="fill:#E0E0E3;" d="M171.491,392.182l-0.7,0.66c-6.52,6.32-15.239,9.85-24.319,9.85H69.775
		c-9.48,0-18.559-3.85-25.139-10.67c-6.64-6.86-10.16-16.129-9.81-25.659c1.42-37.789,11.21-132.345,73.647-132.355h0.01
		c62.088,0,72.117,93.466,73.627,131.685C182.501,375.633,178.631,385.263,171.491,392.182z"/>
</g>
<g>
	<path id="SVGCleanerId_1_1_" style="fill:#C7C5CC;" d="M171.491,392.182l-0.7,0.66c-6.52,6.32-15.239,9.85-24.319,9.85h-37.999
		V234.008h0.01c62.088,0,72.117,93.466,73.627,131.685C182.501,375.633,178.631,385.263,171.491,392.182z"/>
</g>
<g>
</g>
<g>
</g>
<g>
</g>
<g>
</g>
<g>
</g>
<g>
</g>
<g>
</g>
<g>
</g>
<g>
</g>
<g>
</g>
<g>
</g>
<g>
</g>
<g>
</g>
<g>
</g>
<g>
</g>
</svg>
