<?xml version="1.0" encoding="iso-8859-1"?>
<!-- Generator: Adobe Illustrator 19.0.0, SVG Export Plug-In . SVG Version: 6.00 Build 0)  -->
<svg version="1.1" id="Layer_1" xmlns="http://www.w3.org/2000/svg" xmlns:xlink="http://www.w3.org/1999/xlink" x="0px" y="0px"
	 viewBox="0 0 512 512" style="enable-background:new 0 0 512 512;" xml:space="preserve">
<rect x="55.744" y="176.53" style="fill:#FFA6B7;" width="30" height="52"/>
<rect x="71.07" y="176.53" style="fill:#FF738D;" width="14.67" height="52"/>
<path style="fill:#FFA6B7;" d="M512,101.65v115.63c0,106.46-86.61,193.07-193.06,193.07H193.06C86.61,410.35,0,323.74,0,217.28
	V101.65H512z"/>
<path style="fill:#FF738D;" d="M512,101.65v115.63c0,106.46-86.61,193.07-193.06,193.07h-64.82v-308.7
	C254.12,101.65,512,101.65,512,101.65z"/>
<path style="fill:#E0E0E3;" d="M244.468,253.822l-0.607,0.572c-5.654,5.48-13.215,8.542-21.089,8.542H156.26
	c-8.221,0-16.094-3.339-21.8-9.253c-5.758-5.949-8.81-13.987-8.507-22.251c1.231-32.77,9.721-114.769,63.866-114.778h0.009
	c53.842,0,62.54,81.054,63.849,114.197C254.015,239.47,250.659,247.821,244.468,253.822z"/>
<path style="fill:#C7C5CC;" d="M244.468,253.822l-0.607,0.572c-5.654,5.48-13.215,8.542-21.089,8.542H189.82V116.654h0.009
	c53.842,0,62.54,81.054,63.849,114.197C254.015,239.47,250.659,247.821,244.468,253.822z"/>
<path style="fill:#E0E0E3;" d="M372.606,253.822l-0.607,0.572c-5.654,5.48-13.216,8.542-21.089,8.542h-66.511
	c-8.221,0-16.094-3.339-21.8-9.253c-5.758-5.949-8.81-13.987-8.507-22.251c1.231-32.77,9.721-114.769,63.866-114.778h0.009
	c53.842,0,62.54,81.054,63.849,114.197C382.153,239.47,378.798,247.821,372.606,253.822z"/>
<path style="fill:#C7C5CC;" d="M372.606,253.822l-0.607,0.572c-5.654,5.48-13.216,8.542-21.089,8.542h-32.952V116.654h0.009
	c53.842,0,62.54,81.054,63.849,114.197C382.153,239.47,378.798,247.821,372.606,253.822z"/>
<path style="fill:#E0E0E3;" d="M483.808,235.329l-0.526,0.496c-4.896,4.745-11.443,7.396-18.26,7.396h-57.59
	c-7.118,0-13.936-2.891-18.876-8.011c-4.986-5.151-7.629-12.111-7.366-19.267c1.066-28.374,8.417-99.374,55.3-99.382h0.007
	c46.62,0,54.151,70.182,55.285,98.879C492.075,222.902,489.169,230.133,483.808,235.329z"/>
<path style="fill:#C7C5CC;" d="M483.808,235.329l-0.526,0.496c-4.896,4.745-11.443,7.396-18.26,7.396H436.49V116.56h0.007
	c46.62,0,54.151,70.182,55.285,98.879C492.075,222.902,489.169,230.133,483.808,235.329z"/>
<path style="fill:#E0E0E3;" d="M118.39,235.329l-0.526,0.496c-4.896,4.745-11.443,7.396-18.26,7.396h-57.59
	c-7.118,0-13.936-2.891-18.876-8.011c-4.986-5.151-7.629-12.111-7.366-19.267c1.066-28.374,8.417-99.374,55.3-99.382h0.007
	c46.62,0,54.151,70.182,55.285,98.879C126.657,222.902,123.751,230.133,118.39,235.329z"/>
<path style="fill:#C7C5CC;" d="M118.39,235.329l-0.526,0.496c-4.896,4.745-11.443,7.396-18.26,7.396H71.072V116.56h0.007
	c46.62,0,54.151,70.182,55.285,98.879C126.657,222.902,123.751,230.133,118.39,235.329z"/>
<rect y="174.75" style="fill:#ADACB2;" width="512" height="30"/>
<rect y="189.41" style="fill:#8A8791;" width="512" height="15.333"/>
<rect x="174.48" y="163.75" style="fill:#FFA6B7;" width="30" height="52"/>
<rect x="189.81" y="163.75" style="fill:#FF738D;" width="14.67" height="52"/>
<rect x="302.63" y="163.75" style="fill:#FFA6B7;" width="30" height="52"/>
<rect x="317.96" y="163.75" style="fill:#FF738D;" width="14.67" height="52"/>
<rect x="421.16" y="163.75" style="fill:#FFA6B7;" width="30" height="52"/>
<rect x="436.49" y="163.75" style="fill:#FF738D;" width="14.67" height="52"/>
<g>
</g>
<g>
</g>
<g>
</g>
<g>
</g>
<g>
</g>
<g>
</g>
<g>
</g>
<g>
</g>
<g>
</g>
<g>
</g>
<g>
</g>
<g>
</g>
<g>
</g>
<g>
</g>
<g>
</g>
</svg>
