<?xml version="1.0" encoding="iso-8859-1"?>
<!-- Generator: Adobe Illustrator 19.0.0, SVG Export Plug-In . SVG Version: 6.00 Build 0)  -->
<svg version="1.1" id="Layer_1" xmlns="http://www.w3.org/2000/svg" xmlns:xlink="http://www.w3.org/1999/xlink" x="0px" y="0px"
	 viewBox="0 0 512 512" style="enable-background:new 0 0 512 512;" xml:space="preserve">
<rect x="262" y="163.865" style="fill:#E0E0E3;" width="225.72" height="155.74"/>
<rect x="374.86" y="163.865" style="fill:#C7C5CC;" width="112.86" height="155.74"/>
<path style="fill:#FF633E;" d="M512,289.605v72.36c0,29.65-28.09,53.78-62.61,53.78H0v-96h223v-30.14H512z"/>
<rect x="98.5" y="319.746" style="fill:#FFDAA7;" width="57" height="96.01"/>
<path style="fill:#FF3100;" d="M374.86,289.605H512v72.36c0,29.65-28.09,53.78-62.61,53.78h-74.53L374.86,289.605L374.86,289.605z"
	/>
<g>
	<rect x="262" y="192.135" style="fill:#787780;" width="30" height="97.47"/>
	<rect x="326.83" y="192.135" style="fill:#787780;" width="30" height="97.47"/>
</g>
<g>
	<rect x="392.42" y="192.135" style="fill:#57555C;" width="30" height="97.47"/>
	<rect x="457.72" y="192.135" style="fill:#57555C;" width="30" height="97.47"/>
</g>
<path style="fill:#00DDC0;" d="M512,140.854v53.01H274.31c-24.6,0-44.61-20.02-44.61-44.62v-53h237.68
	C491.99,96.245,512,116.255,512,140.854z"/>
<path style="fill:#00AC93;" d="M512,140.854v53.01H374.86v-97.62h92.52C491.99,96.245,512,116.255,512,140.854z"/>
<g>
</g>
<g>
</g>
<g>
</g>
<g>
</g>
<g>
</g>
<g>
</g>
<g>
</g>
<g>
</g>
<g>
</g>
<g>
</g>
<g>
</g>
<g>
</g>
<g>
</g>
<g>
</g>
<g>
</g>
</svg>
