<?xml version="1.0" encoding="iso-8859-1"?>
<!-- Generator: Adobe Illustrator 19.0.0, SVG Export Plug-In . SVG Version: 6.00 Build 0)  -->
<svg version="1.1" id="Layer_1" xmlns="http://www.w3.org/2000/svg" xmlns:xlink="http://www.w3.org/1999/xlink" x="0px" y="0px"
	 viewBox="0 0 512.001 512.001" style="enable-background:new 0 0 512.001 512.001;" xml:space="preserve">
<g>
	<path style="fill:#E0E0E3;" d="M448.371,246.589h-0.01c-1.75,2.59-3.54,5.32-5.3,8.13l-4.41,7.01H73.369l-4.41-7
		c-1.74-2.77-3.51-5.47-5.25-8.03c-32.79-48.17-41.74-107.781-23.95-159.471c13.54-39.36,41.22-68.32,75.95-79.45
		c65.46-20.99,119.361,5.73,140.291,18.81c20.93-13.08,74.83-39.8,140.291-18.81c34.71,11.13,62.39,40.07,75.94,79.4
		C490.021,138.838,481.101,198.429,448.371,246.589z"/>
	<path style="fill:#E0E0E3;" d="M425.511,293.329l-14.43,22.97c-15.38,24.48-25.11,50.66-28.93,77.81
		c-0.23,1.64-0.46,3.32-0.68,5.03c-9.28,72.01-28.1,109.941-55.94,112.721c-0.94,0.09-1.87,0.14-2.79,0.14
		c-15.48,0-28.2-13.29-37.83-39.57c-6.82-18.61-12.2-43.51-15.13-70.09c-1.98-17.92-6.75-27.81-10.41-32.96
		c-1.07-1.51-2.57-1.73-3.37-1.73c-0.8,0-2.3,0.22-3.37,1.73c-3.66,5.15-8.43,15.04-10.41,32.96c-2.93,26.58-8.3,51.48-15.13,70.09
		c-10.2,27.84-23.86,41.1-40.62,39.43c-27.83-2.78-46.65-40.71-55.94-112.721c-0.23-1.78-0.46-3.52-0.7-5.22
		c-3.83-27.12-13.55-53.23-28.89-77.61l-14.46-22.98H425.511z"/>
</g>
<g>
	<path style="fill:#C7C5CC;" d="M256,293.329h169.511l-14.43,22.97c-15.38,24.48-25.11,50.66-28.93,77.81
		c-0.23,1.64-0.46,3.32-0.68,5.03c-9.28,72.01-28.1,109.941-55.94,112.721c-0.94,0.09-1.87,0.14-2.79,0.14
		c-15.48,0-28.2-13.29-37.83-39.57c-6.82-18.61-12.2-43.51-15.13-70.09c-1.98-17.92-6.75-27.81-10.41-32.96
		c-1.07-1.51-2.57-1.73-3.37-1.73V293.329z"/>
	<path style="fill:#C7C5CC;" d="M448.371,246.589h-0.01c-1.75,2.59-3.54,5.32-5.3,8.13l-4.41,7.01H256V26.588
		c20.93-13.08,74.83-39.8,140.291-18.81c34.71,11.13,62.39,40.07,75.94,79.4C490.021,138.838,481.101,198.429,448.371,246.589z"/>
</g>
<g>
</g>
<g>
</g>
<g>
</g>
<g>
</g>
<g>
</g>
<g>
</g>
<g>
</g>
<g>
</g>
<g>
</g>
<g>
</g>
<g>
</g>
<g>
</g>
<g>
</g>
<g>
</g>
<g>
</g>
</svg>
