<?xml version="1.0" encoding="iso-8859-1"?>
<!-- Generator: Adobe Illustrator 19.0.0, SVG Export Plug-In . SVG Version: 6.00 Build 0)  -->
<svg version="1.1" id="Layer_1" xmlns="http://www.w3.org/2000/svg" xmlns:xlink="http://www.w3.org/1999/xlink" x="0px" y="0px"
	 viewBox="0 0 361.412 361.412" style="enable-background:new 0 0 361.412 361.412;" xml:space="preserve">
<path style="fill:#EBF0F3;" d="M264.931,284.311c-1.205-5.421-0.602-11.445,1.205-16.866c12.047-25.901,18.071-56.621,18.071-82.522
	c0-57.224-46.381-103.605-103.605-103.605c-54.212,0-98.786,41.562-103.605,93.967c0,2.409-1.205,4.216-3.012,6.024
	c-2.409,2.409-4.216,4.819-4.216,7.831c0,2.409,1.205,4.216,2.409,6.024c2.409,3.012,3.012,6.626,1.205,10.24l-24.094,45.779
	c-3.012,5.421,1.205,12.649,7.228,12.649h9.638c3.614,0,7.228,2.409,7.831,6.024c1.807,6.024,2.409,14.456-4.819,20.48
	c0,0-4.819,6.024,6.626,7.831c0,0-10.24,4.819-6.626,8.433c0,0,4.819,0.602,8.433,4.216l-1.807,9.035
	c-2.409,9.035,4.819,17.468,13.854,15.661l33.129-5.421c13.854-2.409,26.504,6.626,28.913,20.48l2.409,10.842l119.266-44.574
	L264.931,284.311z"/>
<path style="fill:#3A556A;" d="M154.701,180.104c1.205,1.205,2.409,3.012,3.614,3.614c1.807,1.205,4.216,1.205,6.024,1.205
	c8.433,0.602,16.866,1.807,24.696,2.409c5.421,0.602,11.445,1.205,16.866,3.614c6.024,3.012,10.24,8.433,12.047,14.456
	c0.602,3.012,1.205,6.024,1.807,8.433c1.205,3.012,3.614,5.421,6.024,5.421c0-6.024,0-11.445,0-17.468
	c7.228,0.602,14.456,0,21.685-1.807c5.421-1.205,10.842-4.216,12.649-9.035c0.602-1.807,0.602-4.216,1.807-6.626
	c1.205-3.012,4.819-4.216,6.626-6.626c1.807-2.409,1.807-5.421,2.409-8.433c0.602-7.228,0.602-15.661-4.216-21.082
	c-3.012-3.012-6.626-4.216-9.638-7.228c-3.614-3.614-5.421-9.035-7.831-14.456c-5.421-10.842-15.661-18.673-27.106-22.889
	c-11.445-4.216-24.094-5.421-36.141-6.024c-7.831-0.602-15.661-0.602-23.492,0.602c-7.831,1.205-15.059,4.819-22.889,7.831
	c-9.035,4.216-18.673,9.035-25.901,16.264c-7.228,7.228-12.047,17.468-10.24,27.708c0.602,2.409,1.205,4.819,2.409,6.024
	c2.409,2.409,5.421,3.614,8.433,4.216c4.216,1.205,8.433,1.807,13.252,1.807c3.012,0,7.228-1.205,10.842-0.602
	C145.063,164.442,150.484,175.285,154.701,180.104z"/>
<g>
	<polygon style="fill:#E56353;" points="267.943,73.487 295.049,34.334 295.049,65.656 313.12,65.656 286.014,104.809 
		286.014,73.487 	"/>
	<polygon style="fill:#E56353;" points="117.957,61.44 90.851,22.287 90.851,53.609 72.781,53.609 100.489,92.762 100.489,61.44 	
		"/>
	<polygon style="fill:#E56353;" points="178.795,45.779 191.444,0 201.684,29.515 219.153,23.492 205.901,69.873 195.661,40.358 	
		"/>
</g>
<g>
</g>
<g>
</g>
<g>
</g>
<g>
</g>
<g>
</g>
<g>
</g>
<g>
</g>
<g>
</g>
<g>
</g>
<g>
</g>
<g>
</g>
<g>
</g>
<g>
</g>
<g>
</g>
<g>
</g>
</svg>
