<?xml version="1.0" encoding="iso-8859-1"?>
<!-- Generator: Adobe Illustrator 19.0.0, SVG Export Plug-In . SVG Version: 6.00 Build 0)  -->
<svg version="1.1" id="Layer_1" xmlns="http://www.w3.org/2000/svg" xmlns:xlink="http://www.w3.org/1999/xlink" x="0px" y="0px"
	 viewBox="0 0 482.184 482.184" style="enable-background:new 0 0 482.184 482.184;" xml:space="preserve">
<path style="fill:#3A556A;" d="M410.052,195.012l-122.88-122.88c-1.205-1.205-3.012-1.205-4.216,0l-24.094,24.094
	c-1.205,1.205-1.205,3.012,0,4.216L381.139,222.72c1.205,1.205,3.012,1.205,4.216,0l24.094-24.094
	C411.256,198.024,411.256,196.216,410.052,195.012z"/>
<path style="fill:#64798A;" d="M461.854,20.329L461.854,20.329c-27.106-27.106-71.68-27.106-98.786,0l-63.849,63.849l98.786,98.786
	l63.849-63.849C488.96,92.009,488.96,47.435,461.854,20.329z"/>
<path style="fill:#EBF0F3;" d="M270.306,113.092L57.675,325.12c-8.433,9.035-14.456,20.48-16.264,33.129l-6.024,44.574
	c-1.807,12.649-7.228,24.094-16.264,33.129L5.873,448.602c-7.831,7.831-7.831,19.878,0,27.708c7.831,7.831,19.878,7.831,27.708,0
	l13.252-13.252c9.035-9.035,20.48-14.456,33.129-16.264l44.574-6.024c12.649-1.807,24.094-7.228,33.129-16.263L369.694,212.48
	L270.306,113.092z"/>
<path style="fill:#E56353;" d="M65.506,332.951c-7.228,7.228-12.047,16.866-13.252,27.106l-6.024,44.574
	c-1.807,14.456-9.035,28.311-19.275,39.153l-13.252,13.252c-3.614,3.614-3.614,9.035,0,12.649s9.035,3.614,12.649,0l13.252-13.252
	c10.24-10.24,24.094-17.468,39.153-19.275l44.574-6.024c10.24-1.205,19.878-6.024,27.106-13.252l139.746-139.746H120.922
	L65.506,332.951z"/>
<g>
</g>
<g>
</g>
<g>
</g>
<g>
</g>
<g>
</g>
<g>
</g>
<g>
</g>
<g>
</g>
<g>
</g>
<g>
</g>
<g>
</g>
<g>
</g>
<g>
</g>
<g>
</g>
<g>
</g>
</svg>
