<?xml version="1.0" encoding="iso-8859-1"?>
<!-- Generator: Adobe Illustrator 19.0.0, SVG Export Plug-In . SVG Version: 6.00 Build 0)  -->
<svg version="1.1" id="Layer_1" xmlns="http://www.w3.org/2000/svg" xmlns:xlink="http://www.w3.org/1999/xlink" x="0px" y="0px"
	 viewBox="0 0 511.999 511.999" style="enable-background:new 0 0 511.999 511.999;" xml:space="preserve">
<path style="fill:#DCD08E;" d="M461.646,13.477c-15.246,0-30.426,6.785-41.045,17.408L99.114,352.369
	c-1.557,1.552-2.429,3.662-2.429,5.863c0,2.201,1.36,4.798,2.916,6.35l29.937,29.946L497.297,26.77
	C486.243,15.927,477.108,13.477,461.646,13.477z"/>
<path style="fill:#6DC0A7;" d="M116.35,155.897c-1.747,1.747-4.579,1.752-6.33,0.009l-36.227-36.064
	c-7.706-7.788-7.706-20.414,0-28.201l0.881-1.059c3.767-3.807,9.207-5.506,14.395-5.506c12.284,0,19.681,8.361,22.592,12.5
	c0.684,0.973,2.12,0.944,2.771-0.051c2.73-4.175,9.762-12.523,22.355-12.523c5.288,0,10.899,1.719,14.72,5.58l0.881,1.059
	c7.707,7.788,7.706,20.414-0.001,28.201L116.35,155.897z"/>
<path style="fill:#BDB178;" d="M497.331,26.77c-0.014,0-0.021,0-0.034,0l-9.693,9.693c-2.91,2.91-6.856,4.544-10.971,4.544h-16.891
	c-8.569,0-15.515,6.946-15.515,15.515l-0.363,13.567c-0.156,5.785-4.89,10.394-10.676,10.394h-13.336
	c-8.569,0-15.515,6.946-15.515,15.515v17.307c0,4.115-1.634,8.062-4.544,10.971l-70.402,70.402c-2.91,2.91-6.856,4.544-10.97,4.544
	H301.1c-8.569,0-15.515,6.946-15.515,15.515l-0.146,13.442c-0.063,5.853-4.826,10.564-10.679,10.564h-13.173
	c-8.569,0-15.515,6.946-15.515,15.515l-0.052,13.195c-0.023,5.882-4.798,10.637-10.679,10.637h-13.102
	c-8.569,0-15.515,6.946-15.515,15.515v13.261c0,5.819-4.658,10.568-10.477,10.677l-13.898,0.264
	c-8.569,0-15.515,6.946-15.515,15.515v17.485c0,4.115-1.634,8.062-4.544,10.971l-32.75,32.75l30.296,30.291
	c1.623,1.623,3.743,2.434,5.868,2.434c2.125,0,4.245-0.811,5.868-2.434l319.817-319.814
	C514.609,81.785,520.411,49.448,497.331,26.77z"/>
<path style="fill:#E8A3C2;" d="M341.859,109.717l-37.908,37.908c-19.792,19.792-20.037,51.643-0.238,71.711l73.882-73.882
	L341.859,109.717z"/>
<path style="fill:#E27DA4;" d="M377.595,145.455l-73.882,73.882c0.083,0.084,0.153,0.178,0.238,0.262
	c20.049,20.049,52.579,20.355,72.453,0.481l37.908-37.908L377.595,145.455z"/>
<circle style="fill:#FDFBF0;" cx="340.658" cy="183.146" r="22.599"/>
<g>
	<path style="fill:#6DC0A7;" d="M138.691,442.067l-28.155-28.155l-27.417-27.417c-4.548-4.55-12.515-4.54-17.057-0.004
		c-2.275,2.271-3.528,5.302-3.528,8.532c0,3.226,1.253,6.258,3.526,8.528l27.419,27.419l28.152,28.152
		c2.275,2.275,5.304,3.526,8.53,3.526c3.228,0,6.258-1.251,8.53-3.526C143.395,454.42,143.395,446.772,138.691,442.067z"/>
	<path style="fill:#6DC0A7;" d="M102.82,477.939l-28.155-28.155l-27.417-27.417c-4.548-4.55-12.515-4.54-17.057-0.004
		c-2.275,2.271-3.528,5.302-3.528,8.532c0,3.226,1.253,6.258,3.526,8.528l27.419,27.419l28.152,28.152
		c2.275,2.275,5.304,3.526,8.53,3.526c3.228,0,6.258-1.251,8.53-3.526C107.523,490.292,107.523,482.642,102.82,477.939z"/>
</g>
<g>
	<path style="fill:#AAE4D5;" d="M83.119,386.496c-4.548-4.55-12.515-4.54-17.057-0.004c-2.275,2.271-3.528,5.302-3.528,8.532
		c0,3.226,1.253,6.258,3.526,8.528l27.221,27.22l17.057-17.057L83.119,386.496z"/>
	<path style="fill:#AAE4D5;" d="M30.189,422.363c-2.275,2.271-3.528,5.302-3.528,8.532c0,3.226,1.253,6.258,3.526,8.528l27.22,27.22
		l17.057-17.057l-27.218-27.218C42.7,417.818,34.731,417.827,30.189,422.363z"/>
	<path style="fill:#AAE4D5;" d="M32.367,401.959c0-4.414-3.577-7.991-7.991-7.991c-4.605,0-8.351-3.746-8.351-8.351
		c0-4.414-3.578-7.991-7.991-7.991c-4.414,0-7.991,3.577-7.991,7.991c0,13.418,10.916,24.334,24.334,24.334
		C28.79,409.95,32.367,406.373,32.367,401.959z"/>
	<path style="fill:#AAE4D5;" d="M176.611,155.098c3.113-3.129,3.101-8.189-0.028-11.302c-3.131-3.113-8.192-3.1-11.301,0.028
		L10.495,299.394c-1.746,1.737-10.451,10.9-10.451,20.852c0,13.418,10.916,24.334,24.334,24.334c4.605,0,8.352,3.747,8.352,8.352
		c0,4.605-3.747,8.351-8.352,8.351c-4.413,0-7.991,3.577-7.991,7.991s3.578,7.991,7.991,7.991c13.419,0,24.335-10.916,24.335-24.334
		c0-13.419-10.916-24.335-24.335-24.335c-4.605,0-8.351-3.746-8.351-8.351c0-2.202,3.035-6.795,5.77-9.55L176.611,155.098z"/>
	<path style="fill:#AAE4D5;" d="M200.725,108.204l-18.868,18.927c-3.117,3.126-3.108,8.186,0.018,11.301
		c1.56,1.555,3.6,2.331,5.642,2.331c2.049,0,4.099-0.783,5.66-2.349l18.868-18.927c3.117-3.126,3.108-8.186-0.018-11.301
		C208.9,105.071,203.84,105.077,200.725,108.204z"/>
	<path style="fill:#AAE4D5;" d="M100.604,61.708l8.142,7.024c2.997,2.587,7.439,2.586,10.439,0.001l26.187-22.587
		c0.159-0.137,0.313-0.281,0.461-0.43c6.603-6.673,15.473-10.347,24.977-10.347c0,0,0.001,0,0.002,0
		c10.145,0.001,20.181,4.217,27.588,11.581l1.84,2.214c0.148,0.177,0.303,0.347,0.466,0.511
		c7.034,7.108,11.144,17.571,11.278,28.708c0.052,4.38,3.618,7.895,7.988,7.895c0.032,0,0.065,0,0.098-0.001
		c4.413-0.053,7.948-3.673,7.894-8.086c-0.181-15.112-5.879-29.485-15.645-39.5l-1.86-2.238c-0.148-0.177-0.303-0.347-0.465-0.51
		c-10.41-10.522-24.691-16.556-39.181-16.557c-0.002,0-0.002,0-0.003,0c-13.695,0-26.504,5.273-36.106,14.854l-20.739,17.889
		l-2.923-2.521c-3.344-2.884-8.388-2.512-11.27,0.831C96.89,53.779,97.263,58.825,100.604,61.708z"/>
	<path style="fill:#AAE4D5;" d="M86.07,186.193c1.498,1.498,3.531,2.34,5.651,2.34c2.119,0,4.152-0.843,5.651-2.342l60.694-60.727
		c10.675-10.786,10.763-28.28,0.261-39.177l-0.679-0.816c-0.147-0.176-0.3-0.345-0.462-0.509c-4.998-5.054-12.434-7.952-20.4-7.952
		c-11.14,0-18.912,4.949-23.883,9.858c-5.102-4.851-12.963-9.785-23.834-9.785c-7.803,0-15.12,2.87-20.075,7.876
		c-0.164,0.165-0.321,0.338-0.469,0.517l-0.677,0.815c-10.496,10.896-10.408,28.389,0.316,39.225l21.888,21.712
		c3.135,3.107,8.194,3.086,11.302-0.046c3.108-3.134,3.088-8.194-0.046-11.302l-21.836-21.658c-4.627-4.676-4.627-12.283,0-16.959
		c0.163-0.165,0.32-0.337,0.468-0.516l0.618-0.744c1.964-1.843,5.118-2.936,8.509-2.936c11.122,0,16.731,10.099,16.935,10.471
		c1.379,2.645,4.113,4.298,7.086,4.298c0.061,0,0.12-0.001,0.18-0.002c3.043-0.068,5.783-1.859,7.066-4.618
		c0.048-0.103,4.89-10.222,16.45-10.222c3.549,0,6.824,1.121,8.835,3.011l0.622,0.748c0.147,0.177,0.302,0.346,0.463,0.51
		c4.627,4.676,4.627,12.283,0.027,16.932l-55.016,55.045l-64.491-64.481C12.2,89.569,12.2,64.86,27.226,49.673
		c0.162-0.164,0.319-0.337,0.467-0.515l1.84-2.213c13.257-13.179,33.914-15.339,48.189-4.994c3.57,2.589,8.569,1.795,11.16-1.78
		c2.591-3.574,1.794-8.57-1.78-11.16c-20.682-14.993-50.416-12.019-69.162,6.926c-0.162,0.164-0.319,0.337-0.467,0.515l-1.858,2.236
		c-20.909,21.406-20.823,56.009,0.283,77.341L86.07,186.193z"/>
</g>
<path style="fill:#E27DA4;" d="M317.481,160.062c-6.327,6.326-9.81,14.736-9.81,23.683s3.484,17.357,9.809,23.683
	c6.327,6.325,14.737,9.809,23.684,9.809c8.946,0,17.356-3.484,23.683-9.809c13.058-13.059,13.058-34.306,0-47.364
	c-6.327-6.326-14.737-9.809-23.683-9.809C332.217,150.254,323.807,153.738,317.481,160.062z M353.544,196.125
	c-3.307,3.307-7.704,5.128-12.38,5.128c-4.678,0-9.075-1.821-12.382-5.128s-5.128-7.704-5.128-12.38
	c0-4.678,1.821-9.074,5.128-12.38c3.307-3.308,7.704-5.129,12.381-5.129c4.676,0,9.074,1.821,12.38,5.129
	C360.37,178.191,360.37,189.3,353.544,196.125z"/>
<g>
</g>
<g>
</g>
<g>
</g>
<g>
</g>
<g>
</g>
<g>
</g>
<g>
</g>
<g>
</g>
<g>
</g>
<g>
</g>
<g>
</g>
<g>
</g>
<g>
</g>
<g>
</g>
<g>
</g>
</svg>
