<?xml version="1.0" encoding="iso-8859-1"?>
<!-- Generator: Adobe Illustrator 19.0.0, SVG Export Plug-In . SVG Version: 6.00 Build 0)  -->
<svg version="1.1" id="Layer_1" xmlns="http://www.w3.org/2000/svg" xmlns:xlink="http://www.w3.org/1999/xlink" x="0px" y="0px"
	 viewBox="0 0 512 512" style="enable-background:new 0 0 512 512;" xml:space="preserve">
<path style="fill:#8ADB53;" d="M411.989,182.744c0-26.398-21.399-47.797-47.797-47.797h-51.378c-15.597,0-28.24-12.644-28.24-28.24
	V62.605H149.722v44.102c0,15.597-12.644,28.24-28.24,28.24H70.103c-26.398,0-47.797,21.399-47.797,47.797v248.033h389.683V182.744z"
	/>
<path style="fill:#4FC16E;" d="M411.989,182.744c0-26.398-21.399-47.797-47.797-47.797h-51.378c-15.597,0-28.24-12.644-28.24-28.24
	V62.605h-67.426l-1.289,368.173h196.13L411.989,182.744L411.989,182.744z"/>
<rect x="127.02" style="fill:#666666;" width="180.26" height="91.42"/>
<rect x="215.86" style="fill:#4D4D4D;" width="91.42" height="91.42"/>
<rect x="112.82" y="225.46" style="fill:#FFFFFF;" width="208.65" height="114.8"/>
<rect x="215.86" y="225.46" style="fill:#EBEBEC;" width="105.61" height="114.8"/>
<path style="fill:#FBDA35;" d="M337.18,494.338c-23.543,23.55-61.708,23.55-85.255,0c-23.543-23.54-23.543-61.712,0.003-85.255
	c23.543-23.54,61.708-23.54,85.251,0.003C360.724,432.626,360.724,470.798,337.18,494.338z"/>
<path style="fill:#F7BA35;" d="M337.18,494.338c-23.543,23.55-61.708,23.55-85.255,0l85.255-85.252
	C360.724,432.626,360.724,470.798,337.18,494.338z"/>
<path style="fill:#FBDA35;" d="M407.353,392.963c-30.995-12.172-46.246-47.158-34.067-78.153
	c12.171-30.988,47.163-46.241,78.154-34.064c30.986,12.175,46.237,47.162,34.063,78.151
	C473.332,389.886,438.34,405.139,407.353,392.963z"/>
<path style="fill:#F7BA35;" d="M407.353,392.963c-30.995-12.172-46.246-47.158-34.067-78.153l112.217,44.087
	C473.332,389.886,438.34,405.139,407.353,392.963z"/>
<g>
</g>
<g>
</g>
<g>
</g>
<g>
</g>
<g>
</g>
<g>
</g>
<g>
</g>
<g>
</g>
<g>
</g>
<g>
</g>
<g>
</g>
<g>
</g>
<g>
</g>
<g>
</g>
<g>
</g>
</svg>
