<?xml version="1.0" encoding="iso-8859-1"?>
<!-- Generator: Adobe Illustrator 19.0.0, SVG Export Plug-In . SVG Version: 6.00 Build 0)  -->
<svg version="1.1" id="Layer_1" xmlns="http://www.w3.org/2000/svg" xmlns:xlink="http://www.w3.org/1999/xlink" x="0px" y="0px"
	 viewBox="0 0 512 512" style="enable-background:new 0 0 512 512;" xml:space="preserve">
<path style="fill:#EBEBEC;" d="M349.697,512H11.521V36.856h338.176V512z"/>
<path style="fill:#CACACD;" d="M349.697,512H180.609V36.856h169.088V512z"/>
<path style="fill:#BA7400;" d="M268.474,103.714H92.745V0h175.729V103.714z"/>
<path style="fill:#804D00;" d="M268.474,103.714h-87.865V0h87.864v103.714H268.474z"/>
<g>
	<rect x="85.349" y="160.13" style="fill:#666666;" width="190.52" height="30"/>
	<rect x="85.349" y="223.47" style="fill:#666666;" width="190.52" height="30"/>
	<rect x="85.349" y="286.82" style="fill:#666666;" width="190.52" height="30"/>
	<rect x="85.349" y="350.17" style="fill:#666666;" width="190.52" height="30"/>
</g>
<g>
	<rect x="180.609" y="160.13" style="fill:#4D4D4D;" width="95.26" height="30"/>
	<rect x="180.609" y="223.47" style="fill:#4D4D4D;" width="95.26" height="30"/>
	<rect x="180.609" y="286.82" style="fill:#4D4D4D;" width="95.26" height="30"/>
	<rect x="180.609" y="350.17" style="fill:#4D4D4D;" width="95.26" height="30"/>
</g>
<rect x="85.349" y="413.52" style="fill:#666666;" width="119.69" height="30"/>
<rect x="180.609" y="413.52" style="fill:#4D4D4D;" width="24.424" height="30"/>
<path style="fill:#FDE888;" d="M459.531,512L459.531,512c-22.613,0-40.945-18.332-40.945-40.945V174.478l40.945-61.046
	l40.945,61.046v296.577C500.476,493.668,482.145,512,459.531,512z"/>
<path style="fill:#FBDA35;" d="M459.531,512L459.531,512c0-28.903,0-398.568,0-398.568l40.945,61.046v296.577
	C500.476,493.668,482.145,512,459.531,512z"/>
<rect x="418.589" y="174.48" style="fill:#F78740;" width="81.89" height="288.06"/>
<rect x="459.529" y="174.48" style="fill:#FD4C0D;" width="40.946" height="288.06"/>
<polygon style="fill:#BA7400;" points="459.531,113.432 438.943,144.128 480.12,144.128 "/>
<polygon style="fill:#804D00;" points="459.531,113.432 459.531,144.128 480.12,144.128 "/>
<path style="fill:#BA7400;" d="M418.586,454.193v16.861c0,22.614,18.332,40.945,40.945,40.945s40.945-18.332,40.945-40.945v-16.861
	H418.586z"/>
<path style="fill:#804D00;" d="M459.531,454.193c0,0,0,34.042,0,57.807c22.613,0,40.945-18.332,40.945-40.945v-16.861h-40.945
	V454.193z"/>
<g>
</g>
<g>
</g>
<g>
</g>
<g>
</g>
<g>
</g>
<g>
</g>
<g>
</g>
<g>
</g>
<g>
</g>
<g>
</g>
<g>
</g>
<g>
</g>
<g>
</g>
<g>
</g>
<g>
</g>
</svg>
