<?xml version="1.0" encoding="iso-8859-1"?>
<!-- Generator: Adobe Illustrator 19.0.0, SVG Export Plug-In . SVG Version: 6.00 Build 0)  -->
<svg version="1.1" id="Layer_1" xmlns="http://www.w3.org/2000/svg" xmlns:xlink="http://www.w3.org/1999/xlink" x="0px" y="0px"
	 viewBox="0 0 512 512" style="enable-background:new 0 0 512 512;" xml:space="preserve">
<g>
	<path style="fill:#B7B7BD;" d="M402.478,445.111H192.102V415.11h210.375c43.848,0,79.521-35.673,79.521-79.521v-1.057
		c0-43.848-35.673-79.521-79.521-79.521l-20.017-15.001l20.017-15.001c60.391,0,109.522,49.131,109.522,109.522v1.057
		C512,395.98,462.868,445.111,402.478,445.111z"/>
	<path style="fill:#B7B7BD;" d="M173.662,255.012h-2.141c-60.391,0-109.522-49.131-109.522-109.522v-6.492h30.001v6.492
		c0,43.848,35.673,79.521,79.521,79.521h2.141l20.017,15.001L173.662,255.012z"/>
</g>
<path style="fill:#E1E3E6;" d="M153.999,76.999C153.999,34.542,119.458,0,77,0L56.983,76.999L77,153.999
	C119.458,153.999,153.999,119.457,153.999,76.999z"/>
<path style="fill:#F6F6F7;" d="M77,0C34.543,0,0.001,34.542,0.001,76.999S34.542,153.999,77,153.999l0,0V0L77,0z"/>
<path style="fill:#CCCDD2;" d="M386.029,316.594h-39.885l-20.017-76.582l20.017-76.582h39.885c9.084,0,16.449,7.364,16.449,16.449
	v120.266C402.478,309.23,395.113,316.594,386.029,316.594z"/>
<polygon style="fill:#E1E3E6;" points="346.144,151.662 259.903,151.662 239.886,240.012 259.903,328.362 346.144,328.362 "/>
<path style="fill:#F6F6F7;" d="M190.112,151.662c-9.084,0-16.449,7.364-16.449,16.45v143.801c0,9.084,7.364,16.449,16.449,16.449
	h69.791v-176.7H190.112z"/>
<polygon style="fill:#B7B7BD;" points="108.973,92 61.999,92 61.999,45.026 92.001,45.026 92.001,61.999 108.973,61.999 "/>
<path style="fill:#8BE3FF;" d="M125.213,348.22h-21.661l-20.017,81.89l20.017,81.89h21.661c45.154,0,81.89-36.736,81.89-81.891
	S170.367,348.22,125.213,348.22z"/>
<path style="fill:#C2EEFF;" d="M81.89,348.22c-45.154,0-81.89,36.736-81.89,81.891S36.736,512,81.89,512h21.662V348.22H81.89z"/>
<path style="fill:#FA3743;" d="M298.923,205.617c-10.367-10.366-27.175-10.366-37.543,0l-1.477,1.478l-20.017,27.152l20.017,47.933
	l39.021-39.021C309.29,232.793,309.29,215.986,298.923,205.617z"/>
<path style="fill:#FF6E77;" d="M258.426,205.617c-10.367-10.366-27.175-10.366-37.543,0c-10.367,10.367-10.367,27.176,0,37.544
	l39.021,39.021v-75.086L258.426,205.617z"/>
<g>
</g>
<g>
</g>
<g>
</g>
<g>
</g>
<g>
</g>
<g>
</g>
<g>
</g>
<g>
</g>
<g>
</g>
<g>
</g>
<g>
</g>
<g>
</g>
<g>
</g>
<g>
</g>
<g>
</g>
</svg>
