<?xml version="1.0" encoding="iso-8859-1"?>
<!-- Generator: Adobe Illustrator 19.0.0, SVG Export Plug-In . SVG Version: 6.00 Build 0)  -->
<svg version="1.1" id="Layer_1" xmlns="http://www.w3.org/2000/svg" xmlns:xlink="http://www.w3.org/1999/xlink" x="0px" y="0px"
	 viewBox="0 0 512 512" style="enable-background:new 0 0 512 512;" xml:space="preserve">
<path style="fill:#ACF470;" d="M435.029,215.607l-25.372,14.649l-20.016,88.714l20.016,88.714l25.372,14.649
	c34.209,19.75,76.971-4.938,76.971-44.44V260.046C512,220.545,469.238,195.857,435.029,215.607z"/>
<path style="fill:#CAFFAB;" d="M332.971,274.531c-34.209,19.751-34.209,69.127,0,88.878l76.686,44.275V230.256L332.971,274.531z"/>
<path style="fill:#FF6E77;" d="M204.938,0l-20.016,99.361l20.016,99.361c54.876,0,99.361-44.486,99.361-99.361S259.814,0,204.938,0z
	"/>
<rect x="449.2" y="265.58" style="fill:#91E73E;" width="30" height="106.77"/>
<path style="fill:#8BE3FF;" d="M440.568,0l-20.016,71.432l20.016,71.432c39.451,0,71.432-31.981,71.432-71.432S480.019,0,440.568,0z
	"/>
<path style="fill:#C2EEFF;" d="M369.135,71.432c0,39.451,31.981,71.432,71.432,71.432V0C401.116,0,369.135,31.981,369.135,71.432z"
	/>
<path style="fill:#FFB8BD;" d="M105.576,99.361c0,54.876,44.486,99.361,99.361,99.361V0C150.062,0,105.576,44.486,105.576,99.361z"
	/>
<polygon style="fill:#FA3743;" points="219.938,84.361 219.938,42.492 204.938,42.492 194.93,99.361 204.938,156.231 
	219.938,156.231 219.938,114.361 261.808,114.361 261.808,84.361 "/>
<polygon style="fill:#FF6E77;" points="189.938,42.492 189.938,84.361 148.068,84.361 148.068,114.361 189.938,114.361 
	189.938,156.231 204.938,156.231 204.938,42.492 "/>
<path style="fill:#FFC834;" d="M245.917,490.696L245.917,490.696c39.959-39.959,22.07-122.633-39.955-184.658L101,378.389
	L245.917,490.696z"/>
<g>
	<path style="fill:#FFDB70;" d="M113.633,358.412l-52.374,92.329c62.025,62.025,144.699,79.914,184.658,39.955L113.633,358.412z"/>
	<path style="fill:#FFDB70;" d="M205.962,306.038L205.962,306.038c-62.025-62.025-144.699-79.914-184.658-39.955l0,0l45.501,83.524
		l66.805,28.782L205.962,306.038z"/>
</g>
<path style="fill:#FFEBB1;" d="M21.304,266.083c-39.959,39.958-22.07,122.633,39.955,184.658l72.351-72.351L21.304,266.083z"/>
<g>
</g>
<g>
</g>
<g>
</g>
<g>
</g>
<g>
</g>
<g>
</g>
<g>
</g>
<g>
</g>
<g>
</g>
<g>
</g>
<g>
</g>
<g>
</g>
<g>
</g>
<g>
</g>
<g>
</g>
</svg>
