<?xml version="1.0" encoding="iso-8859-1"?>
<!-- Generator: Adobe Illustrator 19.0.0, SVG Export Plug-In . SVG Version: 6.00 Build 0)  -->
<svg version="1.1" id="Layer_1" xmlns="http://www.w3.org/2000/svg" xmlns:xlink="http://www.w3.org/1999/xlink" x="0px" y="0px"
	 viewBox="0 0 512.001 512.001" style="enable-background:new 0 0 512.001 512.001;" xml:space="preserve">
<path style="fill:#FA3743;" d="M480.106,147.718c-40.707-40.707-105.886-42.388-148.613-5.033l-20.016,116.022l20.017,191.618
	l148.613-148.614c20.566-20.565,31.894-47.91,31.894-76.996S500.673,168.285,480.106,147.718z"/>
<path style="fill:#B7B7BD;" d="M332.115,491.757H232.113c-51.021,0-92.529-41.509-92.529-92.529v-82.09h30.002v82.09
	c0,34.478,28.05,62.527,62.527,62.527h100.002c34.477,0,62.526-28.05,62.526-62.527V264.582h30.002v134.647
	C424.643,450.249,383.135,491.757,332.115,491.757z"/>
<path style="fill:#CCCDD2;" d="M293.992,90.294l-40.627-49.941h-35v30.002h20.731l31.622,38.873
	c5.687,6.99,8.647,15.649,8.45,24.593l-71.107,169.292c-1.077,0.092-2.16,0.139-3.246,0.139H154.59l-20.017,15.253l20.017,14.749
	h50.225c6.063,0,12.09-0.81,17.913-2.407l7.035-1.931l79.006-188.098l0.191-2.396C310.358,120.968,305.042,103.877,293.992,90.294z"
	/>
<path style="fill:#E1E3E6;" d="M104.353,303.251c-16.897,0-31.844-11.375-36.348-27.66L31.358,143.077
	c-3.248-11.743-0.597-24.398,7.092-33.85l31.622-38.873h20.732V40.352H55.804L15.176,90.294
	C1.37,107.267-3.391,129.99,2.442,151.075L39.09,283.588c8.087,29.242,34.924,49.665,65.264,49.665h50.238v-30.002H104.353z"/>
<path style="fill:#FF6E77;" d="M182.882,147.718c-20.566,20.567-31.894,47.912-31.894,76.998s11.327,56.431,31.894,76.996
	l148.613,148.614V142.685C288.771,105.332,223.589,107.011,182.882,147.718z"/>
<path style="fill:#FFB8BD;" d="M205.992,224.716H175.99c0-22.407,8.727-43.476,24.572-59.32
	c15.812-15.812,36.877-24.52,59.318-24.52v30.002c-14.427,0-27.959,5.587-38.104,15.731
	C211.598,196.788,205.992,210.322,205.992,224.716z"/>
<path style="fill:#8BE3FF;" d="M146.022,55.354c0-19.359-15.75-35.109-35.109-35.109L90.896,55.353l20.017,35.109
	C130.272,90.462,146.022,74.712,146.022,55.354z"/>
<path style="fill:#C2EEFF;" d="M110.912,20.244c-19.358,0-35.108,15.75-35.108,35.109c0,19.358,15.75,35.108,35.108,35.108l0,0
	V20.244L110.912,20.244z"/>
<path style="fill:#43D4FF;" d="M233.365,55.354c0-19.359-15.75-35.109-35.109-35.109l-20.017,35.109l20.017,35.109
	C217.615,90.462,233.365,74.712,233.365,55.354z"/>
<path style="fill:#8BE3FF;" d="M198.255,20.244c-19.358,0-35.108,15.75-35.108,35.109c0,19.358,15.75,35.108,35.108,35.108l0,0
	V20.244L198.255,20.244z"/>
<path style="fill:#CCCDD2;" d="M470,219.226c0-33.282-27.076-60.358-60.358-60.358l-34.412,60.358l34.412,60.358
	C442.925,279.583,470,252.506,470,219.226z"/>
<path style="fill:#E1E3E6;" d="M409.642,158.868c-33.28,0-60.357,27.077-60.357,60.358c0,33.28,27.077,60.357,60.357,60.357l0,0
	V158.868C409.643,158.868,409.642,158.868,409.642,158.868z"/>
<rect x="394.596" y="204.224" style="fill:#F6F6F7;" width="30.092" height="30.002"/>
<g>
</g>
<g>
</g>
<g>
</g>
<g>
</g>
<g>
</g>
<g>
</g>
<g>
</g>
<g>
</g>
<g>
</g>
<g>
</g>
<g>
</g>
<g>
</g>
<g>
</g>
<g>
</g>
<g>
</g>
</svg>
