<?xml version="1.0" encoding="iso-8859-1"?>
<!-- Generator: Adobe Illustrator 19.0.0, SVG Export Plug-In . SVG Version: 6.00 Build 0)  -->
<svg version="1.1" id="Layer_1" xmlns="http://www.w3.org/2000/svg" xmlns:xlink="http://www.w3.org/1999/xlink" x="0px" y="0px"
	 viewBox="0 0 512 512" style="enable-background:new 0 0 512 512;" xml:space="preserve">
<path style="fill:#395366;" d="M511.18,235.474C500.724,103.688,390.475,0,256,0C114.615,0,0,114.615,0,256
	c0,115.402,76.365,212.956,181.314,244.919L511.18,235.474z"/>
<path style="fill:#373B40;" d="M512,256c0-6.91-0.283-13.754-0.82-20.526L340.853,65.147L102.474,286.031l61.748,61.748
	l-68.024,68.024l85.117,85.117C204.944,508.116,230.017,512,256,512C397.385,512,512,397.385,512,256z"/>
<path style="fill:#FF6A4F;" d="M160.34,146.33l40.918,81.835L160.34,310c-45.196,0-81.835-36.639-81.835-81.835
	S115.144,146.33,160.34,146.33z"/>
<path style="fill:#E2573E;" d="M242.175,228.165c0,45.196-36.639,81.835-81.835,81.835V146.33
	C205.536,146.33,242.175,182.969,242.175,228.165z"/>
<path style="fill:#FFE5C0;" d="M376.005,150.001v20l-150,50v-95.92l114.86-58.92c4.93,4.93,9.43,10.29,13.44,16.01
	C367.985,100.651,376.005,124.391,376.005,150.001z"/>
<polygon style="fill:#FFFDD2;" points="256.005,108.692 256.005,220.001 136.005,170.001 136.005,150.001 "/>
<path style="fill:#5FD2D0;" d="M341.732,332.55c38.71,7.77,71.19,32.74,89.16,66.59c-41.44,50.58-104.39,82.86-174.89,82.86l-30-122
	L341.732,332.55z"/>
<path style="fill:#54B5B7;" d="M341.732,332.55l-85.73,85.73l-30-58.28l90-30C324.812,330,333.412,330.88,341.732,332.55z"/>
<path style="fill:#78E9E1;" d="M170.272,332.55c-38.71,7.77-71.19,32.74-89.16,66.59c41.44,50.58,104.39,82.86,174.89,82.86V360
	L170.272,332.55z"/>
<path style="fill:#5FD2D0;" d="M170.272,332.55l85.73,85.73V360l-60-30C187.192,330,178.592,330.88,170.272,332.55z"/>
<polygon style="fill:#B6FFF6;" points="316.002,330 256.002,390 236.002,360 256.002,330 "/>
<polygon style="fill:#FFFFFF;" points="256.002,330 256.002,390 196.002,330 "/>
<path style="fill:#5FD2D0;" d="M206.002,180l170,10c0,66.27-53.73,120-120,120L206.002,180z"/>
<path style="fill:#78E9E1;" d="M256.002,180v130c-66.27,0-120-53.73-120-120L256.002,180z"/>
<polygon style="fill:#B6FFF6;" points="376.002,170 376.002,190 256.002,190 246.002,180 256.002,170 "/>
<rect x="136" y="170" style="fill:#FFFFFF;" width="120" height="20"/>
<path style="fill:#E2573E;" d="M340.865,65.161c-24.37,24.39-53.07,44.44-84.86,58.92l-30-49.08l30-45
	C289.155,30.001,319.155,43.441,340.865,65.161z"/>
<path style="fill:#FF6A4F;" d="M256.005,30.001v94.08c-36.55,16.65-77.18,25.92-120,25.92
	C136.005,83.731,189.735,30.001,256.005,30.001z"/>
<g>
</g>
<g>
</g>
<g>
</g>
<g>
</g>
<g>
</g>
<g>
</g>
<g>
</g>
<g>
</g>
<g>
</g>
<g>
</g>
<g>
</g>
<g>
</g>
<g>
</g>
<g>
</g>
<g>
</g>
</svg>
