<?xml version="1.0" encoding="iso-8859-1"?>
<!-- Generator: Adobe Illustrator 19.0.0, SVG Export Plug-In . SVG Version: 6.00 Build 0)  -->
<svg version="1.1" id="Layer_1" xmlns="http://www.w3.org/2000/svg" xmlns:xlink="http://www.w3.org/1999/xlink" x="0px" y="0px"
	 viewBox="0 0 512 512" style="enable-background:new 0 0 512 512;" xml:space="preserve">
<path style="fill:#BDCFDF;" d="M452.416,357.315c-7.826,0-14.17,6.344-14.17,14.17v32.275c0,7.826,6.344,14.17,14.17,14.17
	s14.17-6.344,14.17-14.17v-32.275C466.586,363.659,460.242,357.315,452.416,357.315z"/>
<path style="fill:#A8BCCC;" d="M410.503,0H90.353c-24.78,0-44.939,20.16-44.939,44.938v422.124c0,24.779,20.16,44.938,44.939,44.938
	h320.149c24.78,0,44.939-20.16,44.939-44.938V44.938C455.442,20.16,435.282,0,410.503,0z"/>
<path style="fill:#BDCFDF;" d="M248.316,0H90.353c-24.78,0-44.939,20.16-44.939,44.938v422.124c0,24.779,20.16,44.938,44.939,44.938
	h157.963V0z"/>
<path style="fill:#CFDBE6;" d="M394.114,45.052H106.742c-8.453,0-15.306,6.853-15.306,15.306v313.114
	c0,8.453,6.853,15.306,15.306,15.306h287.372c8.453,0,15.306-6.853,15.306-15.306V60.358
	C409.421,51.905,402.568,45.052,394.114,45.052z"/>
<path style="fill:#EFF4F4;" d="M248.147,45.052H106.742c-8.453,0-15.306,6.853-15.306,15.306v313.114
	c0,8.453,6.853,15.306,15.306,15.306h141.405V45.052z"/>
<path style="fill:#6A8092;" d="M318.369,424.178c-4.19-4.856-10.272-7.641-16.686-7.641h-102.51c-6.414,0-12.496,2.785-16.686,7.641
	s-6.054,11.28-5.116,17.623l2.2,14.878c1.589,10.725,10.961,18.813,21.803,18.813h98.109c10.841,0,20.214-8.088,21.803-18.815
	l2.2-14.875C324.423,435.458,322.559,429.034,318.369,424.178z"/>
<path style="fill:#9EACBA;" d="M248.316,416.537h-49.143c-6.414,0-12.496,2.785-16.686,7.641s-6.054,11.28-5.116,17.623l2.2,14.878
	c1.589,10.725,10.961,18.813,21.803,18.813h46.943L248.316,416.537L248.316,416.537z"/>
<polygon style="fill:#EFF4F4;" points="318.836,151.854 318.53,151.63 318.53,151.854 "/>
<path style="fill:#FF4429;" d="M336.049,305.054h-25.968l-20.22-41.261c-2.353-4.803-7.21-7.871-12.558-7.934
	c-5.336-0.082-10.276,2.891-12.741,7.637l-25.306,48.721l-16.086-33.958c-2.072-4.375-6.235-7.389-11.039-7.993
	c-4.805-0.611-9.582,1.286-12.673,5.013L174.726,305.1h-14.142c-7.826,0-14.17,6.344-14.17,14.17c0,7.826,6.344,14.17,14.17,14.17
	h20.799c4.217,0,8.215-1.878,10.907-5.124l7.512-9.057l7.277-8.774l4.155,8.771l14.634,30.892c2.304,4.863,7.164,8.002,12.546,8.101
	c0.087,0.002,0.173,0.003,0.26,0.003c5.28,0,10.133-2.94,12.574-7.638l16.295-31.372l9.227-17.765l8.703,17.76l3.049,6.221
	c2.38,4.856,7.316,7.935,12.724,7.935h34.803c7.826,0,14.17-6.344,14.17-14.17C350.219,311.398,343.875,305.054,336.049,305.054z"/>
<g>
	<path style="fill:#365E94;" d="M343.213,163.478c-7.269,0-13.183,5.913-13.183,13.182v9.998h-5.135v-9.998
		c0-7.269-5.914-13.182-13.183-13.182s-13.182,5.913-13.182,13.182v23.18c0,7.269,5.913,13.183,13.182,13.183h18.317v13.325
		c0,7.269,5.914,13.183,13.183,13.183s13.182-5.914,13.182-13.183V176.66C356.395,169.391,350.481,163.478,343.213,163.478z"/>
	<path style="fill:#365E94;" d="M198.658,171.263H179.97v-6.946c0-5.725,4.657-10.382,10.382-10.382h9.864
		c7.269,0,13.182-5.913,13.182-13.182s-5.913-13.183-13.182-13.183h-9.864c-20.262,0-36.746,16.484-36.746,36.746v50.267
		c0,13.756,11.19,24.946,24.945,24.946h20.107c13.294,0,24.109-10.815,24.109-24.108v-20.05
		C222.768,182.078,211.952,171.263,198.658,171.263z M196.403,198.854v13.327c0,0.542-0.441,0.983-0.983,0.983h-14.467
		c-0.542,0-0.983-0.441-0.983-0.983v-13.572c0-0.542,0.441-0.983,0.983-0.983h14.222
		C195.853,197.626,196.403,198.177,196.403,198.854z"/>
	<path style="fill:#365E94;" d="M248.271,127.57c-7.269,0-13.183,5.914-13.183,13.183v85.594c0,7.269,5.914,13.183,13.183,13.183
		s13.182-5.914,13.182-13.183v-85.594C261.453,133.484,255.54,127.57,248.271,127.57z"/>
	<circle style="fill:#365E94;" cx="286.62" cy="226.35" r="14.607"/>
</g>
<path style="fill:#12C5DE;" d="M285.558,64.382h-74.822c-2.761,0-5-2.239-5-5v-14.33h84.822v14.331
	C290.558,62.144,288.32,64.382,285.558,64.382z"/>
<path style="fill:#69E7F5;" d="M248.147,64.382h-37.411c-2.761,0-5-2.239-5-5v-14.33h42.411V64.382z"/>
<g>
</g>
<g>
</g>
<g>
</g>
<g>
</g>
<g>
</g>
<g>
</g>
<g>
</g>
<g>
</g>
<g>
</g>
<g>
</g>
<g>
</g>
<g>
</g>
<g>
</g>
<g>
</g>
<g>
</g>
</svg>
