<?xml version="1.0" encoding="iso-8859-1"?>
<!-- Generator: Adobe Illustrator 19.0.0, SVG Export Plug-In . SVG Version: 6.00 Build 0)  -->
<svg version="1.1" id="Layer_1" xmlns="http://www.w3.org/2000/svg" xmlns:xlink="http://www.w3.org/1999/xlink" x="0px" y="0px"
	 viewBox="0 0 512 512" style="enable-background:new 0 0 512 512;" xml:space="preserve">
<path style="fill:#89EBF0;" d="M500.016,139.837L372.205,12.026c-16.019-16.018-42.078-16.016-58.096,0L12.013,314.124
	c-16.017,16.017-16.017,42.078,0,58.095L139.823,500.03c12.008,12.008,30.745,15.356,46.183,8.29
	c4.425-2.025,8.472-4.848,11.912-8.29l302.098-302.097c12.065-12.066,15.435-30.918,8.211-46.402
	C506.201,147.189,503.402,143.223,500.016,139.837z"/>
<rect x="111.125" y="124.237" transform="matrix(-0.7071 0.7071 -0.7071 -0.7071 618.4376 255.2178)" style="fill:#68DDE3;" width="290.472" height="262.908"/>
<g>
	<path style="fill:#5BD0D9;" d="M407.789,113.922c-2.103,0-4.206-0.802-5.81-2.406l-0.726-0.726c-3.208-3.208-3.208-8.41,0-11.618
		c3.209-3.208,8.41-3.208,11.619,0l0.726,0.726c3.208,3.208,3.208,8.41,0,11.618C411.994,113.12,409.892,113.922,407.789,113.922z"
		/>
	<path style="fill:#5BD0D9;" d="M442.646,148.779c-2.103,0-4.206-0.802-5.81-2.406l-0.726-0.726c-3.208-3.208-3.208-8.41,0-11.618
		c3.209-3.208,8.41-3.208,11.619,0l0.726,0.726c3.208,3.208,3.208,8.41,0,11.618C446.852,147.977,444.749,148.779,442.646,148.779z"
		/>
	<path style="fill:#5BD0D9;" d="M384.551,137.16c-2.103,0-4.206-0.802-5.81-2.406l-0.726-0.726c-3.208-3.208-3.208-8.41,0-11.618
		c3.209-3.208,8.41-3.208,11.619,0l0.726,0.726c3.208,3.208,3.208,8.41,0,11.618C388.757,136.357,386.654,137.16,384.551,137.16z"/>
	<path style="fill:#5BD0D9;" d="M419.407,172.017c-2.103,0-4.206-0.802-5.81-2.406l-0.726-0.726c-3.208-3.208-3.208-8.41,0-11.618
		c3.209-3.208,8.41-3.208,11.619,0l0.726,0.726c3.208,3.208,3.208,8.41,0,11.618C423.613,171.215,421.51,172.017,419.407,172.017z"
		/>
	<path style="fill:#5BD0D9;" d="M361.312,160.398c-2.103,0-4.206-0.802-5.81-2.406l-0.726-0.726c-3.208-3.208-3.208-8.41,0-11.618
		c3.209-3.208,8.41-3.208,11.619,0l0.726,0.726c3.208,3.208,3.208,8.41,0,11.618C365.518,159.595,363.415,160.398,361.312,160.398z"
		/>
	<path style="fill:#5BD0D9;" d="M396.169,195.256c-2.103,0-4.206-0.802-5.81-2.406l-0.726-0.726c-3.208-3.208-3.208-8.41,0-11.618
		c3.209-3.208,8.41-3.208,11.619,0l0.726,0.726c3.208,3.208,3.208,8.41,0,11.618C400.375,194.452,398.273,195.256,396.169,195.256z"
		/>
	<path style="fill:#5BD0D9;" d="M152.168,369.542c-2.102,0-4.206-0.802-5.81-2.406l-0.726-0.726c-3.209-3.208-3.209-8.41,0-11.618
		c3.208-3.208,8.41-3.208,11.618,0l0.726,0.726c3.209,3.208,3.209,8.41,0,11.618C156.373,368.74,154.271,369.542,152.168,369.542z"
		/>
	<path style="fill:#5BD0D9;" d="M187.025,404.4c-2.102,0-4.206-0.802-5.81-2.406l-0.726-0.726c-3.209-3.208-3.209-8.41,0-11.618
		c3.208-3.208,8.41-3.208,11.618,0l0.726,0.726c3.209,3.208,3.209,8.41,0,11.618C191.231,403.597,189.128,404.4,187.025,404.4z"/>
	<path style="fill:#5BD0D9;" d="M128.93,392.781c-2.102,0-4.206-0.802-5.81-2.406l-0.726-0.726c-3.209-3.208-3.209-8.41,0-11.618
		c3.208-3.208,8.41-3.208,11.618,0l0.726,0.726c3.209,3.208,3.209,8.41,0,11.618C133.135,391.977,131.032,392.781,128.93,392.781z"
		/>
	<path style="fill:#5BD0D9;" d="M163.787,427.638c-2.102,0-4.206-0.802-5.81-2.406l-0.726-0.726c-3.209-3.208-3.209-8.41,0-11.618
		c3.208-3.208,8.41-3.208,11.618,0l0.726,0.726c3.209,3.208,3.209,8.41,0,11.618C167.993,426.836,165.889,427.638,163.787,427.638z"
		/>
	<path style="fill:#5BD0D9;" d="M343.157,49.29c-2.103,0-4.206-0.802-5.81-2.406l-0.726-0.726c-3.208-3.208-3.208-8.41,0-11.618
		c3.209-3.208,8.41-3.208,11.619,0l0.726,0.726c3.208,3.208,3.208,8.41,0,11.618C347.362,48.488,345.26,49.29,343.157,49.29z"/>
	<path style="fill:#5BD0D9;" d="M319.919,72.529c-2.103,0-4.206-0.802-5.81-2.406l-0.726-0.726c-3.208-3.208-3.208-8.41,0-11.618
		c3.209-3.208,8.41-3.208,11.619,0l0.726,0.726c3.208,3.208,3.208,8.41,0,11.618C324.125,71.726,322.022,72.529,319.919,72.529z"/>
	<path style="fill:#5BD0D9;" d="M296.68,95.766c-2.103,0-4.206-0.802-5.81-2.406l-0.726-0.726c-3.208-3.208-3.208-8.41,0-11.618
		c3.209-3.208,8.41-3.208,11.619,0l0.726,0.726c3.208,3.208,3.208,8.41,0,11.618C300.886,94.964,298.784,95.766,296.68,95.766z"/>
	<path style="fill:#5BD0D9;" d="M273.442,119.005c-2.103,0-4.206-0.802-5.81-2.406l-0.726-0.726c-3.208-3.208-3.208-8.41,0-11.618
		c3.209-3.208,8.41-3.208,11.619,0l0.726,0.726c3.208,3.208,3.208,8.41,0,11.618C277.648,118.202,275.546,119.005,273.442,119.005z"
		/>
	<path style="fill:#5BD0D9;" d="M250.205,142.243c-2.102,0-4.206-0.802-5.81-2.406l-0.726-0.726c-3.209-3.208-3.209-8.41,0-11.618
		c3.208-3.208,8.41-3.208,11.618,0l0.726,0.726c3.208,3.208,3.208,8.41,0,11.618C254.41,141.441,252.307,142.243,250.205,142.243z"
		/>
	<path style="fill:#5BD0D9;" d="M226.966,165.481c-2.102,0-4.206-0.802-5.81-2.406l-0.726-0.726c-3.209-3.208-3.209-8.41,0-11.618
		c3.208-3.208,8.41-3.208,11.618,0l0.726,0.726c3.209,3.208,3.209,8.41,0,11.618C231.171,164.679,229.069,165.481,226.966,165.481z"
		/>
	<path style="fill:#5BD0D9;" d="M203.728,188.72c-2.102,0-4.206-0.802-5.81-2.406l-0.726-0.726c-3.209-3.208-3.209-8.41,0-11.618
		c3.208-3.208,8.41-3.208,11.618,0l0.726,0.726c3.209,3.208,3.209,8.41,0,11.618C207.934,187.918,205.83,188.72,203.728,188.72z"/>
	<path style="fill:#5BD0D9;" d="M180.49,211.958c-2.102,0-4.206-0.802-5.81-2.406l-0.726-0.726c-3.209-3.208-3.209-8.41,0-11.618
		c3.208-3.208,8.41-3.208,11.618,0l0.726,0.726c3.209,3.208,3.209,8.41,0,11.618C184.695,211.156,182.592,211.958,180.49,211.958z"
		/>
	<path style="fill:#5BD0D9;" d="M157.251,235.196c-2.102,0-4.206-0.802-5.81-2.406l-0.726-0.726c-3.209-3.208-3.209-8.41,0-11.618
		c3.208-3.208,8.41-3.208,11.618,0l0.726,0.726c3.209,3.208,3.209,8.41,0,11.618C161.457,234.394,159.355,235.196,157.251,235.196z"
		/>
	<path style="fill:#5BD0D9;" d="M134.014,258.434c-2.102,0-4.206-0.802-5.81-2.406l-0.726-0.726c-3.209-3.208-3.209-8.41,0-11.618
		c3.208-3.208,8.41-3.208,11.618,0l0.726,0.726c3.209,3.208,3.209,8.41,0,11.618C138.218,257.632,136.116,258.434,134.014,258.434z"
		/>
	<path style="fill:#5BD0D9;" d="M110.775,281.673c-2.102,0-4.206-0.802-5.81-2.406l-0.726-0.726c-3.209-3.208-3.209-8.41,0-11.618
		c3.208-3.208,8.41-3.208,11.618,0l0.726,0.726c3.209,3.208,3.209,8.41,0,11.618C114.98,280.87,112.878,281.673,110.775,281.673z"/>
	<path style="fill:#5BD0D9;" d="M87.537,304.911c-2.102,0-4.206-0.802-5.81-2.406l-0.726-0.726c-3.209-3.208-3.209-8.41,0-11.618
		c3.208-3.208,8.41-3.208,11.618,0l0.726,0.726c3.209,3.208,3.209,8.41,0,11.618C91.742,304.109,89.639,304.911,87.537,304.911z"/>
	<path style="fill:#5BD0D9;" d="M64.298,328.15c-2.103,0-4.208-0.803-5.812-2.408l-0.726-0.727
		c-3.207-3.209-3.206-8.411,0.004-11.618c3.209-3.208,8.412-3.206,11.618,0.004l0.726,0.727c3.207,3.209,3.206,8.411-0.004,11.618
		C68.503,327.348,66.4,328.15,64.298,328.15z"/>
	<path style="fill:#5BD0D9;" d="M41.06,351.388c-2.103,0-4.208-0.803-5.812-2.408l-0.726-0.727
		c-3.207-3.209-3.206-8.411,0.004-11.618c3.209-3.208,8.412-3.206,11.618,0.004l0.726,0.727c3.207,3.209,3.206,8.411-0.004,11.618
		C45.264,350.586,43.162,351.388,41.06,351.388z"/>
	<path style="fill:#5BD0D9;" d="M105.692,416.018c-2.102,0-4.206-0.802-5.81-2.406l-0.726-0.726c-3.209-3.208-3.209-8.41,0-11.618
		c3.208-3.208,8.41-3.208,11.618,0l0.726,0.726c3.209,3.208,3.209,8.41,0,11.618C109.897,415.216,107.794,416.018,105.692,416.018z"
		/>
	<path style="fill:#5BD0D9;" d="M372.931,79.064c-2.104,0-4.208-0.803-5.812-2.408l-0.726-0.727
		c-3.207-3.209-3.205-8.411,0.004-11.618c3.211-3.208,8.412-3.206,11.619,0.004l0.726,0.727c3.207,3.209,3.205,8.411-0.004,11.618
		C377.134,78.263,375.033,79.064,372.931,79.064z"/>
	<path style="fill:#5BD0D9;" d="M349.693,102.302c-2.104,0-4.208-0.803-5.812-2.408l-0.726-0.727
		c-3.207-3.209-3.205-8.411,0.004-11.618c3.21-3.208,8.411-3.206,11.619,0.004l0.726,0.727c3.207,3.209,3.205,8.411-0.004,11.618
		C353.896,101.501,351.795,102.302,349.693,102.302z"/>
	<path style="fill:#5BD0D9;" d="M326.456,125.54c-2.101,0-4.201-0.801-5.806-2.402l-0.727-0.726
		c-3.21-3.206-3.215-8.408-0.008-11.618c3.207-3.21,8.409-3.212,11.619-0.008l0.727,0.726c3.21,3.206,3.214,8.408,0.008,11.618
		C330.665,124.737,328.559,125.54,326.456,125.54z"/>
	<path style="fill:#5BD0D9;" d="M117.311,334.684c-2.102,0-4.206-0.802-5.81-2.406l-0.726-0.726c-3.209-3.208-3.209-8.41,0-11.618
		c3.208-3.208,8.41-3.208,11.618,0l0.726,0.726c3.209,3.208,3.209,8.41,0,11.618C121.516,333.882,119.413,334.684,117.311,334.684z"
		/>
	<path style="fill:#5BD0D9;" d="M94.073,357.923c-2.102,0-4.203-0.801-5.808-2.404l-0.727-0.726
		c-3.209-3.207-3.211-8.409-0.004-11.618c3.208-3.209,8.41-3.21,11.618-0.004l0.727,0.726c3.209,3.207,3.211,8.409,0.004,11.618
		C98.28,357.12,96.176,357.923,94.073,357.923z"/>
	<path style="fill:#5BD0D9;" d="M70.835,381.161c-2.102,0-4.203-0.801-5.808-2.404l-0.727-0.726
		c-3.209-3.207-3.211-8.409-0.004-11.618c3.208-3.209,8.41-3.211,11.618-0.004l0.727,0.726c3.209,3.207,3.211,8.409,0.004,11.618
		C75.041,380.358,72.938,381.161,70.835,381.161z"/>
	<path style="fill:#5BD0D9;" d="M140.548,450.877c-2.102,0-4.206-0.802-5.81-2.406l-0.726-0.726c-3.209-3.208-3.209-8.41,0-11.618
		c3.208-3.208,8.41-3.208,11.618,0l0.726,0.726c3.209,3.208,3.209,8.41,0,11.618C144.754,450.074,142.652,450.877,140.548,450.877z"
		/>
	<path style="fill:#5BD0D9;" d="M471.694,177.826c-2.104,0-4.208-0.803-5.812-2.408l-0.726-0.727
		c-3.207-3.209-3.205-8.411,0.004-11.618c3.21-3.208,8.411-3.205,11.619,0.004l0.726,0.727c3.207,3.209,3.205,8.411-0.004,11.618
		C475.897,177.025,473.796,177.826,471.694,177.826z"/>
	<path style="fill:#5BD0D9;" d="M448.455,201.065c-2.104,0-4.208-0.803-5.812-2.408l-0.726-0.727
		c-3.207-3.209-3.205-8.411,0.004-11.618c3.21-3.208,8.411-3.206,11.619,0.004l0.726,0.727c3.207,3.209,3.205,8.411-0.004,11.618
		C452.658,200.264,450.557,201.065,448.455,201.065z"/>
	<path style="fill:#5BD0D9;" d="M425.218,224.303c-2.103,0-4.206-0.802-5.81-2.406l-0.726-0.726c-3.208-3.208-3.208-8.41,0-11.618
		c3.209-3.208,8.41-3.208,11.619,0l0.726,0.726c3.208,3.208,3.208,8.41,0,11.618C429.422,223.501,427.32,224.303,425.218,224.303z"
		/>
	<path style="fill:#5BD0D9;" d="M401.98,247.541c-2.101,0-4.201-0.801-5.806-2.402l-0.727-0.726
		c-3.21-3.206-3.214-8.408-0.008-11.618c3.207-3.21,8.409-3.213,11.619-0.008l0.727,0.726c3.21,3.206,3.214,8.408,0.008,11.618
		C406.189,246.738,404.083,247.541,401.98,247.541z"/>
	<path style="fill:#5BD0D9;" d="M378.741,270.78c-2.103,0-4.206-0.802-5.81-2.406l-0.726-0.726c-3.208-3.208-3.208-8.41,0-11.618
		c3.209-3.208,8.41-3.208,11.619,0l0.726,0.726c3.208,3.208,3.208,8.41,0,11.618C382.946,269.977,380.844,270.78,378.741,270.78z"/>
	<path style="fill:#5BD0D9;" d="M355.503,294.018c-2.103,0-4.206-0.802-5.81-2.406l-0.726-0.726c-3.208-3.208-3.208-8.41,0-11.618
		c3.209-3.208,8.41-3.208,11.619,0l0.726,0.726c3.208,3.208,3.208,8.41,0,11.618C359.708,293.215,357.607,294.018,355.503,294.018z"
		/>
	<path style="fill:#5BD0D9;" d="M332.265,317.256c-2.103,0-4.206-0.802-5.81-2.406l-0.726-0.726c-3.208-3.208-3.208-8.41,0-11.618
		c3.209-3.208,8.41-3.208,11.619,0l0.726,0.726c3.208,3.208,3.208,8.41,0,11.618C336.469,316.453,334.368,317.256,332.265,317.256z"
		/>
	<path style="fill:#5BD0D9;" d="M309.027,340.494c-2.103,0-4.206-0.802-5.81-2.406l-0.726-0.726c-3.208-3.208-3.208-8.41,0-11.618
		c3.209-3.208,8.41-3.208,11.619,0l0.726,0.726c3.208,3.208,3.208,8.41,0,11.618C313.232,339.692,311.13,340.494,309.027,340.494z"
		/>
	<path style="fill:#5BD0D9;" d="M285.788,363.732c-2.103,0-4.206-0.802-5.81-2.406l-0.726-0.726c-3.208-3.208-3.208-8.41,0-11.618
		c3.209-3.208,8.41-3.208,11.619,0l0.726,0.726c3.208,3.208,3.208,8.41,0,11.618C289.994,362.93,287.891,363.732,285.788,363.732z"
		/>
	<path style="fill:#5BD0D9;" d="M262.55,386.971c-2.103,0-4.206-0.802-5.81-2.406l-0.726-0.726c-3.209-3.208-3.209-8.41,0-11.618
		c3.209-3.208,8.41-3.208,11.619,0l0.726,0.726c3.208,3.208,3.208,8.41,0,11.618C266.756,386.169,264.653,386.971,262.55,386.971z"
		/>
	<path style="fill:#5BD0D9;" d="M239.311,410.209c-2.102,0-4.206-0.802-5.81-2.406l-0.726-0.726c-3.209-3.208-3.209-8.41,0-11.618
		c3.208-3.208,8.41-3.208,11.618,0l0.726,0.726c3.209,3.208,3.209,8.41,0,11.618C243.517,409.407,241.414,410.209,239.311,410.209z"
		/>
	<path style="fill:#5BD0D9;" d="M216.074,433.447c-2.102,0-4.206-0.802-5.81-2.406l-0.726-0.726c-3.209-3.208-3.209-8.41,0-11.618
		c3.208-3.208,8.41-3.208,11.618,0l0.726,0.726c3.209,3.208,3.209,8.41,0,11.618C220.278,432.645,218.176,433.447,216.074,433.447z"
		/>
	<path style="fill:#5BD0D9;" d="M192.836,456.685c-2.102,0-4.203-0.801-5.808-2.404l-0.727-0.726
		c-3.209-3.207-3.211-8.409-0.004-11.618c3.208-3.209,8.41-3.211,11.618-0.004l0.727,0.726c3.209,3.207,3.211,8.409,0.004,11.618
		C197.042,455.883,194.939,456.685,192.836,456.685z"/>
	<path style="fill:#5BD0D9;" d="M169.597,479.924c-2.102,0-4.203-0.801-5.808-2.404l-0.727-0.726
		c-3.209-3.207-3.211-8.409-0.004-11.618c3.208-3.209,8.41-3.21,11.618-0.004l0.727,0.726c3.209,3.207,3.211,8.409,0.004,11.618
		C173.804,479.121,171.701,479.924,169.597,479.924z"/>
</g>
<path style="fill:#FFA85C;" d="M500.016,314.124L197.918,12.026c-16.017-16.017-42.079-16.016-58.095,0L12.013,139.837
	c-16.017,16.017-16.017,42.079,0,58.095L314.109,500.03c12.009,12.007,30.745,15.356,46.184,8.29
	c4.425-2.025,8.472-4.848,11.913-8.29l127.809-127.811c12.065-12.066,15.435-30.918,8.211-46.402
	C506.201,321.476,503.402,317.51,500.016,314.124z"/>
<path style="fill:#FF943D;" d="M378.549,490.063c-15.439,7.066-34.175,3.718-46.184-8.29L30.269,179.676
	c-16.016-16.016-16.016-42.077-0.001-58.094l-18.255,18.255c-16.017,16.017-16.017,42.079,0,58.095L314.109,500.03
	c12.009,12.007,30.745,15.356,46.184,8.29c4.425-2.025,8.472-4.848,11.913-8.29l18.256-18.256
	C387.021,485.214,382.975,488.037,378.549,490.063z"/>
<path style="fill:#FC8626;" d="M389.635,285.076L226.966,122.409c-3.104-3.104-7.23-4.814-11.619-4.814s-8.516,1.71-11.618,4.814
	l-81.333,81.333c-3.104,3.104-4.814,7.23-4.814,11.619c0,4.389,1.709,8.516,4.814,11.619l162.668,162.667
	c3.103,3.104,7.23,4.814,11.619,4.814c4.388,0,8.515-1.71,11.618-4.814l81.334-81.334
	C396.04,301.908,396.041,291.483,389.635,285.076z"/>
<g>
	<path style="fill:#FF943D;" d="M104.24,113.922c-2.102,0-4.206-0.802-5.81-2.406c-3.209-3.208-3.209-8.41,0-11.618l0.726-0.726
		c3.208-3.208,8.41-3.208,11.618,0c3.209,3.208,3.209,8.41,0,11.618l-0.726,0.726C108.444,113.12,106.342,113.922,104.24,113.922z"
		/>
	<path style="fill:#FF943D;" d="M69.382,148.779c-2.102,0-4.206-0.802-5.81-2.406c-3.209-3.208-3.209-8.41,0-11.618l0.726-0.726
		c3.208-3.208,8.41-3.208,11.618,0c3.209,3.208,3.209,8.41,0,11.618l-0.726,0.726C73.587,147.977,71.484,148.779,69.382,148.779z"/>
	<path style="fill:#FF943D;" d="M127.478,137.16c-2.102,0-4.206-0.802-5.81-2.406c-3.209-3.208-3.209-8.41,0-11.618l0.726-0.726
		c3.208-3.208,8.41-3.208,11.618,0c3.209,3.208,3.209,8.41,0,11.618l-0.726,0.726C131.683,136.357,129.58,137.16,127.478,137.16z"/>
	<path style="fill:#FF943D;" d="M92.621,172.017c-2.102,0-4.206-0.802-5.81-2.406c-3.209-3.208-3.209-8.41,0-11.618l0.726-0.726
		c3.208-3.208,8.41-3.208,11.618,0c3.209,3.208,3.209,8.41,0,11.618l-0.726,0.726C96.825,171.215,94.723,172.017,92.621,172.017z"/>
	<path style="fill:#FF943D;" d="M150.716,160.398c-2.102,0-4.206-0.802-5.81-2.406c-3.209-3.208-3.209-8.41,0-11.618l0.726-0.726
		c3.208-3.208,8.41-3.208,11.618,0c3.209,3.208,3.209,8.41,0,11.618l-0.726,0.726C154.921,159.595,152.819,160.398,150.716,160.398z
		"/>
	<path style="fill:#FF943D;" d="M115.858,195.256c-2.102,0-4.206-0.802-5.81-2.406c-3.209-3.208-3.209-8.41,0-11.618l0.726-0.726
		c3.208-3.208,8.41-3.208,11.618,0c3.209,3.208,3.209,8.41,0,11.618l-0.726,0.726C120.064,194.452,117.961,195.256,115.858,195.256z
		"/>
	<path style="fill:#FF943D;" d="M359.86,369.542c-2.103,0-4.206-0.802-5.81-2.406c-3.208-3.208-3.208-8.41,0-11.618l0.726-0.726
		c3.209-3.208,8.41-3.208,11.619,0c3.208,3.208,3.208,8.41,0,11.618l-0.726,0.726C364.066,368.74,361.963,369.542,359.86,369.542z"
		/>
	<path style="fill:#FF943D;" d="M325.002,404.4c-2.103,0-4.206-0.802-5.81-2.406c-3.208-3.208-3.208-8.41,0-11.618l0.726-0.726
		c3.209-3.208,8.41-3.208,11.619,0c3.208,3.208,3.208,8.41,0,11.618l-0.726,0.726C329.207,403.597,327.105,404.4,325.002,404.4z"/>
	<path style="fill:#FF943D;" d="M383.099,392.781c-2.103,0-4.206-0.802-5.81-2.406c-3.208-3.208-3.208-8.41,0-11.618l0.726-0.726
		c3.209-3.208,8.41-3.208,11.619,0c3.208,3.208,3.208,8.41,0,11.618l-0.726,0.726C387.304,391.977,385.202,392.781,383.099,392.781z
		"/>
	<path style="fill:#FF943D;" d="M348.241,427.638c-2.103,0-4.206-0.802-5.81-2.406c-3.208-3.208-3.208-8.41,0-11.618l0.726-0.726
		c3.209-3.208,8.41-3.208,11.619,0c3.208,3.208,3.208,8.41,0,11.618l-0.726,0.726C352.446,426.836,350.344,427.638,348.241,427.638z
		"/>
	<path style="fill:#FF943D;" d="M168.871,49.29c-2.103,0-4.208-0.803-5.812-2.408c-3.207-3.209-3.206-8.411,0.004-11.618
		l0.727-0.726c3.209-3.208,8.412-3.206,11.618,0.004c3.207,3.209,3.206,8.411-0.004,11.618l-0.727,0.726
		C173.074,48.489,170.972,49.29,168.871,49.29z"/>
	<path style="fill:#FF943D;" d="M192.109,72.529c-2.103,0-4.208-0.803-5.812-2.408c-3.207-3.209-3.206-8.411,0.004-11.618
		l0.727-0.726c3.209-3.208,8.412-3.206,11.618,0.004c3.207,3.209,3.206,8.411-0.004,11.618l-0.727,0.726
		C196.312,71.727,194.21,72.529,192.109,72.529z"/>
	<path style="fill:#FF943D;" d="M215.347,95.766c-2.102,0-4.206-0.802-5.81-2.406c-3.209-3.208-3.209-8.41,0-11.618l0.726-0.726
		c3.208-3.208,8.41-3.208,11.618,0c3.209,3.208,3.209,8.41,0,11.618l-0.726,0.726C219.552,94.964,217.45,95.766,215.347,95.766z"/>
	<path style="fill:#FF943D;" d="M238.585,119.005c-2.102,0-4.206-0.802-5.81-2.406c-3.209-3.208-3.209-8.41,0-11.618l0.726-0.726
		c3.208-3.208,8.41-3.208,11.618,0c3.209,3.208,3.209,8.41,0,11.618l-0.726,0.726C242.791,118.202,240.688,119.005,238.585,119.005z
		"/>
	<path style="fill:#FF943D;" d="M261.824,142.243c-2.103,0-4.206-0.802-5.81-2.406c-3.209-3.208-3.209-8.41,0-11.618l0.726-0.726
		c3.209-3.208,8.41-3.208,11.619,0c3.208,3.208,3.208,8.41,0,11.618l-0.726,0.726C266.03,141.441,263.927,142.243,261.824,142.243z"
		/>
	<path style="fill:#FF943D;" d="M285.062,165.481c-2.103,0-4.206-0.802-5.81-2.406c-3.208-3.208-3.208-8.41,0-11.618l0.726-0.726
		c3.209-3.208,8.41-3.208,11.619,0c3.208,3.208,3.208,8.41,0,11.618l-0.726,0.726C289.267,164.679,287.165,165.481,285.062,165.481z
		"/>
	<path style="fill:#FF943D;" d="M308.301,188.72c-2.103,0-4.206-0.802-5.81-2.406c-3.208-3.208-3.208-8.41,0-11.618l0.726-0.726
		c3.209-3.208,8.41-3.208,11.619,0c3.208,3.208,3.208,8.41,0,11.618l-0.726,0.726C312.506,187.918,310.404,188.72,308.301,188.72z"
		/>
	<path style="fill:#FF943D;" d="M331.539,211.958c-2.103,0-4.206-0.802-5.81-2.406c-3.208-3.208-3.208-8.41,0-11.618l0.726-0.726
		c3.209-3.208,8.41-3.208,11.619,0c3.208,3.208,3.208,8.41,0,11.618l-0.726,0.726C335.743,211.156,333.642,211.958,331.539,211.958z
		"/>
	<path style="fill:#FF943D;" d="M354.777,235.196c-2.103,0-4.206-0.802-5.81-2.406c-3.208-3.208-3.208-8.41,0-11.618l0.726-0.726
		c3.209-3.208,8.41-3.208,11.619,0c3.208,3.208,3.208,8.41,0,11.618l-0.726,0.726C358.982,234.394,356.881,235.196,354.777,235.196z
		"/>
	<path style="fill:#FF943D;" d="M378.015,258.434c-2.103,0-4.206-0.802-5.81-2.406c-3.208-3.208-3.208-8.41,0-11.618l0.726-0.726
		c3.209-3.208,8.41-3.208,11.619,0c3.208,3.208,3.208,8.41,0,11.618l-0.726,0.726C382.22,257.632,380.117,258.434,378.015,258.434z"
		/>
	<path style="fill:#FF943D;" d="M401.253,281.673c-2.105,0-4.21-0.803-5.814-2.41c-3.206-3.21-3.202-8.412,0.008-11.618l0.727-0.726
		c3.212-3.207,8.413-3.204,11.619,0.008c3.206,3.21,3.202,8.412-0.008,11.618l-0.727,0.726
		C405.453,280.872,403.352,281.673,401.253,281.673z"/>
	<path style="fill:#FF943D;" d="M424.491,304.911c-2.103,0-4.206-0.802-5.81-2.406c-3.208-3.208-3.208-8.41,0-11.618l0.726-0.726
		c3.209-3.208,8.41-3.208,11.619,0c3.208,3.208,3.208,8.41,0,11.618l-0.726,0.726C428.696,304.109,426.594,304.911,424.491,304.911z
		"/>
	<path style="fill:#FF943D;" d="M447.729,328.15c-2.102,0-4.203-0.801-5.808-2.404c-3.209-3.207-3.211-8.409-0.004-11.618
		l0.726-0.727c3.208-3.21,8.409-3.21,11.619-0.004c3.209,3.207,3.211,8.409,0.004,11.618l-0.726,0.727
		C451.936,327.347,449.832,328.15,447.729,328.15z"/>
	<path style="fill:#FF943D;" d="M470.967,351.388c-2.102,0-4.203-0.801-5.808-2.404c-3.209-3.207-3.211-8.409-0.004-11.618
		l0.726-0.727c3.209-3.21,8.41-3.21,11.619-0.004c3.209,3.207,3.211,8.409,0.004,11.618l-0.726,0.727
		C475.175,350.584,473.071,351.388,470.967,351.388z"/>
	<path style="fill:#FF943D;" d="M406.337,416.018c-2.103,0-4.206-0.802-5.81-2.406c-3.208-3.208-3.208-8.41,0-11.618l0.726-0.726
		c3.209-3.208,8.41-3.208,11.619,0c3.208,3.208,3.208,8.41,0,11.618l-0.726,0.726C410.541,415.216,408.44,416.018,406.337,416.018z"
		/>
	<path style="fill:#FF943D;" d="M139.096,79.064c-2.102,0-4.203-0.801-5.808-2.404c-3.209-3.207-3.211-8.409-0.004-11.618
		l0.726-0.727c3.207-3.209,8.409-3.21,11.618-0.004c3.209,3.207,3.211,8.409,0.004,11.618l-0.726,0.727
		C143.304,78.261,141.2,79.064,139.096,79.064z"/>
	<path style="fill:#FF943D;" d="M162.335,102.302c-2.102,0-4.203-0.801-5.808-2.404c-3.209-3.207-3.211-8.409-0.004-11.618
		l0.726-0.727c3.208-3.209,8.41-3.21,11.618-0.004c3.209,3.207,3.211,8.409,0.004,11.618l-0.726,0.727
		C166.543,101.5,164.438,102.302,162.335,102.302z"/>
	<path style="fill:#FF943D;" d="M185.573,125.54c-2.102,0-4.206-0.802-5.81-2.406c-3.209-3.208-3.209-8.41,0-11.618l0.726-0.726
		c3.208-3.208,8.41-3.208,11.618,0c3.209,3.208,3.209,8.41,0,11.618l-0.726,0.726C189.778,124.738,187.676,125.54,185.573,125.54z"
		/>
	<path style="fill:#FF943D;" d="M394.717,334.684c-2.103,0-4.206-0.802-5.81-2.406c-3.208-3.208-3.208-8.41,0-11.618l0.726-0.726
		c3.209-3.208,8.41-3.208,11.619,0c3.208,3.208,3.208,8.41,0,11.618l-0.725,0.726C398.923,333.882,396.82,334.684,394.717,334.684z"
		/>
	<path style="fill:#FF943D;" d="M417.955,357.923c-2.103,0-4.206-0.802-5.81-2.406c-3.208-3.208-3.208-8.41,0-11.618l0.726-0.726
		c3.209-3.208,8.41-3.208,11.619,0c3.208,3.208,3.208,8.41,0,11.618l-0.726,0.726C422.161,357.12,420.058,357.923,417.955,357.923z"
		/>
	<path style="fill:#FF943D;" d="M441.194,381.161c-2.103,0-4.206-0.802-5.81-2.406c-3.208-3.208-3.208-8.41,0-11.618l0.726-0.726
		c3.209-3.208,8.41-3.208,11.619,0c3.208,3.208,3.208,8.41,0,11.618l-0.726,0.726C445.399,380.359,443.297,381.161,441.194,381.161z
		"/>
	<path style="fill:#FF943D;" d="M371.478,450.877c-2.103,0-4.206-0.802-5.81-2.406c-3.208-3.208-3.208-8.41,0-11.618l0.726-0.726
		c3.209-3.208,8.41-3.208,11.619,0c3.208,3.208,3.208,8.41,0,11.618l-0.726,0.726C375.684,450.074,373.582,450.877,371.478,450.877z
		"/>
	<path style="fill:#FF943D;" d="M40.334,177.826c-2.102,0-4.203-0.801-5.808-2.404c-3.209-3.207-3.211-8.409-0.004-11.618
		l0.726-0.727c3.208-3.209,8.41-3.211,11.618-0.004c3.209,3.207,3.211,8.409,0.004,11.618l-0.726,0.727
		C44.542,177.024,42.437,177.826,40.334,177.826z"/>
	<path style="fill:#FF943D;" d="M63.572,201.065c-2.102,0-4.203-0.801-5.808-2.404c-3.209-3.207-3.211-8.409-0.004-11.618
		l0.726-0.727c3.207-3.209,8.409-3.21,11.618-0.004c3.209,3.207,3.211,8.409,0.004,11.618l-0.726,0.727
		C67.78,200.262,65.676,201.065,63.572,201.065z"/>
	<path style="fill:#FF943D;" d="M86.811,224.303c-2.102,0-4.206-0.802-5.81-2.406c-3.209-3.208-3.209-8.41,0-11.618l0.726-0.726
		c3.208-3.208,8.41-3.208,11.618,0c3.209,3.208,3.209,8.41,0,11.618l-0.726,0.726C91.016,223.501,88.913,224.303,86.811,224.303z"/>
	<path style="fill:#FF943D;" d="M110.049,247.541c-2.102,0-4.206-0.802-5.81-2.406c-3.209-3.208-3.209-8.41,0-11.618l0.726-0.726
		c3.208-3.208,8.41-3.208,11.618,0c3.209,3.208,3.209,8.41,0,11.618l-0.726,0.726C114.254,246.739,112.152,247.541,110.049,247.541z
		"/>
	<path style="fill:#FF943D;" d="M133.287,270.78c-2.102,0-4.206-0.802-5.81-2.406c-3.209-3.208-3.209-8.41,0-11.618l0.726-0.726
		c3.208-3.208,8.41-3.208,11.618,0c3.209,3.208,3.209,8.41,0,11.618l-0.726,0.726C137.492,269.977,135.39,270.78,133.287,270.78z"/>
	<path style="fill:#FF943D;" d="M156.525,294.018c-2.102,0-4.206-0.802-5.81-2.406c-3.209-3.208-3.209-8.41,0-11.618l0.726-0.726
		c3.208-3.208,8.41-3.208,11.618,0c3.209,3.208,3.209,8.41,0,11.618l-0.726,0.726C160.731,293.215,158.628,294.018,156.525,294.018z
		"/>
	<path style="fill:#FF943D;" d="M179.764,317.256c-2.102,0-4.206-0.802-5.81-2.406c-3.209-3.208-3.209-8.41,0-11.618l0.726-0.726
		c3.208-3.208,8.41-3.208,11.618,0c3.209,3.208,3.209,8.41,0,11.618l-0.726,0.726C183.969,316.453,181.866,317.256,179.764,317.256z
		"/>
	<path style="fill:#FF943D;" d="M203.002,340.494c-2.102,0-4.206-0.802-5.81-2.406c-3.209-3.208-3.209-8.41,0-11.618l0.726-0.726
		c3.208-3.208,8.41-3.208,11.618,0c3.209,3.208,3.209,8.41,0,11.618l-0.726,0.726C207.207,339.692,205.104,340.494,203.002,340.494z
		"/>
	<path style="fill:#FF943D;" d="M226.24,363.732c-2.102,0-4.206-0.802-5.81-2.406c-3.209-3.208-3.209-8.41,0-11.618l0.726-0.726
		c3.208-3.208,8.41-3.208,11.618,0c3.209,3.208,3.209,8.41,0,11.618l-0.726,0.726C230.445,362.93,228.343,363.732,226.24,363.732z"
		/>
	<path style="fill:#FF943D;" d="M249.479,386.971c-2.102,0-4.206-0.802-5.81-2.406c-3.209-3.208-3.209-8.41,0-11.618l0.726-0.726
		c3.208-3.208,8.41-3.208,11.618,0c3.208,3.208,3.208,8.41,0,11.618l-0.726,0.726C253.684,386.169,251.581,386.971,249.479,386.971z
		"/>
	<path style="fill:#FF943D;" d="M272.716,410.209c-2.103,0-4.206-0.802-5.81-2.406c-3.208-3.208-3.208-8.41,0-11.618l0.726-0.726
		c3.209-3.208,8.41-3.208,11.619,0c3.208,3.208,3.208,8.41,0,11.618l-0.726,0.726C276.922,409.407,274.82,410.209,272.716,410.209z"
		/>
	<path style="fill:#FF943D;" d="M295.954,433.447c-2.103,0-4.206-0.802-5.81-2.406c-3.208-3.208-3.208-8.41,0-11.618l0.726-0.726
		c3.209-3.208,8.41-3.208,11.619,0c3.208,3.208,3.208,8.41,0,11.618l-0.726,0.726C300.16,432.645,298.057,433.447,295.954,433.447z"
		/>
	<path style="fill:#FF943D;" d="M319.193,456.685c-2.103,0-4.206-0.802-5.81-2.406c-3.208-3.208-3.208-8.41,0-11.618l0.726-0.726
		c3.209-3.208,8.41-3.208,11.619,0c3.208,3.208,3.208,8.41,0,11.618l-0.726,0.726C323.399,455.883,321.296,456.685,319.193,456.685z
		"/>
	<path style="fill:#FF943D;" d="M342.431,479.924c-2.103,0-4.206-0.802-5.81-2.406c-3.208-3.208-3.208-8.41,0-11.618l0.726-0.726
		c3.209-3.208,8.41-3.208,11.619,0c3.208,3.208,3.208,8.41,0,11.618l-0.726,0.726C346.636,479.121,344.534,479.924,342.431,479.924z
		"/>
</g>
<g>
</g>
<g>
</g>
<g>
</g>
<g>
</g>
<g>
</g>
<g>
</g>
<g>
</g>
<g>
</g>
<g>
</g>
<g>
</g>
<g>
</g>
<g>
</g>
<g>
</g>
<g>
</g>
<g>
</g>
</svg>
