<?xml version="1.0" encoding="iso-8859-1"?>
<!-- Generator: Adobe Illustrator 19.0.0, SVG Export Plug-In . SVG Version: 6.00 Build 0)  -->
<svg version="1.1" id="Layer_1" xmlns="http://www.w3.org/2000/svg" xmlns:xlink="http://www.w3.org/1999/xlink" x="0px" y="0px"
	 viewBox="0 0 512 512" style="enable-background:new 0 0 512 512;" xml:space="preserve">
<path style="fill:#898989;" d="M327.5,350.685v20.039c0,4.15-3.358,7.515-7.5,7.515s-7.5-3.364-7.5-7.515v-2.505H270
	c-4.142,0-7.5-3.364-7.5-7.515s3.358-7.515,7.5-7.515h42.5v-2.505c0-4.15,3.358-7.515,7.5-7.515S327.5,346.535,327.5,350.685z"/>
<path style="fill:#B7B7B7;" d="M296,490.959h-80v-240.47h80V490.959z"/>
<path style="fill:#A0A0A0;" d="M296,289.566v10.02v30.059V490.96h-20V359.644c0-16.569-13.431-30-30-30h-30v-40.078H296z"/>
<path style="fill:#C5D3D2;" d="M332,440.841v59.135H180v-59.135c0-5.523,4.477-10,10-10h132
	C327.523,430.841,332,435.319,332,440.841z"/>
<path style="fill:#B4C1BF;" d="M381,491.961V502c0,5.523-4.477,10-10,10H141c-5.523,0-10-4.477-10-10v-10.039
	c0-5.534,4.477-10.02,10-10.02h139c16.569,0,30-13.431,30-30v-11.08c0-5.534-4.477-10.02-10-10.02h22c5.523,0,10,4.486,10,10.02
	v41.08h39C376.523,481.941,381,486.427,381,491.961z"/>
<path style="fill:#C5D3D2;" d="M462,310.607H50c-11.046,0-20-8.954-20-20V20C30,8.954,38.954,0,50,0h412c11.046,0,20,8.954,20,20
	v270.607C482,301.652,473.046,310.607,462,310.607z"/>
<path style="fill:#B4C1BF;" d="M482,20v270.607c0,11.046-8.954,20-20,20l0,0V0l0,0C473.046,0,482,8.954,482,20z"/>
<path style="fill:#F3F3FF;" d="M440,40.059v170.372c0,5.523-4.477,10-10,10H70c-5.523,0-10-4.477-10-10V40.059
	c0-5.523,4.477-10,10-10h360C435.523,30.059,440,34.536,440,40.059z"/>
<path style="fill:#DBFA8E;" d="M110,265.519c0,8.301-6.716,15.029-15,15.029H75c-8.284,0-15-6.729-15-15.029s6.716-15.029,15-15.029
	h20C103.284,250.489,110,257.218,110,265.519z"/>
<path style="fill:#B8F4F2;" d="M190,265.519c0,8.301-6.716,15.029-15,15.029h-20c-8.284,0-15-6.729-15-15.029
	s6.716-15.029,15-15.029h20C183.284,250.489,190,257.218,190,265.519z"/>
<g>
	<path style="fill:#F3F3FF;" d="M270,265.519c0,8.301-6.716,15.029-15,15.029h-20c-8.284,0-15-6.716-15-15v-0.059
		c0-8.284,6.716-15,15-15h20C263.284,250.489,270,257.218,270,265.519z"/>
	<path style="fill:#F3F3FF;" d="M394.333,284.556L394.333,284.556c-10.493,0-19-8.507-19-19v-0.074c0-10.493,8.507-19,19-19l0,0
		c10.493,0,19,8.507,19,19v0.074C413.333,276.049,404.827,284.556,394.333,284.556z"/>
</g>
<path style="fill:#A0A0A0;" d="M394.333,275.538L394.333,275.538c-5.523,0-10-4.477-10-10v-0.039c0-5.523,4.477-10,10-10l0,0
	c5.523,0,10,4.477,10,10v0.039C404.333,271.061,399.856,275.538,394.333,275.538z"/>
<path style="fill:#898989;" d="M423.925,252.995c0-4.15,3.358-7.515,7.5-7.515h10.538c4.142,0,7.5,3.364,7.5,7.515
	s-3.358,7.515-7.5,7.515h-10.538C427.283,260.509,423.925,257.145,423.925,252.995z M442.5,270.528h-10.538
	c-4.142,0-7.5,3.364-7.5,7.515c0,4.15,3.358,7.515,7.5,7.515H442.5c4.142,0,7.5-3.365,7.5-7.515
	C450,273.892,446.642,270.528,442.5,270.528z"/>
<path style="fill:#EA6049;" d="M512,131.256c0,4.15-3.358,7.515-7.5,7.515H402.32c-3.039,0-5.777-1.837-6.935-4.652l-8.743-21.261
	l-14.414,49.558c-0.818,2.812-3.192,4.891-6.082,5.328c-0.375,0.057-0.749,0.084-1.12,0.084c-2.496,0-4.859-1.25-6.26-3.378
	l-16.9-25.679H170.133l-16.9,25.679c-1.61,2.445-4.49,3.729-7.38,3.294c-2.89-0.437-5.264-2.516-6.082-5.328l-14.414-49.558
	l-8.743,21.261c-1.158,2.815-3.896,4.652-6.935,4.652H7.5c-4.142,0-7.5-3.364-7.5-7.515c0-4.15,3.358-7.515,7.5-7.515h97.158
	l14.979-36.428c1.214-2.952,4.168-4.811,7.336-4.641c3.181,0.171,5.907,2.337,6.799,5.402l15.863,54.541l10.198-15.495
	c1.388-2.109,3.74-3.378,6.261-3.378h179.811c2.521,0,4.874,1.269,6.261,3.378l10.198,15.495l15.863-54.541
	c0.892-3.065,3.618-5.23,6.799-5.402c3.165-0.174,6.123,1.69,7.336,4.641l14.979,36.428H504.5
	C508.642,123.742,512,127.106,512,131.256z"/>
<path style="fill:#FC7F59;" d="M242.678,178.664c-24.011-23.988-69.16-77.341-45.004-109.221l0,0
	c11.563-12.434,30.31-12.434,41.873,0l3.854,4.144c6.81,7.323,18.389,7.323,25.199,0l3.854-4.144
	c11.563-12.434,30.31-12.434,41.873,0l0,0c24.156,31.88-20.993,85.233-45.004,109.221c-3.622,3.618-8.379,5.626-13.322,5.626l0,0
	C251.057,184.29,246.3,182.283,242.678,178.664z"/>
<g>
</g>
<g>
</g>
<g>
</g>
<g>
</g>
<g>
</g>
<g>
</g>
<g>
</g>
<g>
</g>
<g>
</g>
<g>
</g>
<g>
</g>
<g>
</g>
<g>
</g>
<g>
</g>
<g>
</g>
</svg>
