<?xml version="1.0" encoding="iso-8859-1"?>
<!-- Generator: Adobe Illustrator 19.0.0, SVG Export Plug-In . SVG Version: 6.00 Build 0)  -->
<svg version="1.1" id="Layer_1" xmlns="http://www.w3.org/2000/svg" xmlns:xlink="http://www.w3.org/1999/xlink" x="0px" y="0px"
	 viewBox="0 0 496 496" style="enable-background:new 0 0 496 496;" xml:space="preserve">
<g>
	<path style="fill:#FFA64D;" d="M352,496H0V0h224l128,128V496z"/>
	<rect x="400" y="128" style="fill:#FFA64D;" width="48" height="48"/>
</g>
<g>
	<polygon style="fill:#333333;" points="224,0 208,0 208,144 352,144 352,128 224,128 	"/>
	<rect x="64" y="176" style="fill:#333333;" width="224" height="16"/>
	<rect x="272" y="208" style="fill:#333333;" width="16" height="16"/>
	<rect x="64" y="208" style="fill:#333333;" width="192" height="16"/>
	<rect x="64" y="240" style="fill:#333333;" width="224" height="16"/>
	<rect x="272" y="272" style="fill:#333333;" width="16" height="16"/>
	<rect x="64" y="272" style="fill:#333333;" width="192" height="16"/>
	<rect x="64" y="304" style="fill:#333333;" width="224" height="16"/>
	<path style="fill:#333333;" d="M479.48,41.312C476.208,18.008,456.192,0,432,0c-26.472,0-48,21.528-48,48v328l33.968,120h28.072
		l33.656-117.8l0.296-147.672C489.288,227.224,496,218.424,496,208V64C496,53.392,489.04,44.472,479.48,41.312z M432,16
		c15.48,0,28.416,11.048,31.36,25.672C454.392,45.152,448,53.816,448,64v144c0,10.416,6.712,19.216,16,22.528V368h-64V48
		C400,30.352,414.352,16,432,16z M402.608,384H461.4l-13.712,48h-31.36L402.608,384z M430.032,480l-9.144-32h22.216l-9.144,32
		H430.032z M480,208c0,4.408-3.592,8-8,8s-8-3.592-8-8V64c0-4.408,3.592-8,8-8s8,3.592,8,8V208z"/>
	<path style="fill:#333333;" d="M208,336h-64v32h-32v64h32v32h64v-32h32v-64h-32V336z M224,384v32h-32v32h-32v-32h-32v-32h32v-32h32
		v32H224z"/>
	<rect x="416" y="336" style="fill:#333333;" width="16" height="16"/>
	<rect x="416" y="192" style="fill:#333333;" width="16" height="128"/>
</g>
<g>
</g>
<g>
</g>
<g>
</g>
<g>
</g>
<g>
</g>
<g>
</g>
<g>
</g>
<g>
</g>
<g>
</g>
<g>
</g>
<g>
</g>
<g>
</g>
<g>
</g>
<g>
</g>
<g>
</g>
</svg>
