<?xml version="1.0" encoding="iso-8859-1"?>
<!-- Generator: Adobe Illustrator 19.0.0, SVG Export Plug-In . SVG Version: 6.00 Build 0)  -->
<svg version="1.1" id="Capa_1" xmlns="http://www.w3.org/2000/svg" xmlns:xlink="http://www.w3.org/1999/xlink" x="0px" y="0px"
	 viewBox="0 0 512 512" style="enable-background:new 0 0 512 512;" xml:space="preserve">
<path style="fill:#DFDFE1;" d="M321,151H191V61h130V151z M221,121h70V91h-70V121z"/>
<polygon style="fill:#AFAEB4;" points="256,61 256,91 291,91 291,121 256,121 256,151 321,151 321,61 "/>
<path style="fill:#DFDFE1;" d="M512,451H0V321h512V451z"/>
<path style="fill:#AFAEB4;" d="M512,451H256V321h256V451z"/>
<rect y="121" style="fill:#F2F2F4;" width="512" height="210"/>
<rect x="256" y="121" style="fill:#DFDFE1;" width="256" height="210"/>
<polygon style="fill:#8FE673;" points="301,211 271,211 271,181 241,181 241,211 211,211 211,241 241,241 241,271 271,271 271,241 
	301,241 "/>
<rect x="361" y="303" style="fill:#888890;" width="30" height="55"/>
<rect x="121" y="303" style="fill:#AFAEB4;" width="30" height="55"/>
<polygon style="fill:#76CC5B;" points="271,211 271,181 256,181 256,271 271,271 271,241 301,241 301,211 "/>
<g>
</g>
<g>
</g>
<g>
</g>
<g>
</g>
<g>
</g>
<g>
</g>
<g>
</g>
<g>
</g>
<g>
</g>
<g>
</g>
<g>
</g>
<g>
</g>
<g>
</g>
<g>
</g>
<g>
</g>
</svg>
