<?xml version="1.0" encoding="iso-8859-1"?>
<!-- Generator: Adobe Illustrator 19.0.0, SVG Export Plug-In . SVG Version: 6.00 Build 0)  -->
<svg version="1.1" id="Capa_1" xmlns="http://www.w3.org/2000/svg" xmlns:xlink="http://www.w3.org/1999/xlink" x="0px" y="0px"
	 viewBox="0 0 512 512" style="enable-background:new 0 0 512 512;" xml:space="preserve">
<g>
	<path style="fill:#FF7058;" d="M256,87.467L87.467,256l-11.733-11.733L35.2,203.733C11.733,180.267,0,150.4,0,119.467
		s11.733-60.8,35.2-84.267c46.933-46.933,122.667-46.933,168.533,0l40.533,40.533L256,87.467z"/>
	<path style="fill:#FF7058;" d="M476.8,308.267l-40.533-40.533L267.733,436.267l40.533,40.533
		c46.933,46.933,122.667,46.933,168.533,0l0,0C523.733,429.867,523.733,355.2,476.8,308.267z"/>
</g>
<g>
	<path style="fill:#F1543F;" d="M361.6,361.6c-6.4,6.4-16,7.467-22.4,3.2c-1.067-1.067-3.2-2.133-4.267-3.2
		c-3.2-3.2-4.267-6.4-5.333-9.6c-1.067-6.4,1.067-11.733,5.333-17.067c4.267-4.267,10.667-6.4,17.067-5.333
		c3.2,1.067,7.467,2.133,10.667,5.333c1.067,1.067,2.133,2.133,3.2,4.267C369.067,345.6,368,355.2,361.6,361.6z"/>
	<path style="fill:#F1543F;" d="M402.133,321.067c-6.4,6.4-14.933,7.467-22.4,3.2c-1.067-1.067-3.2-2.133-4.267-3.2
		c-3.2-3.2-4.267-6.4-5.333-10.667c-1.067-5.333,1.067-11.733,5.333-17.067c4.267-4.267,10.667-6.4,17.067-5.333
		c4.267,1.067,7.467,2.133,9.6,5.333c1.067,1.067,2.133,3.2,3.2,4.267C409.6,305.067,408.533,314.667,402.133,321.067z"/>
	<path style="fill:#F1543F;" d="M321.067,402.133c-6.4,6.4-16,7.467-22.4,3.2c-1.067-1.067-3.2-2.133-4.267-3.2
		c-3.2-3.2-4.267-6.4-5.333-10.667c-1.067-5.333,1.067-11.733,5.333-17.067c4.267-4.267,10.667-6.4,17.067-5.333
		c3.2,0,7.467,2.133,10.667,5.333c1.067,1.067,2.133,3.2,3.2,4.267C327.467,387.2,326.4,396.8,321.067,402.133z"/>
	<circle style="fill:#F1543F;" cx="410.667" cy="370.133" r="19.2"/>
	<circle style="fill:#F1543F;" cx="370.133" cy="410.667" r="19.2"/>
	<circle style="fill:#F1543F;" cx="164.267" cy="164.267" r="19.2"/>
	<circle style="fill:#F1543F;" cx="122.667" cy="204.8" r="19.2"/>
	<circle style="fill:#F1543F;" cx="204.8" cy="122.667" r="19.2"/>
	<circle style="fill:#F1543F;" cx="101.333" cy="141.867" r="19.2"/>
	<circle style="fill:#F1543F;" cx="141.867" cy="101.333" r="19.2"/>
</g>
<rect x="226.278" y="338.511" transform="matrix(-0.7071 0.7071 -0.7071 -0.7071 835.2407 347.0529)" style="fill:#FC644F;" width="238.931" height="16"/>
<g>
	<path style="fill:#ED4432;" d="M324.267,379.733l-26.667,25.6c-1.067-1.067-3.2-2.133-4.267-3.2c-3.2-3.2-4.267-6.4-5.333-10.667
		l21.333-21.333c3.2,0,7.467,2.133,10.667,5.333C322.133,376.533,323.2,378.667,324.267,379.733z"/>
	<path style="fill:#ED4432;" d="M364.8,339.2l-25.6,25.6c-1.067-1.067-3.2-2.133-4.267-3.2c-3.2-3.2-4.267-6.4-5.333-9.6
		l21.333-22.4c3.2,1.067,7.467,2.133,10.667,5.333C362.667,336,363.733,337.067,364.8,339.2z"/>
	<path style="fill:#ED4432;" d="M405.333,297.6l-25.6,25.6c-1.067-1.067-3.2-2.133-4.267-3.2c-3.2-3.2-4.267-6.4-5.333-10.667
		l22.4-22.4c4.267,1.067,7.467,2.133,9.6,5.333C404.267,295.467,405.333,296.533,405.333,297.6z"/>
</g>
<g>
	
		<rect x="136.513" y="136.558" transform="matrix(0.7071 0.7071 -0.7071 0.7071 256.0104 -106.0167)" style="fill:#FFD15C;" width="238.931" height="238.931"/>
	<path style="fill:#FFD15C;" d="M476.8,35.2L476.8,35.2c-46.933-46.933-122.667-46.933-168.533,0L35.2,308.267
		c-46.933,46.933-46.933,122.667,0,168.533l0,0c46.933,46.933,122.667,46.933,168.533,0L476.8,203.733
		C523.733,156.8,523.733,82.133,476.8,35.2z"/>
</g>
<rect id="SVGCleanerId_0" x="165.18" y="178.824" transform="matrix(0.7071 -0.7071 0.7071 0.7071 -105.6609 256.1578)" style="fill:#FF7058;" width="182.398" height="153.599"/>
<g>
	
		<rect id="SVGCleanerId_0_1_" x="165.18" y="178.824" transform="matrix(0.7071 -0.7071 0.7071 0.7071 -105.6609 256.1578)" style="fill:#FF7058;" width="182.398" height="153.599"/>
</g>
<rect x="137.346" y="190.066" transform="matrix(0.7071 -0.7071 0.7071 0.7071 -94.6104 228.5215)" style="fill:#F1543F;" width="182.398" height="76.799"/>
<g>
	<circle style="fill:#F8B64C;" cx="347.733" cy="164.267" r="19.2"/>
	<circle style="fill:#F8B64C;" cx="389.333" cy="204.8" r="19.2"/>
	<circle style="fill:#F8B64C;" cx="307.2" cy="122.667" r="19.2"/>
	<circle style="fill:#F8B64C;" cx="410.667" cy="141.867" r="19.2"/>
	<circle style="fill:#F8B64C;" cx="370.133" cy="101.333" r="19.2"/>
	<circle style="fill:#F8B64C;" cx="164.267" cy="347.733" r="19.2"/>
	<circle style="fill:#F8B64C;" cx="122.667" cy="307.2" r="19.2"/>
	<circle style="fill:#F8B64C;" cx="204.8" cy="389.333" r="19.2"/>
	<circle style="fill:#F8B64C;" cx="101.333" cy="370.133" r="19.2"/>
	<circle style="fill:#F8B64C;" cx="141.867" cy="410.667" r="19.2"/>
</g>
<g>
</g>
<g>
</g>
<g>
</g>
<g>
</g>
<g>
</g>
<g>
</g>
<g>
</g>
<g>
</g>
<g>
</g>
<g>
</g>
<g>
</g>
<g>
</g>
<g>
</g>
<g>
</g>
<g>
</g>
</svg>
