<?xml version="1.0" encoding="iso-8859-1"?>
<!-- Generator: Adobe Illustrator 19.0.0, SVG Export Plug-In . SVG Version: 6.00 Build 0)  -->
<svg version="1.1" id="Capa_1" xmlns="http://www.w3.org/2000/svg" xmlns:xlink="http://www.w3.org/1999/xlink" x="0px" y="0px"
	 viewBox="0 0 512 512" style="enable-background:new 0 0 512 512;" xml:space="preserve">
<path style="fill:#F74A4F;" d="M507.619,152.57c-25.13-116.798-172.915-127.704-239.06-40.35
	c-4.631,6.116-9.184,12.59-12.556,19.512c0,0-7.931-13.396-12.562-19.512c-66.144-87.354-213.93-76.448-239.06,40.35
	C-17.28,253.248,43.53,343.302,139.369,376.461c18.49,6.406,36.646,14.208,54.155,22.922c16.191,8.058,37.559,18.284,51.296,33.033
	c5.892,6.326,15.867,6.637,22.052,0.598c6.159-6.013,13.597-11.284,18.732-14.799c12.137-8.308,25.237-15.22,38.485-21.568
	c15.773-7.557,32.005-14.462,48.542-20.186C468.469,343.302,529.28,253.248,507.619,152.57z"/>
<path style="fill:#CD3F48;" d="M372.632,376.461c-0.01,0-26.384,9.132-54.153,22.924c-19.284,9.577-39.235,21.401-51.488,33.981
	c-6.013,6.173-16.02,6.106-22.039-0.062c-5.23-5.359-11.856-10.581-19.231-15.552c11.364-14.494,34.122-28.254,56.012-39.132
	c27.758-13.791,54.143-22.924,54.153-22.924c95.837-33.161,156.643-123.213,134.99-223.884
	c-6.519-30.269-21.271-53.43-40.703-69.597c36.901,13.048,67.252,42.996,77.448,90.351
	C529.275,253.248,468.469,343.3,372.632,376.461z"/>
<circle style="fill:#6BECA7;" cx="119.54" cy="380.35" r="77.02"/>
<circle style="fill:#FFDB76;" cx="119.54" cy="380.35" r="77.02"/>
<path style="fill:#FFC764;" d="M196.547,380.346c0,42.541-34.473,77.025-77.014,77.025c-27.696,0-51.983-14.628-65.548-36.581
	c11.746,7.252,25.589,11.436,40.403,11.436c42.541,0,77.025-34.483,77.025-77.025c0-14.814-4.184-28.657-11.436-40.403
	C181.93,328.362,196.547,352.649,196.547,380.346z"/>
<path style="fill:#F74A4F;" d="M108.688,421.164c-2.219,0-4.333-0.984-5.761-2.699l-23.243-27.891
	c-2.652-3.182-2.222-7.911,0.96-10.563c3.181-2.652,7.911-2.223,10.563,0.96l16.848,20.217l39.351-58.347
	c2.316-3.435,6.978-4.34,10.412-2.025c3.435,2.316,4.341,6.978,2.025,10.412l-44.936,66.629c-1.319,1.956-3.482,3.177-5.838,3.297
	C108.942,421.161,108.815,421.164,108.688,421.164z"/>
<g>
</g>
<g>
</g>
<g>
</g>
<g>
</g>
<g>
</g>
<g>
</g>
<g>
</g>
<g>
</g>
<g>
</g>
<g>
</g>
<g>
</g>
<g>
</g>
<g>
</g>
<g>
</g>
<g>
</g>
</svg>
