<?xml version="1.0" encoding="iso-8859-1"?>
<!-- Generator: Adobe Illustrator 19.0.0, SVG Export Plug-In . SVG Version: 6.00 Build 0)  -->
<svg version="1.1" id="Capa_1" xmlns="http://www.w3.org/2000/svg" xmlns:xlink="http://www.w3.org/1999/xlink" x="0px" y="0px"
	 viewBox="0 0 512 512" style="enable-background:new 0 0 512 512;" xml:space="preserve">
<path style="fill:#69F0F7;" d="M501.333,181.333v256c-0.035,11.767-9.566,21.298-21.333,21.333H330.667L288,501.333v-42.667H138.667
	c-11.767-0.035-21.298-9.566-21.333-21.333v-64H192V416l42.667-42.667h138.667c11.538,0.244,21.089-8.911,21.333-20.449
	c0.006-0.295,0.006-0.589,0-0.884V160H480C491.768,160.035,501.298,169.566,501.333,181.333z"/>
<path style="fill:#D9EEF7;" d="M32,256h149.333c11.767-0.035,21.298-9.566,21.333-21.333v-160h170.667
	c11.767,0.035,21.298,9.566,21.333,21.333v256c0.244,11.538-8.911,21.089-20.449,21.333c-0.295,0.006-0.589,0.006-0.884,0H234.667
	L192,416v-42.667H32c-11.767-0.035-21.298-9.566-21.333-21.333V234.667C10.702,246.434,20.233,255.965,32,256z"/>
<path style="fill:#FFE451;" d="M202.667,74.667v160c-0.035,11.767-9.566,21.298-21.333,21.333H32
	c-11.767-0.035-21.298-9.566-21.333-21.333v-160H202.667z"/>
<g>
	<path style="fill:#4C5B66;" d="M480,149.333h-53.333v21.333H480c5.891,0,10.667,4.776,10.667,10.667v256
		c0,5.891-4.776,10.667-10.667,10.667H330.667c-2.829,0.001-5.541,1.125-7.541,3.125l-24.459,24.459v-16.917
		c0-5.891-4.776-10.667-10.667-10.667H138.667c-5.891,0-10.667-4.776-10.667-10.667v-32h-21.333v32c0,17.673,14.327,32,32,32
		h138.667v32c-0.001,4.314,2.596,8.204,6.581,9.856c1.294,0.54,2.683,0.815,4.085,0.811c2.829-0.001,5.541-1.125,7.541-3.125
		l39.541-39.541H480c17.673,0,32-14.327,32-32v-256C512,163.66,497.673,149.333,480,149.333z"/>
	<path style="fill:#4C5B66;" d="M384,96v106.667h21.333V96c0-17.673-14.327-32-32-32h-128v21.333h128
		C379.224,85.333,384,90.109,384,96z"/>
	<path style="fill:#4C5B66;" d="M181.333,416c-0.001,4.314,2.596,8.204,6.581,9.856c1.294,0.54,2.683,0.815,4.085,0.811
		c2.829-0.001,5.541-1.125,7.541-3.125L239.083,384h27.584v-21.333h-32c-2.829,0.001-5.541,1.125-7.541,3.125l-24.459,24.459
		v-16.917c0-5.891-4.776-10.667-10.667-10.667H32c-5.891,0-10.667-4.776-10.667-10.667v-53.333H0V352c0,17.673,14.327,32,32,32
		h149.333L181.333,416z"/>
	<path style="fill:#4C5B66;" d="M32,266.667h149.333c17.673,0,32-14.327,32-32v-160c0-5.891-4.776-10.667-10.667-10.667H160V21.333
		C160,9.551,150.449,0,138.667,0h-64C62.885,0,53.333,9.551,53.333,21.333V64H10.667C4.776,64,0,68.776,0,74.667v160
		C0,252.34,14.327,266.667,32,266.667z M74.667,21.333h64V64h-64V21.333z M21.333,85.333h32v32h21.333v-32h64v32H160v-32h32v149.333
		c0,5.891-4.776,10.667-10.667,10.667H32c-5.891,0-10.667-4.776-10.667-10.667V85.333z"/>
	<path style="fill:#4C5B66;" d="M266.667,330.667c2.829-0.001,5.541-1.125,7.541-3.125l42.667-42.667l-15.083-15.083l-24.459,24.459
		v-48.917H384V224H277.333c-11.538-0.244-21.089,8.911-21.333,20.449c-0.006,0.295-0.006,0.589,0,0.884v48.917l-24.459-24.459
		l-15.083,15.083l42.667,42.667C261.125,329.542,263.838,330.666,266.667,330.667L266.667,330.667z"/>
	<path style="fill:#4C5B66;" d="M380.875,327.541l24.459-24.459V352H298.667v21.333h106.667
		c11.538,0.244,21.089-8.911,21.333-20.449c0.006-0.295,0.006-0.589,0-0.884v-48.917l24.459,24.459l15.083-15.083l-42.667-42.667
		c-4.165-4.164-10.917-4.164-15.083,0l-42.667,42.667L380.875,327.541z"/>
	<path style="fill:#4C5B66;" d="M245.333,117.333h21.333v21.333h-21.333V117.333z"/>
	<path style="fill:#4C5B66;" d="M288,117.333h21.333v21.333H288V117.333z"/>
	<path style="fill:#4C5B66;" d="M245.333,160H352v21.333H245.333V160z"/>
</g>
<g>
</g>
<g>
</g>
<g>
</g>
<g>
</g>
<g>
</g>
<g>
</g>
<g>
</g>
<g>
</g>
<g>
</g>
<g>
</g>
<g>
</g>
<g>
</g>
<g>
</g>
<g>
</g>
<g>
</g>
</svg>
