<?xml version="1.0" encoding="iso-8859-1"?>
<!-- Generator: Adobe Illustrator 19.0.0, SVG Export Plug-In . SVG Version: 6.00 Build 0)  -->
<svg version="1.1" id="Capa_1" xmlns="http://www.w3.org/2000/svg" xmlns:xlink="http://www.w3.org/1999/xlink" x="0px" y="0px"
	 viewBox="0 0 479.481 479.481" style="enable-background:new 0 0 479.481 479.481;" xml:space="preserve">
<g>
	<g>
		<path style="fill:#EDB288;" d="M462.89,281.033c9.198,11.165,7.807,27.63-3.135,37.094l-74.188,61.649
			c-28.036,23.007-63.55,34.907-99.788,33.437l-107.624-4.702c-12.057-0.607-24.143,0.094-36.049,2.09l-44.931,8.359h-3.135V286.257
			h2.09l46.498-22.465c23.436-12.44,49.77-18.393,76.278-17.241l71.053,3.135h1.567c14.713,0.289,26.406,12.45,26.117,27.163
			c-0.245,12.503-9.153,23.152-21.415,25.605l-52.767,9.404c-8.501,1.634-14.067,9.849-12.434,18.35
			c0.351,1.824,1.023,3.571,1.985,5.16l5.747,9.404c2.411,5.226,7.853,8.366,13.584,7.837l51.2-1.567
			c19.294-0.635,37.84-7.613,52.767-19.853l68.441-54.857c11.306-9.419,28.107-7.89,37.526,3.416
			c0.209,0.251,0.413,0.505,0.612,0.763L462.89,281.033z"/>
		<polygon style="fill:#87E680;" points="436.767,27.122 379.82,79.89 297.796,79.89 297.796,77.8 353.698,25.555 355.265,27.122 		
			"/>
		<polygon style="fill:#3BB54A;" points="358.922,20.853 353.698,25.555 297.796,77.8 297.796,79.89 297.796,211.547 
			297.796,215.204 184.424,215.204 184.424,211.547 184.424,79.89 184.424,77.8 237.714,28.167 245.551,20.853 		"/>
		<polygon style="fill:#87E680;" points="236.669,27.122 237.714,28.167 184.424,77.8 184.424,79.89 106.58,79.89 163.527,27.122 		
			"/>
		<path style="fill:#00ACEA;" d="M94.041,418.959v18.808c0.292,11.249-8.59,20.606-19.839,20.898c-0.353,0.009-0.706,0.009-1.059,0
			H32.392c-11.249,0.292-20.606-8.59-20.898-19.839c-0.009-0.353-0.009-0.706,0-1.059V285.735c0-11.542,9.356-20.898,20.898-20.898
			h40.751c11.542,0,20.898,9.356,20.898,20.898l0,0V418.959z"/>
	</g>
	<g>
		<path style="fill:#224099;" d="M471.771,274.763L471.771,274.763c-0.522-0.522-0.522-1.045-1.045-1.045
			c-13.152-15.849-36.512-18.393-52.767-5.747l-67.918,55.38c-13.261,10.563-29.556,16.605-46.498,17.241l-51.2,1.567
			c-1.903-0.038-3.664-1.016-4.702-2.612l-5.747-9.404c-0.64-1.663-0.82-3.468-0.522-5.224c1.017-1.363,2.508-2.296,4.18-2.612
			l52.767-9.927c18.919-3.92,31.791-21.535,29.78-40.751c-1.885-18.758-17.72-33.009-36.571-32.914h-1.567l-71.053-2.612
			c-28.135-1.167-56.076,5.142-80.98,18.286l-36.571,18.286c-5.266-10.731-16.261-17.45-28.212-17.241H32.392
			C15.089,254.846,0.588,268.397,0.001,285.7c0,0.012-0.001,0.023-0.001,0.035v152.033c0.556,17.568,14.817,31.599,32.392,31.869
			h40.751c17.397-0.285,31.349-14.47,31.347-31.869v-9.927l38.661-6.792c11.376-2.014,22.946-2.715,34.482-2.09l107.624,4.702
			c38.829,2.055,76.97-10.845,106.58-36.049l74.71-61.649C481.518,312.945,483.804,290.537,471.771,274.763z M83.592,438.29
			c0,5.771-4.678,10.449-10.449,10.449H31.347c-5.771,0-10.449-4.678-10.449-10.449v-151.51c0-5.771,4.678-10.449,10.449-10.449
			h41.796c5.771,0,10.449,4.678,10.449,10.449V438.29z M452.963,309.767l-74.188,62.171c-25.949,21.362-58.897,32.344-92.473,30.824
			l-107.624-4.702c-12.925-0.635-25.88,0.065-38.661,2.09l-35.527,6.792V293.571l42.841-20.376
			c21.767-11.77,46.336-17.37,71.053-16.196l71.053,2.612c0.522,0.522,1.045,0,1.567,0h0.522c8.917,0.702,15.577,8.5,14.875,17.417
			c-0.548,6.956-5.489,12.779-12.262,14.452l-52.767,9.927c-14.406,3.004-23.649,17.117-20.645,31.523
			c0.56,2.687,1.532,5.271,2.882,7.661l5.747,9.927c5.108,7.999,14.021,12.753,23.51,12.539l51.2-1.567
			c21.51-0.859,42.187-8.545,59.037-21.943l67.918-55.38c3.52-2.454,7.726-3.734,12.016-3.657c4.387,0.507,8.456,2.541,11.494,5.747
			c0,0.522,0,1.045,0.522,1.045c5.647,6.561,4.906,16.457-1.654,22.104C453.256,309.529,453.111,309.649,452.963,309.767z"/>
		<path style="fill:#224099;" d="M445.649,172.363c-3.133-4.908-9.554-6.513-14.629-3.657l-54.335,34.482h-68.441V182.29h71.575
			c2.251-0.418,4.388-1.308,6.269-2.612l56.947-41.796c5.173-2.557,7.294-8.824,4.737-13.997c-2.557-5.173-8.824-7.294-13.997-4.737
			c-1.252,0.619-2.367,1.482-3.279,2.539l-53.812,39.706h-68.441v-26.122h71.575c2.288,0.194,4.555-0.562,6.269-2.09l56.947-44.931
			c4.617-3.462,5.552-10.012,2.09-14.629c-3.462-4.617-10.012-5.552-14.629-2.09l0,0l-54.335,42.841h-67.918V88.249h71.575
			c2.545,0.308,5.119-0.244,7.314-1.567l56.947-52.767c3.155-2.928,4.192-7.49,2.612-11.494c-1.71-4.079-5.524-6.889-9.927-7.314
			h-67.918c-2.09,0-5.747-5.224-9.927-5.224H245.551c-2.45-0.218-4.888,0.532-6.792,2.09l-4.18,3.135h-71.053
			c-2.818,0.231-5.439,1.541-7.314,3.657l-56.947,53.29c-3.124,2.497-4.194,6.775-2.612,10.449c1.755,3.827,5.734,6.13,9.927,5.747
			h65.829v26.122H106.58c-5.771,0-10.449,4.678-10.449,10.449c0,5.771,4.678,10.449,10.449,10.449h65.829v26.122H106.58
			c-5.771,0-10.449,4.678-10.449,10.449s4.678,10.449,10.449,10.449h65.829v20.898H106.58c-5.771,0-10.449,4.678-10.449,10.449
			c0,5.771,4.678,10.449,10.449,10.449H379.82c1.976,0.205,3.97-0.157,5.747-1.045l56.947-36.571
			C447.166,183.364,448.548,177.146,445.649,172.363z M410.122,36.004l-34.482,31.347h-53.812l33.959-31.347H410.122z
			 M133.224,67.351l34.482-31.347h44.408l-33.959,31.347H133.224z M287.347,203.188h-94.041V81.979l56.424-51.2h82.547
			l-41.796,39.184c-2.1,2.055-3.238,4.9-3.135,7.837V203.188z"/>
	</g>
</g>
<g>
</g>
<g>
</g>
<g>
</g>
<g>
</g>
<g>
</g>
<g>
</g>
<g>
</g>
<g>
</g>
<g>
</g>
<g>
</g>
<g>
</g>
<g>
</g>
<g>
</g>
<g>
</g>
<g>
</g>
</svg>
