<?xml version="1.0" encoding="iso-8859-1"?>
<!-- Generator: Adobe Illustrator 19.0.0, SVG Export Plug-In . SVG Version: 6.00 Build 0)  -->
<svg version="1.1" id="Capa_1" xmlns="http://www.w3.org/2000/svg" xmlns:xlink="http://www.w3.org/1999/xlink" x="0px" y="0px"
	 viewBox="0 0 433.633 433.633" style="enable-background:new 0 0 433.633 433.633;" xml:space="preserve">
<path style="fill:#00ACEA;" d="M420.049,150.008L234.58,21.486c-10.449-7.837-25.078-7.837-35.527,0L13.584,150.008
	c-5.224,3.657-8.882,8.359-10.971,14.106H4.18l92.473,120.163h242.416l90.384-120.163l1.567-1.045
	C428.931,157.845,424.751,153.143,420.049,150.008z"/>
<path style="fill:#FEDB41;" d="M339.069,279.053l-44.408,53.29l-3.657,6.792l-59.037-32.914c-9.404-5.224-20.898-5.224-30.302,0
	l-55.902,31.347l-3.657-6.792l-45.453-53.29l0,0V131.2H336.98v146.286L339.069,279.053z"/>
<path style="fill:#00EFD1;" d="M433.633,175.608v211.069c0,9.404-4.18,18.286-11.494,24.033l-1.045-3.135l-130.09-73.143
	l3.657-6.792l44.408-53.29l90.384-109.714h2.09C432.588,168.294,433.633,171.951,433.633,175.608z"/>
<path style="fill:#00CEB4;" d="M421.094,407.576l1.045,3.135c-5.747,4.702-12.539,7.314-19.853,7.314H31.347
	c-8.359,0-16.196-3.135-21.943-9.404l3.135-1.045l133.224-74.71l55.902-31.347c9.404-5.747,20.898-5.747,30.302,0l59.037,32.914
	L421.094,407.576z"/>
<path style="fill:#00EFD1;" d="M12.539,407.576l-3.135,1.045C3.135,402.874,0,395.037,0,386.678V175.608
	c0-3.657,1.045-7.837,2.09-11.494h2.09l92.473,108.669l45.453,53.29l3.657,6.792L12.539,407.576z"/>
<g>
	<path style="fill:#3BB54A;" d="M238.759,272.784c-6.269,0-12.539-1.567-17.763-4.702c-3.135-1.567-6.269-2.09-9.404-1.567
		l-14.106,1.567c-4.18,0.522-8.359-1.567-10.449-5.224c-2.09-3.657-1.567-7.837,0.522-10.971l3.657-5.225
		c2.612-3.135,4.18-7.314,4.702-11.494l0,0v-12.539l0,0v-2.09l0,0c-0.522-3.657-1.045-6.792-2.09-10.449
		c-1.567-5.224-2.09-10.449-2.09-15.673c0-4.18,0.522-8.359,2.09-12.016c1.567-4.18,3.657-7.314,6.792-10.449
		c3.135-3.135,6.792-5.224,10.449-7.314c4.18-1.567,8.359-2.09,13.061-2.09c16.196,0,28.212,8.882,31.347,24.033
		c1.567,5.747-1.567,11.494-6.792,13.061c-5.224,1.567-11.494-1.567-13.061-6.792c0-0.522-0.522-1.567-0.522-2.09
		c-1.045-3.657-2.612-7.314-10.971-7.314h-4.702c-1.567,0.522-2.612,1.567-3.657,2.612l-2.612,3.657
		c-0.522,1.567-0.522,2.612-0.522,4.18c0,3.657,0.522,6.792,1.567,10.449c1.045,4.702,2.09,9.404,2.09,14.106l0,0
		c0.522,1.045,0.522,2.09,0.522,3.135c0.522,4.702,0.522,9.404,0,14.106l0,0c-0.522,3.135-1.045,6.269-2.09,9.404
		c5.747,0,10.971,1.567,15.673,4.18c4.18,2.09,8.882,2.612,13.061,1.045l5.224-1.567c5.747-1.567,11.494,1.567,13.061,7.314
		c2.09,5.224-1.045,10.971-5.747,12.539c-0.522,0-1.045,0.522-1.567,0.522l-4.702,1.567
		C246.074,271.739,242.416,272.784,238.759,272.784z"/>
	<path style="fill:#3BB54A;" d="M227.265,232.555h-47.02c-5.747,0-10.449-4.702-10.449-10.449c0-5.747,4.702-10.449,10.449-10.449
		h47.02c5.747,0,10.449,4.702,10.449,10.449C237.714,227.853,233.012,232.555,227.265,232.555z"/>
</g>
<g>
</g>
<g>
</g>
<g>
</g>
<g>
</g>
<g>
</g>
<g>
</g>
<g>
</g>
<g>
</g>
<g>
</g>
<g>
</g>
<g>
</g>
<g>
</g>
<g>
</g>
<g>
</g>
<g>
</g>
</svg>
