<?xml version="1.0" encoding="iso-8859-1"?>
<!-- Generator: Adobe Illustrator 19.0.0, SVG Export Plug-In . SVG Version: 6.00 Build 0)  -->
<svg version="1.1" id="Capa_1" xmlns="http://www.w3.org/2000/svg" xmlns:xlink="http://www.w3.org/1999/xlink" x="0px" y="0px"
	 viewBox="0 0 492.17 492.17" style="enable-background:new 0 0 492.17 492.17;" xml:space="preserve">
<g>
	<g>
		<path style="fill:#00EFD1;" d="M369.906,435.217c5.382,5.412,8.389,12.743,8.359,20.376c0.112,7.802-2.898,15.325-8.359,20.898
			c-5.634,5.366-13.117,8.359-20.898,8.359c-7.633,0.03-14.963-2.977-20.376-8.359c-11.257-11.592-10.985-30.115,0.607-41.371
			c5.308-5.154,12.371-8.106,19.768-8.261C356.789,426.858,364.271,429.851,369.906,435.217z"/>
		<g>
			<path style="fill:#EDB288;" d="M121.22,163.021v49.11c-13.357-0.284-24.036-11.195-24.033-24.555
				c-0.12-6.525,2.54-12.793,7.314-17.241C108.862,165.746,114.89,163.109,121.22,163.021z"/>
			<path style="fill:#EDB288;" d="M382.444,170.335c4.775,4.448,7.434,10.716,7.314,17.241c0.003,13.36-10.676,24.271-24.033,24.555
				v-49.11C372.056,163.109,378.084,165.746,382.444,170.335z"/>
			<path style="fill:#EDB288;" d="M287.359,358.417v1.045l-41.273,41.796l-41.796-41.796v-31.347
				c12.612,4.295,25.862,6.415,39.184,6.269c14.648,0.129,29.187-2.53,42.841-7.837l1.045,3.135V358.417z"/>
		</g>
		<path style="fill:#F7CAA5;" d="M121.22,212.131v-73.143c0,0,58.514,9.404,102.922-49.11h141.584v122.253l0,0
			c-0.035,50.963-31.681,96.558-79.412,114.416l0,0c-13.654,5.306-28.193,7.966-42.841,7.837
			c-13.147,0.087-26.215-2.032-38.661-6.269C154.582,311.894,120.722,264.913,121.22,212.131L121.22,212.131z"/>
		<g>
			<path style="fill:#4B5D63;" d="M224.142,89.356L224.142,89.356c-44.408,58.514-102.922,49.11-102.922,49.11V89.878
				c0,0,8.359-60.604,67.396-60.082c-2.727,5.712-4.154,11.957-4.18,18.286C184.685,70.171,202.08,88.253,224.142,89.356z"/>
			<path style="fill:#4B5D63;" d="M188.616,29.797c2.127-4.27,4.952-8.155,8.359-11.494c7.77-7.732,18.296-12.055,29.257-12.016
				h85.682c46.166,0,83.592,37.425,83.592,83.592l0,0H224.142c-22.063-1.103-39.458-19.184-39.706-41.273
				C184.383,42.099,185.813,35.667,188.616,29.797z"/>
		</g>
	</g>
	<g>
		<path style="fill:#083863;" d="M290.493,445.666h-10.449c-4.328,0-7.837-3.509-7.837-7.837s3.509-7.837,7.837-7.837l0,0h10.449
			c4.328,0,7.837,3.509,7.837,7.837S294.821,445.666,290.493,445.666z"/>
		<path style="fill:#083863;" d="M290.493,477.013h-10.449c-4.328,0-7.837-3.509-7.837-7.837s3.509-7.837,7.837-7.837l0,0h10.449
			c4.328,0,7.837,3.509,7.837,7.837S294.821,477.013,290.493,477.013z"/>
		<path style="fill:#083863;" d="M191.228,203.25c-7.61-0.08-14.901-3.071-20.376-8.359c-5.2-5.531-8.177-12.786-8.359-20.376
			v-5.224c0-4.328,3.509-7.837,7.837-7.837c4.328,0,7.837,3.509,7.837,7.837v5.224c0.097,3.307,1.397,6.465,3.657,8.882
			c2.431,2.621,5.829,4.132,9.404,4.18c7.214,0,13.061-5.848,13.061-13.061v-5.224c0-4.328,3.509-7.837,7.837-7.837
			c4.328,0,7.837,3.509,7.837,7.837v5.224C219.963,190.385,207.098,203.25,191.228,203.25z"/>
		<path style="fill:#083863;" d="M295.718,203.25c-7.61-0.08-14.901-3.071-20.376-8.359c-5.2-5.531-8.177-12.786-8.359-20.376
			v-5.224c0-4.328,3.509-7.837,7.837-7.837c4.328,0,7.837,3.509,7.837,7.837v5.224c0.097,3.307,1.397,6.465,3.657,8.882
			c2.431,2.621,5.829,4.132,9.404,4.18c7.214,0,13.061-5.848,13.061-13.061v-5.224c0-4.328,3.509-7.837,7.837-7.837
			c4.328,0,7.837,3.509,7.837,7.837v5.224C324.453,190.385,311.588,203.25,295.718,203.25z"/>
		<path style="fill:#083863;" d="M347.963,350.058h-54.857V331.25c46.051-18.828,77.02-62.633,79.412-112.327
			c14.294-3.752,24.335-16.57,24.555-31.347c-0.23-8.761-4-17.054-10.449-22.988c-4.297-3.975-9.497-6.844-15.151-8.359V99.282
			h24.033c4.328,0,7.837-3.509,7.837-7.837C403.057,41.07,362.29,0.303,311.914,0.017h-85.682
			c-13.017-0.346-25.628,4.548-35.004,13.584c-2.55,2.731-4.825,5.705-6.792,8.882c-49.11,2.09-66.351,43.886-69.486,66.351l0,0
			v67.918c-5.775,1.323-11.15,4.01-15.673,7.837c-6.072,6.148-9.615,14.352-9.927,22.988c-0.088,14.542,9.525,27.36,23.51,31.347
			c1.225,31.936,14.256,62.281,36.571,85.159c12.658,12.672,27.769,22.627,44.408,29.257v16.718h-49.633
			c-50.747,0.855-91.436,42.242-91.429,92.996v26.122c0,4.328,3.509,7.837,7.837,7.837s7.837-3.509,7.837-7.837v-26.122
			c-0.024-40.839,32.328-74.347,73.143-75.755v16.196c-8.797,2.055-16.903,6.378-23.51,12.539
			c-8.351,8.72-13.028,20.318-13.061,32.392v52.245c0,4.18,3.135,10.449,7.314,10.449h15.151c4.328,0,7.837-3.509,7.837-7.837
			s-3.509-7.837-7.837-7.837h-6.792v-47.02c-0.233-7.824,2.794-15.393,8.359-20.898c5.215-5.731,12.628-8.962,20.376-8.882
			c15.87-0.01,28.743,12.846,28.754,28.716c0,0.355-0.006,0.709-0.019,1.064v47.02h-9.404c-4.328,0-7.837,3.509-7.837,7.837
			s3.509,7.837,7.837,7.837h18.808c4.18,0,6.269-6.269,6.269-10.449v-52.245c0.602-21.961-14.945-41.062-36.571-44.931v-17.763
			h43.886l34.482,38.661v64.784c0,4.328,3.509,7.837,7.837,7.837c4.328,0,7.837-3.509,7.837-7.837v-64.784l39.706-38.661h49.11
			v53.812h0.522c-19.709,4.415-32.108,23.972-27.693,43.681c1.526,6.814,4.972,13.049,9.93,17.968
			c6.845,7.069,16.283,11.033,26.122,10.971c9.865,0.188,19.35-3.796,26.122-10.971c14.283-13.87,14.617-36.693,0.747-50.975
			c-0.245-0.253-0.494-0.502-0.747-0.747c-5.218-5.002-11.734-8.441-18.808-9.927h-0.522v-51.722
			c36.571,4.702,67.918,36.571,67.918,75.233v26.122c0,4.328,3.509,7.837,7.837,7.837s7.837-3.509,7.837-7.837v-26.122
			C439.399,392.3,398.71,350.913,347.963,350.058z M115.473,201.682c-5.542-2.555-9.177-8.008-9.404-14.106
			c0.285-4.599,2.345-8.908,5.747-12.016c0.522-0.522-1.567-1.567,3.657-2.09L115.473,201.682z M243.473,390.286l-33.959-33.959
			v-17.763c10.259,2.502,20.787,3.73,31.347,3.657c12.39,0.206,24.734-1.558,36.571-5.225v19.331L243.473,390.286z M375.653,175.56
			c3.112,3.215,4.806,7.543,4.702,12.016c-0.007,6.017-3.459,11.499-8.882,14.106V173.47
			C376.697,173.993,375.13,175.038,375.653,175.56z M195.93,33.454L195.93,33.454c1.48-3.196,3.616-6.044,6.269-8.359
			c6.362-6.328,15.065-9.734,24.033-9.404h85.682c39.241-1.221,72.447,28.757,75.233,67.918H224.142
			c-17.891-1.879-31.445-17.014-31.347-35.004C192.779,43.392,193.847,38.232,195.93,33.454z M131.146,90.401
			c0-5.224,7.314-45.976,48.065-51.722c-1.024,3.03-1.553,6.206-1.567,9.404c0.177,21.015,13.571,39.641,33.437,46.498
			c-20.13,23.206-49.217,36.704-79.935,37.094V90.401z M131.146,212.131v-64.784c0,0,0,1.045,0.522,1.045
			c19.853,0,61.127-7.314,96.131-49.11h128v112.849c0.311,47.452-28.831,90.125-73.143,107.102c-0.522,0,0,0.522-0.522,0.522
			c-41.31,15.541-87.904,5.073-118.596-26.645C142.12,271.684,130.414,242.419,131.146,212.131z M370.428,455.593
			c-0.204,5.639-2.429,11.017-6.269,15.151c-3.985,4.067-9.458,6.331-15.151,6.269c-5.537,0.042-10.84-2.231-14.629-6.269
			c-8.223-8.223-8.223-21.556,0-29.78c8.223-8.223,21.556-8.223,29.78,0C367.924,444.938,370.147,450.125,370.428,455.593z"/>
	</g>
</g>
<g>
</g>
<g>
</g>
<g>
</g>
<g>
</g>
<g>
</g>
<g>
</g>
<g>
</g>
<g>
</g>
<g>
</g>
<g>
</g>
<g>
</g>
<g>
</g>
<g>
</g>
<g>
</g>
<g>
</g>
</svg>
