<?xml version="1.0" encoding="iso-8859-1"?>
<!-- Generator: Adobe Illustrator 19.0.0, SVG Export Plug-In . SVG Version: 6.00 Build 0)  -->
<svg version="1.1" id="Capa_1" xmlns="http://www.w3.org/2000/svg" xmlns:xlink="http://www.w3.org/1999/xlink" x="0px" y="0px"
	 viewBox="0 0 496 496" style="enable-background:new 0 0 496 496;" xml:space="preserve">
<path style="fill:#ECECEC;" d="M88,392L88,392c-13.256,0-24-10.744-24-24V128c0-13.256,10.744-24,24-24l0,0
	c13.256,0,24,10.744,24,24v240C112,381.256,101.256,392,88,392z"/>
<rect x="64" y="160" style="fill:#B6C1CE;" width="48" height="176"/>
<rect x="64" y="184" style="fill:#FCD770;" width="48" height="128"/>
<path style="fill:#ECECEC;" d="M208,488L208,488c-13.256,0-24-10.744-24-24V128c0-13.256,10.744-24,24-24l0,0
	c13.256,0,24,10.744,24,24v336C232,477.256,221.256,488,208,488z"/>
<rect x="184" y="208" style="fill:#B6C1CE;" width="48" height="176"/>
<rect x="184" y="232" style="fill:#FCD770;" width="48" height="128"/>
<g>
	<rect x="344" y="152" style="fill:#EABD8C;" width="32" height="72"/>
	<path style="fill:#EABD8C;" d="M344,272v200c0,8.84,7.16,16,16,16s16-7.16,16-16V272H344z"/>
</g>
<path style="fill:#D3A06C;" d="M344,190.648c5.232,0.808,10.544,1.352,16,1.352s10.768-0.544,16-1.352V152h-32V190.648z"/>
<circle style="fill:#ECECEC;" cx="360" cy="88" r="80"/>
<circle style="fill:#39C3FC;" cx="360" cy="88" r="48"/>
<rect x="336" y="216" style="fill:#FCD770;" width="48" height="64"/>
<rect x="344" y="272" style="fill:#D3A06C;" width="32" height="32"/>
<path d="M96,398.864c13.76-3.576,24-16,24-30.864V128c0-14.864-10.24-27.288-24-30.864V56H64V30.248l57.944-14.488l-3.88-15.52
	L48,17.752V72h32v25.136c-13.76,3.576-24,16-24,30.864v240c0,14.864,10.24,27.288,24,30.864V456h32v24H64v-16H48v32h80v-56H96
	V398.864z M104,224v16H72v-16H104z M72,208v-16h32v16H72z M104,256v16H72v-16H104z M104,288v16H72v-16H104z M88,112
	c8.824,0,16,7.176,16,16v48H72v-48C72,119.176,79.176,112,88,112z M72,368v-48h32v48c0,8.824-7.176,16-16,16S72,376.824,72,368z"/>
<path d="M168,24v24c0,13.232,10.768,24,24,24h8v25.136c-13.76,3.576-24,16-24,30.864v336c0,17.648,14.352,32,32,32s32-14.352,32-32
	V128c0-14.864-10.24-27.288-24-30.864V56h-24c-4.408,0-8-3.592-8-8V24c0-4.408,3.592-8,8-8h48V0h-48C178.768,0,168,10.768,168,24z
	 M192,320v-16h32v16H192z M224,336v16h-32v-16H224z M192,288v-16h32v16H192z M192,256v-16h32v16H192z M208,480
	c-8.824,0-16-7.176-16-16v-96h32v96C224,472.824,216.824,480,208,480z M224,128v96h-32v-96c0-8.824,7.176-16,16-16
	S224,119.176,224,128z"/>
<path d="M448,88c0-48.52-39.48-88-88-88s-88,39.48-88,88c0,40.192,27.12,74.104,64,84.592V208h-8v80h8v184c0,13.232,10.768,24,24,24
	s24-10.768,24-24V288h8v-80h-8v-35.408C420.88,162.104,448,128.192,448,88z M288,88c0-39.696,32.304-72,72-72s72,32.304,72,72
	s-32.304,72-72,72S288,127.696,288,88z M376,224v16h-32v-16H376z M344,272v-16h32v16H344z M368,472c0,4.408-3.592,8-8,8
	s-8-3.592-8-8V288h16V472z M368,208h-16v-32.408c2.64,0.24,5.296,0.408,8,0.408s5.36-0.168,8-0.408V208z"/>
<path d="M360,48c22.056,0,40,17.944,40,40c0,5.952-1.328,11.736-3.936,17.2l14.432,6.904C414.152,104.472,416,96.36,416,88
	c0-30.88-25.12-56-56-56c-8.36,0-16.472,1.848-24.104,5.504l6.904,14.432C348.264,49.328,354.048,48,360,48z"/>
<path d="M384.104,138.496l-6.904-14.432C371.736,126.672,365.952,128,360,128c-22.056,0-40-17.944-40-40
	c0-5.952,1.328-11.736,3.936-17.2l-14.432-6.904C305.848,71.528,304,79.64,304,88c0,30.88,25.12,56,56,56
	C368.36,144,376.472,142.152,384.104,138.496z"/>
<g>
</g>
<g>
</g>
<g>
</g>
<g>
</g>
<g>
</g>
<g>
</g>
<g>
</g>
<g>
</g>
<g>
</g>
<g>
</g>
<g>
</g>
<g>
</g>
<g>
</g>
<g>
</g>
<g>
</g>
</svg>
