<?xml version="1.0" encoding="iso-8859-1"?>
<!-- Generator: Adobe Illustrator 19.0.0, SVG Export Plug-In . SVG Version: 6.00 Build 0)  -->
<svg version="1.1" id="Capa_1" xmlns="http://www.w3.org/2000/svg" xmlns:xlink="http://www.w3.org/1999/xlink" x="0px" y="0px"
	 viewBox="0 0 512 512" style="enable-background:new 0 0 512 512;" xml:space="preserve">
<polygon style="fill:#E6E6E6;" points="164.884,321.086 164.884,234.305 303.734,234.305 303.734,303.73 "/>
<path style="fill:#4398D1;" d="M472.003,376.166l-142.234-37.724l-141.922,14.935c-14.623,1.545-29.211-3.168-40.171-12.974
	L7.958,215.439C2.881,210.874-0.017,204.365,0,197.544l0,0c0.009-13.251,10.744-23.986,23.986-23.986h1.658
	c5.84,0,11.49,2.135,15.872,5.997L182.24,303.73l138.069-16.245c6.248-0.738,12.583-0.33,18.693,1.198L484.3,324.948
	c11.195,2.829,19.031,12.896,19.031,24.446v2.308c0,2.708-0.434,5.406-1.293,7.975l0,0
	C497.889,372.191,484.785,379.385,472.003,376.166z"/>
<path style="fill:#7BBDD1;" d="M69.425,468.614H277.7l0,0v34.712l0,0H34.713l0,0l0,0C34.713,484.156,50.255,468.614,69.425,468.614z
	"/>
<path style="fill:#A2DAEB;" d="M468.618,503.326H277.7V381.833l150.392,34.183c23.7,5.389,40.527,26.46,40.527,50.767V503.326z"/>
<polygon style="fill:#7BBDD1;" points="192.368,407.867 277.7,425.223 277.7,381.833 196.707,364.476 "/>
<path style="fill:#A2DAEB;" d="M164.884,350.591v39.138c0,14.805,12.002,26.815,26.807,26.815c10.162,0,19.448-5.736,23.995-14.831
	l26.755-54.091l-54.594,5.745C180.08,354.184,172.235,353.23,164.884,350.591z"/>
<g>
	<path style="fill:#E6E6E6;" d="M286.378,208.27h-17.356V34.708c0-14.38,11.655-26.034,26.034-26.034h188.098
		c15.933,0,28.855,12.922,28.846,28.855c0,12.418-7.94,23.44-19.717,27.362l-78.476,26.156c-3.541,1.189-5.936,4.495-5.936,8.236
		v22.207h-17.356V99.282c0.017-11.186,7.185-21.114,17.799-24.655l78.476-26.156c6.049-1.918,9.398-8.374,7.481-14.423
		c-1.527-4.834-6.049-8.097-11.117-8.019H295.056c-4.79,0-8.678,3.888-8.678,8.678V208.27z"/>
	<path style="fill:#E6E6E6;" d="M451.262,190.914v-17.356c4.79,0,8.678-3.888,8.678-8.678v-26.034c0-4.79-3.888-8.678-8.678-8.678
		c-4.79,0-8.678,3.888-8.678,8.678v17.356h-17.356v-17.356c0-14.38,11.655-26.034,26.034-26.034
		c14.38,0,26.034,11.655,26.034,26.034v26.034C477.296,179.259,465.642,190.914,451.262,190.914z"/>
	<path style="fill:#E6E6E6;" d="M347.125,190.914c-14.38,0-26.034-11.655-26.034-26.034v-26.034
		c0-14.38,11.655-26.034,26.034-26.034s26.034,11.655,26.034,26.034v17.356h-17.356v-17.356c0-4.79-3.888-8.678-8.678-8.678
		c-4.79,0-8.678,3.888-8.678,8.678v26.034c0,4.79,3.888,8.678,8.678,8.678V190.914z"/>
</g>
<circle style="fill:#A2DAEB;" cx="399.193" cy="156.202" r="43.391"/>
<rect x="390.515" y="147.524" style="fill:#86C8DC;" width="17.356" height="17.356"/>
<path style="fill:#E6E6E6;" d="M251.665,234.305h-17.356v-34.712c0-4.79-3.888-8.678-8.678-8.678c-4.79,0-8.678,3.888-8.678,8.678
	v8.678h-17.356v-8.678c0-14.38,11.655-26.034,26.034-26.034c14.38,0,26.034,11.655,26.034,26.034V234.305z"/>
<rect x="182.24" y="373.155" style="fill:#7BBDD1;" width="17.356" height="17.356"/>
<path style="fill:#86C8DC;" d="M468.618,466.783c0-24.307-16.827-45.378-40.527-50.767l-14.831-3.376
	c-25.982,40.605-63.802,72.263-108.346,90.686h163.704V466.783z"/>
<rect x="303.734" y="459.936" style="fill:#7BBDD1;" width="164.884" height="17.356"/>
<g>
</g>
<g>
</g>
<g>
</g>
<g>
</g>
<g>
</g>
<g>
</g>
<g>
</g>
<g>
</g>
<g>
</g>
<g>
</g>
<g>
</g>
<g>
</g>
<g>
</g>
<g>
</g>
<g>
</g>
</svg>
