<?xml version="1.0" encoding="iso-8859-1"?>
<!-- Generator: Adobe Illustrator 19.0.0, SVG Export Plug-In . SVG Version: 6.00 Build 0)  -->
<svg version="1.1" id="Layer_1" xmlns="http://www.w3.org/2000/svg" xmlns:xlink="http://www.w3.org/1999/xlink" x="0px" y="0px"
	 viewBox="0 0 494.4 494.4" style="enable-background:new 0 0 494.4 494.4;" xml:space="preserve">
<path style="fill:#5E6664;" d="M256.6,250.4c-8.8,0-16-7.2-16-16v-152c0-27.2-20.8-49.6-48-49.6s-48,22.4-48,49.6v151.2
	c0,8.8-7.2,16-16,16s-16-7.2-16-16V82.4c0-45.6,34.4-82.4,80-82.4s80,36.8,80,82.4v151.2C272.6,243.2,265.4,250.4,256.6,250.4z"/>
<path style="fill:#2F423F;" d="M323,411.2c-45.6,0-82.4-36.8-82.4-82.4V177.6c0-8.8,7.2-16,16-16c8.8,0,16,7.2,16,16v151.2
	c0,27.2,23.2,49.6,50.4,49.6s50.4-22.4,50.4-49.6c0-8.8,7.2-16,16.8-16s16,7.2,16,16C405.4,374.4,368.6,411.2,323,411.2z"/>
<rect x="24.6" y="375.2" style="fill:#3CC676;" width="32" height="104"/>
<path style="fill:#3AC2F2;" d="M88.6,478.4c0,8.8-7.2,16-16,16l0,0c-8.8,0-16-7.2-16-16v-36c0-8.8,7.2-16,16-16l0,0
	c8.8,0,16,7.2,16,16V478.4z"/>
<path style="fill:#009CC6;" d="M74.2,426.4L74.2,426.4c8.8,0,14.4,7.2,14.4,16v36c0,8.8-6.4,16-15.2,16l0,0"/>
<path style="fill:#3AC2F2;" d="M24.6,443.2c-8,0.8-16.8,8-16.8,17.6s8.8,16.8,16.8,17.6V443.2z"/>
<rect x="192.6" y="375.2" style="fill:#3CC676;" width="32" height="104"/>
<g>
	<polyline style="fill:#0AA06E;" points="24.6,375.2 56.6,375.2 56.6,479.2 	"/>
	<polyline style="fill:#0AA06E;" points="224.6,479.2 224.6,375.2 192.6,375.2 	"/>
</g>
<path style="fill:#3AC2F2;" d="M160.6,478.4c0,8.8,7.2,16,16,16l0,0c8.8,0,16-7.2,16-16v-36c0-8.8-7.2-16-16-16l0,0
	c-8.8,0-16,7.2-16,16V478.4z"/>
<g>
	<path style="fill:#009CC6;" d="M176.6,493.6L176.6,493.6c8.8,0,16-7.2,16-16v-36c0-8.8-7.2-16-16-16l0,0"/>
	<path style="fill:#009CC6;" d="M224.6,443.2c8,0.8,16,8,16,17.6s-8,16.8-16,17.6V443.2z"/>
</g>
<path style="fill:#3AC2F2;" d="M224.6,375.2h-32v-53.6c0-36-28.8-66.4-64.8-66.4h-2.4c-36,0-68.8,31.2-68.8,66.4v53.6h-32v-53.6
	c0-53.6,46.4-98.4,100-98.4h2.4c54.4,0,97.6,44.8,97.6,98.4V375.2z"/>
<path style="fill:#009CC6;" d="M128.6,223.2h-0.8c53.6,0,96.8,44.8,96.8,98.4v53.6h-32v-53.6c0-36-28.8-66.4-64.8-66.4h0.8"/>
<circle style="fill:#C4C4C4;" cx="408.6" cy="267.2" r="77.6"/>
<path style="fill:#A8A8A8;" d="M463.8,212c30.4,30.4,30.4,79.2,0,109.6s-79.2,30.4-109.6,0"/>
<g>
</g>
<g>
</g>
<g>
</g>
<g>
</g>
<g>
</g>
<g>
</g>
<g>
</g>
<g>
</g>
<g>
</g>
<g>
</g>
<g>
</g>
<g>
</g>
<g>
</g>
<g>
</g>
<g>
</g>
</svg>
